<svg width="193" height="181" viewBox="0 0 193 181" fill="none" xmlns="http://www.w3.org/2000/svg">
<path fill-rule="evenodd" clip-rule="evenodd" d="M30.2239 73.1724C4.46138 100.176 -13.8818 138.791 13.8287 161.67C44.7762 187.213 108.61 181.283 141.61 133.091C162.703 102.306 173.866 53.6357 150.5 26.3358C130.495 2.96048 61.8303 40.0383 30.2239 73.1724Z" fill="#11A8F0"/>
<path d="M117.42 153.612V3.01202H15.012V141.564" fill="#4DB7E5"/>
<path d="M96.336 15.06H15.012V153.612H117.42V36.144L96.336 15.06Z" fill="white"/>
<path d="M96.336 36.144H117.42L96.336 15.06V36.144Z" fill="#23B6F5"/>
<path d="M81.7555 91.0468C78.9656 86.8538 74.2637 84.3345 69.228 84.336V99.396L81.7555 91.0468Z" fill="#F98500"/>
<path d="M69.228 99.396V84.336C62.3216 84.333 56.2976 89.0275 54.6151 95.7266C52.9326 102.426 56.0211 109.41 62.1098 112.671C68.197 115.933 75.7241 114.635 80.3686 109.523C85.0116 104.411 85.5837 96.7943 81.7554 91.0468L69.228 99.396Z" fill="#FFB531"/>
<path d="M24.048 87.348H45.132V93.372H24.048V87.348Z" fill="#3FB7C7"/>
<path d="M24.048 75.3H51.156V81.324H24.048V75.3Z" fill="#3FB7C7"/>
<path d="M24.048 99.396H45.132V105.42H24.048V99.396Z" fill="#3FB7C7"/>
<path d="M24.048 111.444H45.132V117.468H24.048V111.444Z" fill="#3FB7C7"/>
<path d="M24.048 123.492H78.264V129.516H24.048V123.492Z" fill="#3FB7C7"/>
<path d="M24.048 135.54H51.156V141.564H24.048V135.54Z" fill="#3FB7C7"/>
<path d="M57.18 135.54H78.264V141.564H57.18V135.54Z" fill="#3FB7C7"/>
<path d="M24.048 24.096H30.072V30.12H24.048V24.096Z" fill="#3FB7C7"/>
<path d="M36.096 24.096H42.12V30.12H36.096V24.096Z" fill="#3FB7C7"/>
<path d="M48.144 24.096H54.168V30.12H48.144V24.096Z" fill="#3FB7C7"/>
<path d="M99.348 69.276H27.06C25.3966 69.276 24.048 67.9274 24.048 66.264V36.144H30.072V63.252H99.348V69.276Z" fill="#3FB7C7"/>
<path d="M51.156 57.228C50.6883 57.228 50.228 57.1206 49.8103 56.9118L39.108 51.5599L28.4057 56.9265L25.7143 51.5349L37.7623 45.5109C38.6094 45.0873 39.6066 45.0873 40.4537 45.5109L50.1265 50.3481L60.6979 34.488C61.2892 33.6982 62.2172 33.232 63.204 33.232C64.1909 33.232 65.1189 33.6982 65.7101 34.488L75.7182 49.5053L85.1704 40.0531C86.347 38.878 88.253 38.878 89.4296 40.0531L101.478 52.1011L97.2184 56.3603L87.3 46.4272L77.3816 56.3456C76.7433 56.9839 75.8535 57.3015 74.9549 57.2133C74.0578 57.1251 73.2474 56.6382 72.7459 55.8882L63.204 41.565L53.6621 55.8779C53.1047 56.7191 52.1649 57.2265 51.156 57.228Z" fill="#F35244"/>
<path d="M98.6244 96.712L87.3 135.54H102.36V159.636C102.36 169.616 110.452 177.708 120.432 177.708H138.504V63.5197C119.695 65.4375 103.925 78.5635 98.6244 96.712Z" fill="#FDFDFB"/>
<path d="M143.235 63.252C141.656 63.2608 140.076 63.3505 138.504 63.5197V177.708H189.708V109.725C189.708 84.058 168.902 63.252 143.235 63.252V63.252Z" fill="#348FD9"/>
<path d="M147.54 63.4682C146.121 63.3388 144.691 63.252 143.235 63.252C141.656 63.2608 140.076 63.3505 138.504 63.5197V177.708H147.54V63.4682Z" fill="#3086CD"/>
<path d="M126.456 114.068C126.456 118.843 122.585 122.715 117.808 122.715C113.033 122.715 109.161 118.843 109.161 114.068C109.161 109.291 113.033 105.42 117.808 105.42C122.585 105.42 126.456 109.291 126.456 114.068Z" fill="#B0B0AE"/>
<path d="M165.612 102.408C160.622 102.408 156.576 98.3621 156.576 93.372C156.576 88.3819 160.622 84.336 165.612 84.336C170.602 84.336 174.648 88.3819 174.648 93.372C174.648 98.3621 170.602 102.408 165.612 102.408ZM165.612 90.36C163.949 90.36 162.6 91.7086 162.6 93.372C162.6 95.0353 163.949 96.384 165.612 96.384C167.275 96.384 168.624 95.0353 168.624 93.372C168.624 91.7086 167.275 90.36 165.612 90.36Z" fill="#4DB7E5"/>
<path d="M150.552 108.432H138.504V102.408H149.305L157.458 94.2544L161.718 98.5136L152.682 107.55C152.117 108.114 151.351 108.432 150.552 108.432Z" fill="#4DB7E5"/>
<path d="M168.624 129.516C163.634 129.516 159.588 125.47 159.588 120.48C159.588 115.49 163.634 111.444 168.624 111.444C173.614 111.444 177.66 115.49 177.66 120.48C177.66 125.47 173.614 129.516 168.624 129.516ZM168.624 117.468C166.961 117.468 165.612 118.817 165.612 120.48C165.612 122.143 166.961 123.492 168.624 123.492C170.287 123.492 171.636 122.143 171.636 120.48C171.636 118.817 170.287 117.468 168.624 117.468Z" fill="#4DB7E5"/>
<path d="M168.624 153.612C163.634 153.612 159.588 149.566 159.588 144.576C159.588 139.586 163.634 135.54 168.624 135.54C173.614 135.54 177.66 139.586 177.66 144.576C177.66 149.566 173.614 153.612 168.624 153.612ZM168.624 141.564C166.961 141.564 165.612 142.913 165.612 144.576C165.612 146.239 166.961 147.588 168.624 147.588C170.287 147.588 171.636 146.239 171.636 144.576C171.636 142.913 170.287 141.564 168.624 141.564Z" fill="#4DB7E5"/>
<path d="M138.504 117.468H147.54V123.492H138.504V117.468Z" fill="#4DB7E5"/>
<path d="M147.54 78.312H153.564V84.336H147.54V78.312Z" fill="#4DB7E5"/>
<path d="M162.6 147.588H156.576C155.777 147.588 155.011 147.27 154.446 146.706L146.293 138.552H138.504V132.528H147.54C148.339 132.528 149.105 132.846 149.67 133.41L157.823 141.564H162.6V147.588Z" fill="#4DB7E5"/>
<path d="M153.564 117.468H162.6V123.492H153.564V117.468Z" fill="#4DB7E5"/>
<path d="M165.612 168.672H159.588C158.789 168.672 158.023 168.354 157.458 167.79L149.305 159.636H138.504V153.612H150.552C151.351 153.612 152.117 153.93 152.682 154.494L160.835 162.648H165.612V168.672Z" fill="#4DB7E5"/>
<path d="M171.636 162.648H177.66V168.672H171.636V162.648Z" fill="#4DB7E5"/>
<path d="M138.504 102.408H147.54V108.432H138.504V102.408Z" fill="#48ADD9"/>
<path d="M138.504 117.468H147.54V123.492H138.504V117.468Z" fill="#48ADD9"/>
<path d="M138.504 132.528H147.54V138.552H138.504V132.528Z" fill="#48ADD9"/>
<path d="M138.504 153.612H147.54V159.636H138.504V153.612Z" fill="#48ADD9"/>
<path d="M15.012 156.624H93.324V150.6H18.024V18.072H93.324V36.144C93.324 37.8074 94.6726 39.156 96.336 39.156H114.408V60.24H120.432V3.012C120.432 1.34863 119.083 0 117.42 0H15.012C13.3486 0 12 1.34863 12 3.012V153.612C12 155.275 13.3486 156.624 15.012 156.624ZM99.348 33.132V22.3312L110.149 33.132H99.348ZM114.408 6.024V28.8728L98.4656 12.9304C98.2097 12.6775 97.9097 12.473 97.5802 12.3274C97.492 12.2907 97.4008 12.2568 97.3096 12.2289C97.0522 12.1407 96.7846 12.0877 96.514 12.0715C96.4537 12.0774 96.3963 12.048 96.336 12.048H18.024V6.024H114.408Z" fill="#4E3699"/>
<path d="M39.108 51.5599L49.8103 56.9265C51.1678 57.606 52.8194 57.1662 53.6621 55.9029L63.204 41.565L72.7459 55.8779C73.2474 56.6294 74.0578 57.1162 74.9549 57.2045C75.8535 57.2927 76.7433 56.9751 77.3816 56.3368L87.3 46.4272L97.2184 56.3456L101.478 52.0864L89.4296 40.0384C88.253 38.8633 86.347 38.8633 85.1704 40.0384L75.7182 49.4906L65.7101 34.4718C65.1189 33.6821 64.1908 33.2173 63.204 33.2173C62.2172 33.2173 61.2891 33.6821 60.6979 34.4718L50.1236 50.3334L40.4537 45.4962C39.6066 45.0727 38.6094 45.0727 37.7623 45.4962L30.072 49.3421V36.144H24.048V66.264C24.048 67.9274 25.3966 69.276 27.06 69.276H99.348V63.252H30.072V56.0779L39.108 51.5599Z" fill="#FF6A48"/>
<path d="M87.3 99.396C87.3014 95.8266 86.2425 92.3381 84.2586 89.3717C79.2832 81.9211 69.6015 79.24 61.5024 83.0697C53.4047 86.898 49.3338 96.0825 51.9355 104.655C54.5371 113.228 63.026 118.6 71.8855 117.283C80.7465 115.965 87.3059 108.354 87.3 99.396ZM72.24 93.7691V87.7451C74.1048 88.229 75.8256 89.1526 77.258 90.438L72.24 93.7691ZM69.228 111.444C63.1613 111.444 58.0403 106.933 57.2756 100.914C56.5108 94.8957 60.342 89.2467 66.216 87.7304V99.396C66.216 100.506 66.8263 101.529 67.8058 102.052C68.0367 102.173 68.2823 102.264 68.5353 102.324C68.6279 102.345 68.725 102.345 68.8177 102.357C68.953 102.384 69.0897 102.402 69.228 102.408H69.2942C69.4839 102.398 69.6707 102.37 69.8545 102.324C69.9457 102.312 70.0354 102.296 70.1251 102.276C70.3987 102.19 70.6604 102.068 70.9002 101.911L80.6009 95.4413C81.048 96.712 81.276 98.0488 81.276 99.396C81.276 106.049 75.8814 111.444 69.228 111.444V111.444Z" fill="#4E3699"/>
<path d="M24.048 87.348H45.132V93.372H24.048V87.348Z" fill="#FFB531"/>
<path d="M24.048 75.3H51.156V81.324H24.048V75.3Z" fill="#FFB531"/>
<path d="M24.048 99.396H45.132V105.42H24.048V99.396Z" fill="#FFB531"/>
<path d="M24.048 111.444H45.132V117.468H24.048V111.444Z" fill="#4DB7E5"/>
<path d="M24.048 123.492H78.264V129.516H24.048V123.492Z" fill="#4DB7E5"/>
<path d="M24.048 135.54H51.156V141.564H24.048V135.54Z" fill="#FF6A48"/>
<path d="M57.18 135.54H78.264V141.564H57.18V135.54Z" fill="#FF6A48"/>
<path d="M24.048 24.096H30.072V30.12H24.048V24.096Z" fill="#FFB531"/>
<path d="M36.096 24.096H42.12V30.12H36.096V24.096Z" fill="#FF6A48"/>
<path d="M48.144 24.096H54.168V30.12H48.144V24.096Z" fill="#4DB7E5"/>
<path d="M143.235 60.24C121.285 60.3606 101.995 74.8264 95.733 95.8663L84.4086 134.697C84.1424 135.606 84.3218 136.589 84.891 137.348C85.4587 138.105 86.3514 138.552 87.3 138.552H99.348V159.636C99.3627 171.274 108.794 180.705 120.432 180.72H189.708C191.371 180.72 192.72 179.371 192.72 177.708V109.725C192.689 82.4079 170.552 60.2709 143.235 60.24V60.24ZM105.372 159.636V135.54C105.372 133.877 104.023 132.528 102.36 132.528H91.315L101.517 97.5562C106.09 81.7226 119.266 69.8643 135.492 66.9802V174.696H120.432C112.118 174.686 105.382 167.95 105.372 159.636V159.636ZM186.696 174.696H141.516V159.636H149.305L157.458 167.79C158.023 168.354 158.789 168.672 159.588 168.672H165.612V162.648H160.835L152.682 154.494C152.117 153.93 151.351 153.612 150.552 153.612H141.516V138.552H146.293L154.446 146.706C155.011 147.27 155.777 147.588 156.576 147.588H160.142C161.609 151.737 165.852 154.227 170.189 153.483C174.527 152.738 177.697 148.976 177.697 144.576C177.697 140.176 174.527 136.414 170.189 135.669C165.852 134.925 161.609 137.415 160.142 141.564H157.823L149.67 133.41C149.105 132.846 148.339 132.528 147.54 132.528H141.516V123.492H147.54V117.468H141.516V108.432H150.552C151.351 108.432 152.117 108.114 152.682 107.55L159.91 100.321C161.51 101.659 163.527 102.398 165.612 102.408C169.484 102.458 172.97 100.068 174.317 96.437C175.663 92.8058 174.58 88.7202 171.612 86.2332C168.643 83.7463 164.431 83.3962 161.093 85.3581C157.754 87.3201 156.01 91.1704 156.739 94.9751L149.305 102.408H141.516V66.3096C142.119 66.2787 142.682 66.264 143.235 66.264C167.227 66.2919 186.668 85.7332 186.696 109.725V174.696ZM165.612 144.576C165.612 142.913 166.961 141.564 168.624 141.564C170.287 141.564 171.636 142.913 171.636 144.576C171.636 146.239 170.287 147.588 168.624 147.588C166.961 147.588 165.612 146.239 165.612 144.576ZM162.6 93.372C162.6 91.7086 163.949 90.36 165.612 90.36C167.275 90.36 168.624 91.7086 168.624 93.372C168.624 95.0354 167.275 96.384 165.612 96.384C163.949 96.384 162.6 95.0354 162.6 93.372Z" fill="#4E3699"/>
<path d="M117.808 102.408C111.369 102.408 106.148 107.628 106.148 114.068C106.148 120.506 111.369 125.727 117.808 125.727C124.248 125.727 129.468 120.506 129.468 114.068C129.464 107.63 124.245 102.412 117.808 102.408ZM117.808 119.701C114.696 119.701 112.172 117.177 112.172 114.063C112.174 110.951 114.698 108.428 117.811 108.429C120.923 108.431 123.445 110.954 123.444 114.068C123.441 117.178 120.919 119.698 117.808 119.701Z" fill="#4E3699"/>
<path d="M160.142 117.468H153.564V123.492H160.142C161.609 127.641 165.852 130.131 170.189 129.387C174.527 128.642 177.697 124.88 177.697 120.48C177.697 116.08 174.527 112.318 170.189 111.573C165.852 110.829 161.609 113.319 160.142 117.468V117.468ZM171.636 120.48C171.636 122.143 170.287 123.492 168.624 123.492C166.961 123.492 165.612 122.143 165.612 120.48C165.612 118.817 166.961 117.468 168.624 117.468C170.287 117.468 171.636 118.817 171.636 120.48Z" fill="black"/>
<path d="M147.54 78.312H153.564V84.336H147.54V78.312Z" fill="black"/>
<path d="M171.636 162.648H177.66V168.672H171.636V162.648Z" fill="black"/>
</svg>
