<svg width="228" height="459" viewBox="0 0 228 459" fill="none" xmlns="http://www.w3.org/2000/svg">
<rect width="326.555" height="52.3825" rx="21" transform="matrix(-0.703927 -0.710273 -0.703927 0.710273 385 367.404)" fill="#E6F6FD"/>
<rect width="163.603" height="52.3825" rx="21" transform="matrix(-0.703927 -0.710272 -0.703927 0.710272 238.545 355.089)" fill="#E6F6FD"/>
<rect width="95.7153" height="52.3825" rx="21" transform="matrix(-0.703927 -0.710273 -0.703927 0.710273 104.294 123.315)" fill="#E6F6FD"/>
<path d="M41.6066 238.456C26.5938 238.456 14.4236 226.176 14.4236 211.028C14.4236 195.88 26.5938 183.6 41.6066 183.6C56.6193 183.6 68.7896 195.88 68.7896 211.028C68.7896 226.176 56.6193 238.456 41.6066 238.456Z" fill="#E6F6FD"/>
<path d="M98.7464 29.1073C90.7805 29.1073 84.3228 22.5914 84.3228 14.5537C84.3228 6.51589 90.7805 0 98.7464 0C106.712 0 113.17 6.51589 113.17 14.5537C113.17 22.5914 106.712 29.1073 98.7464 29.1073Z" fill="#E6F6FD"/>
<rect width="163.603" height="52.3825" rx="21" transform="matrix(-0.703927 -0.710273 -0.703927 0.710273 290.692 139.712)" fill="#E6F6FD"/>
</svg>
