<svg width="198" height="459" viewBox="0 0 198 459" fill="none" xmlns="http://www.w3.org/2000/svg">
<rect width="326.555" height="52.3825" rx="21" transform="matrix(0.703927 -0.710273 0.703927 0.710273 -187 367.404)" fill="#E6F6FD"/>
<rect width="163.603" height="52.3825" rx="21" transform="matrix(0.703927 -0.710272 0.703927 0.710272 -40.5447 355.089)" fill="#E6F6FD"/>
<rect width="95.7153" height="52.3825" rx="21" transform="matrix(0.703927 -0.710273 0.703927 0.710273 93.7061 123.315)" fill="#E6F6FD"/>
<path d="M156.393 238.456C171.406 238.456 183.576 226.176 183.576 211.028C183.576 195.88 171.406 183.6 156.393 183.6C141.381 183.6 129.21 195.88 129.21 211.028C129.21 226.176 141.381 238.456 156.393 238.456Z" fill="#E6F6FD"/>
<path d="M99.2536 29.1073C107.22 29.1073 113.677 22.5914 113.677 14.5537C113.677 6.51589 107.22 0 99.2536 0C91.2877 0 84.83 6.51589 84.83 14.5537C84.83 22.5914 91.2877 29.1073 99.2536 29.1073Z" fill="#E6F6FD"/>
<rect width="163.603" height="52.3825" rx="21" transform="matrix(0.703927 -0.710273 0.703927 0.710273 -92.6916 139.712)" fill="#E6F6FD"/>
</svg>
