<svg width="1440" height="856" viewBox="0 0 1440 856" fill="none" xmlns="http://www.w3.org/2000/svg">
<path fill-rule="evenodd" clip-rule="evenodd" d="M-340.721 298.224C-340.721 298.224 -254.343 99.9759 -41.4535 147.068C171.436 194.159 431.232 121.463 725.779 121.463C1031.11 121.463 1180.21 197.612 1478.78 147.068C1777.35 96.5231 1807.89 713.926 1533.83 714.303C1451.72 714.416 1383.06 705.858 1322.41 692.944C1180.65 662.753 1082.69 608.752 959.109 586.045C782.661 553.626 646.778 544.962 479.779 586.045C336.778 612.674 140.279 711.903 5.27855 711.903C-191.788 711.903 -142.295 653.143 -225.204 698.144C-308.113 743.145 -340.721 298.224 -340.721 298.224Z" fill="#10A8EF"/>
<path fill-rule="evenodd" clip-rule="evenodd" d="M-340.722 558.559C-340.722 558.559 -254.343 644.591 -41.4535 597.5C171.436 550.408 421.954 775.001 716.5 775.001C1021.83 775.001 1174.43 546.955 1473 597.5C1771.57 648.044 1807.89 142.856 1533.83 142.479C1451.72 142.367 1383.06 150.924 1322.41 163.839C1180.65 194.029 1082.69 248.031 959.109 270.737C782.661 303.156 646.779 311.821 479.779 270.737C336.779 244.108 140.279 144.879 5.27854 144.879C-191.788 144.879 -142.295 203.639 -225.204 158.639C-308.113 113.638 -340.722 558.559 -340.722 558.559Z" fill="#0EA2E8"/>
</svg>
