<svg width="165" height="168" viewBox="0 0 165 168" fill="none" xmlns="http://www.w3.org/2000/svg">
<ellipse cx="82.5" cy="84" rx="82.5" ry="84" fill="#10D2EF"/>
<path d="M121.773 72.107C121.773 68.8045 119.86 66.9795 116.477 66.9795H101.923C101.596 66.9724 101.269 66.987 100.944 67.0233C100.463 67.0882 100.014 67.2995 99.663 67.627C99.3115 67.9546 99.0747 68.3819 98.9859 68.8483C98.8834 69.2871 98.9325 69.7467 99.1257 70.1553C99.3189 70.564 99.6451 70.8988 100.054 71.1074C100.609 71.3696 101.218 71.5034 101.834 71.4986C106.552 71.5424 111.27 71.4986 115.988 71.4986H116.928V73.1066H95.0747C95.0747 67.8078 95.0747 62.5092 95.0298 57.2043C95.0298 55.0757 96.1425 53.5115 98.6351 53.6379C99.9251 53.7031 101.218 53.7031 102.508 53.6379C102.736 53.6051 102.969 53.6527 103.164 53.7722C103.36 53.8917 103.506 54.0753 103.575 54.2901C104.255 55.7047 105.416 56.8456 106.861 57.519C108.305 58.1925 109.944 58.3568 111.498 57.9839C112.668 57.716 113.748 57.1614 114.638 56.3726C115.527 55.5837 116.195 54.5866 116.58 53.4754C116.965 52.3642 117.053 51.1756 116.837 50.0218C116.62 48.8681 116.106 47.7872 115.342 46.8814C114.579 45.9756 113.592 45.2747 112.474 44.8449C111.356 44.4151 110.144 44.2707 108.953 44.4251C107.762 44.5796 106.631 45.0279 105.666 45.7277C104.702 46.4275 103.936 47.3558 103.442 48.4248C103.358 48.5525 103.247 48.6611 103.116 48.7435C102.986 48.8259 102.839 48.8802 102.685 48.9027C101.216 48.9465 99.7917 48.9465 98.3231 48.9027C97.256 48.8696 96.1932 49.0503 95.2005 49.4338C94.2077 49.8174 93.306 50.3955 92.5511 51.1325C91.7961 51.8695 91.2039 52.7497 90.811 53.7189C90.4182 54.688 90.233 55.7255 90.267 56.7672C90.4006 62.1984 90.3118 67.6296 90.3118 73.1046H84.7484V45.2527C87.7305 43.9056 89.3327 41.7769 89.4214 39.0369C89.4878 37.3813 88.9383 35.7582 87.8744 34.4673C86.8106 33.1764 85.3041 32.3048 83.6333 32.0136C81.9626 31.7224 80.2404 32.0311 78.7846 32.8828C77.3288 33.7345 76.2379 35.0717 75.7132 36.6474C75.1812 38.2035 75.2546 39.8963 75.9196 41.4029C76.5846 42.9094 77.7945 44.1243 79.3185 44.8156C79.5855 44.9093 79.8111 45.0901 79.957 45.3277C80.1029 45.5652 80.1601 45.8447 80.119 46.1188V73.1015H74.3781V56.6336C74.3781 52.4619 71.7967 49.4213 67.6977 48.8996C66.0114 48.74 64.3148 48.7111 62.6238 48.813C62.2615 48.8612 61.8931 48.7887 61.5781 48.6073C61.2631 48.4259 61.0201 48.1462 60.888 47.8133C60.1032 46.4781 58.8821 45.4387 57.4202 44.8613C55.9584 44.284 54.3403 44.2023 52.8253 44.6292C51.3102 45.0562 49.9857 45.9671 49.0639 47.2161C48.1421 48.4652 47.6763 49.9799 47.7411 51.5181C47.8058 53.0562 48.3976 54.5287 49.4213 55.6996C50.4451 56.8705 51.8417 57.6722 53.3876 57.9763C54.9334 58.2803 56.5391 58.0692 57.9475 57.3766C59.3558 56.6841 60.4853 55.5502 61.1552 54.1566C61.2181 53.9661 61.3452 53.802 61.5158 53.691C61.6864 53.58 61.8904 53.5285 62.0947 53.5451C63.5633 53.5879 65.0319 53.5452 66.5005 53.588C67.0593 53.5886 67.6095 53.7229 68.1028 53.9792C68.6219 54.2637 69.0428 54.6923 69.3122 55.2105C69.5817 55.7288 69.6875 56.3135 69.6163 56.8905V73.1413H49.5783V115.114H47.7089V71.5771H63.198C63.5268 71.6012 63.8572 71.5601 64.1694 71.4562C64.4816 71.3523 64.7691 71.1878 65.0144 70.9727C65.2598 70.7575 65.458 70.4961 65.5971 70.2042C65.7363 69.9123 65.8135 69.596 65.8242 69.2742C65.8213 68.9557 65.7504 68.6413 65.6161 68.3511C65.4818 68.0609 65.287 67.8012 65.0441 67.5886C64.8012 67.376 64.5155 67.2153 64.2053 67.1165C63.8952 67.0178 63.5674 66.9832 63.2428 67.015C58.1282 67.015 53.0062 66.9712 47.8425 67.015C47.1889 66.9822 46.5356 67.0852 45.9257 67.3172C45.3159 67.5491 44.7634 67.9048 44.3048 68.3607C43.8463 68.8165 43.492 69.3622 43.2655 69.9617C43.039 70.5611 42.9454 71.2006 42.9909 71.8379V114.81C42.9669 115.248 43.0119 115.688 43.1245 116.113C43.3719 117.187 44.0073 118.139 44.9144 118.794C45.8216 119.449 46.9399 119.763 48.0648 119.679H79.9771V128.413H67.1581C66.8162 128.405 66.4741 128.419 66.1342 128.457C65.7686 128.511 65.422 128.652 65.1241 128.866C64.8263 129.08 64.5861 129.362 64.4241 129.686C64.2622 130.011 64.1833 130.369 64.1942 130.73C64.2052 131.091 64.3057 131.444 64.4871 131.758C64.7013 132.121 65.0144 132.419 65.3916 132.618C65.7688 132.818 66.1954 132.911 66.6237 132.888H98.3554C98.8024 132.846 99.2278 132.68 99.5824 132.411C99.9369 132.142 100.206 131.781 100.358 131.368C100.514 130.986 100.55 130.568 100.463 130.166C100.376 129.764 100.169 129.397 99.8689 129.109C99.5945 128.834 99.2592 128.625 98.8887 128.497C98.5182 128.369 98.1226 128.325 97.7322 128.37H85.67C85.3568 128.37 85.0437 128.326 84.7305 128.326V119.636H116.554C117.377 119.664 118.197 119.515 118.955 119.201H120.646V117.985C121.421 116.972 121.814 115.728 121.759 114.465C121.773 100.392 121.773 86.2281 121.773 72.107ZM109.934 48.9047C110.425 48.9158 110.899 49.077 111.29 49.3656C111.681 49.6541 111.97 50.0553 112.115 50.5127C111.715 50.1509 111.191 49.9494 110.646 49.9482C110.338 49.9327 110.029 49.9785 109.739 50.0828C109.45 50.187 109.184 50.3476 108.96 50.5548C108.736 50.762 108.557 51.0114 108.434 51.2881C108.311 51.5648 108.247 51.8629 108.245 52.1644C108.243 52.4309 108.288 52.6958 108.379 52.947C108.018 52.6375 107.763 52.228 107.646 51.7732C107.53 51.3184 107.558 50.8398 107.727 50.4011C107.896 49.9623 108.198 49.5842 108.593 49.317C108.988 49.0499 109.456 48.9064 109.936 48.9057L109.934 48.9047ZM80.0251 38.7372C80.0177 38.2558 80.1704 37.785 80.4603 37.3954C80.7502 37.0057 81.1617 36.7184 81.633 36.5764C82.1044 36.4344 82.6101 36.4454 83.0745 36.6077C83.5389 36.7701 83.9368 37.075 84.2086 37.4768C83.9387 37.3733 83.653 37.3144 83.3632 37.3026C83.0548 37.2871 82.7462 37.3329 82.4564 37.4371C82.1666 37.5414 81.9015 37.702 81.6771 37.9092C81.4527 38.1164 81.2736 38.3659 81.1507 38.6426C81.0279 38.9192 80.9638 39.2174 80.9624 39.5189C80.9665 40.0153 81.1212 40.4993 81.4071 40.9098C81.0014 40.6985 80.6602 40.3863 80.4178 40.0048C80.1755 39.6233 80.0407 39.1859 80.0272 38.7372H80.0251ZM52.43 51.2504C52.4315 50.9489 52.4955 50.6507 52.6183 50.3741C52.7412 50.0974 52.9202 49.848 53.1446 49.6408C53.369 49.4336 53.6342 49.273 53.924 49.1688C54.2138 49.0645 54.5224 49.0186 54.8308 49.0341C55.1432 49.037 55.4513 49.1044 55.7351 49.2317C56.019 49.359 56.2722 49.5435 56.478 49.7729C56.2518 49.684 56.0099 49.6396 55.7661 49.6424C55.4576 49.627 55.1491 49.6729 54.8592 49.7772C54.5694 49.8814 54.3042 50.0419 54.0798 50.2491C53.8554 50.4563 53.6764 50.7058 53.5536 50.9825C53.4308 51.2591 53.3667 51.5573 53.3653 51.8588C53.3586 52.418 53.5646 52.9596 53.9435 53.379C53.495 53.2232 53.1078 52.9341 52.8364 52.5522C52.5649 52.1704 52.4227 51.7151 52.43 51.2504Z" fill="#F4F4F4"/>
<path d="M54.7003 53.2059C55.3018 53.2015 55.8794 52.9751 56.3169 52.5721C56.7545 52.1691 57.0198 51.6194 57.0593 51.0334C57.0768 50.5852 56.9573 50.1419 56.7159 49.7603C56.4745 49.3786 56.1222 49.0758 55.7038 48.8903C55.2855 48.7048 54.82 48.6451 54.3668 48.7188C53.9136 48.7924 53.4931 48.9961 53.1589 49.3039C52.8247 49.6117 52.5919 50.0096 52.4902 50.447C52.3885 50.8845 52.4223 51.3416 52.5877 51.7601C52.753 52.1786 53.0422 52.5395 53.4184 52.797C53.7947 53.0545 54.2409 53.1968 54.7003 53.2059Z" fill="#FBC316"/>
<path d="M82.2954 40.8234C82.897 40.819 83.4745 40.5926 83.9121 40.1896C84.3497 39.7867 84.6149 39.237 84.6544 38.651C84.672 38.2027 84.5524 37.7595 84.3111 37.3778C84.0697 36.9962 83.7173 36.6934 83.299 36.5079C82.8806 36.3224 82.4152 36.2627 81.962 36.3363C81.5087 36.41 81.0883 36.6137 80.754 36.9215C80.4198 37.2293 80.1871 37.6272 80.0853 38.0646C79.9836 38.502 80.0175 38.9591 80.1828 39.3776C80.3481 39.7961 80.6374 40.1571 81.0136 40.4145C81.3898 40.672 81.836 40.8144 82.2954 40.8234Z" fill="#FBC316"/>
<path d="M109.578 53.5104C110.18 53.506 110.757 53.2796 111.195 52.8767C111.633 52.4737 111.898 51.924 111.937 51.338C111.955 50.8898 111.835 50.4466 111.594 50.065C111.353 49.6833 111 49.3804 110.582 49.1949C110.164 49.0094 109.698 48.9497 109.245 49.0233C108.792 49.097 108.371 49.3007 108.037 49.6085C107.703 49.9163 107.47 50.3143 107.368 50.7517C107.267 51.1891 107.301 51.6461 107.466 52.0646C107.631 52.4831 107.92 52.8442 108.297 53.1017C108.673 53.3591 109.119 53.5014 109.578 53.5104Z" fill="#FBC316"/>
<path d="M119.726 72.15H48.6462V118.294H119.726V72.15Z" fill="#F7F8FB"/>
<path d="M79.0012 127.506V118.773H47.0889C45.964 118.856 44.8457 118.542 43.9385 117.887C43.0314 117.232 42.396 116.281 42.1486 115.206C42.0601 114.777 42.0153 114.34 42.0149 113.903V70.9342C41.962 70.2952 42.0505 69.6525 42.2743 69.0498C42.4982 68.447 42.8522 67.8984 43.3124 67.4409C43.7725 66.9835 44.3281 66.6282 44.9413 66.3988C45.5545 66.1694 46.2111 66.0714 46.8666 66.1115C51.9812 66.0677 57.1032 66.0677 62.2669 66.1115C62.5915 66.0796 62.9193 66.114 63.2295 66.2127C63.5396 66.3115 63.8252 66.4723 64.0681 66.6849C64.311 66.8975 64.5059 67.1572 64.6402 67.4474C64.7745 67.7376 64.8453 68.0521 64.8482 68.3706C64.8413 68.6936 64.7665 69.0116 64.6286 69.3053C64.4907 69.5989 64.2926 69.8618 64.0465 70.0777C63.8003 70.2936 63.5113 70.4576 63.1975 70.5601C62.8837 70.6626 62.5516 70.7011 62.222 70.6733H46.7329V114.21H115.944V70.6733H100.855C100.24 70.6731 99.6319 70.5397 99.0756 70.2822C98.6702 70.0702 98.3465 69.735 98.1537 69.3274C97.9608 68.9198 97.9093 68.4619 98.0069 68.0231C98.0885 67.5536 98.3231 67.1222 98.6759 66.7934C99.0288 66.4645 99.4808 66.2559 99.965 66.198C100.29 66.1607 100.617 66.1461 100.944 66.1543H115.499C118.882 66.1543 120.795 68.0221 120.795 71.2808V113.732C120.795 116.992 118.882 118.858 115.544 118.858H83.7203V127.548C84.0334 127.548 84.3466 127.592 84.6597 127.592H96.7104C97.1007 127.547 97.4964 127.59 97.8668 127.718C98.2373 127.846 98.5727 128.056 98.8471 128.33C99.1491 128.617 99.357 128.985 99.4441 129.387C99.5313 129.79 99.4939 130.208 99.3366 130.59C99.1842 131.002 98.915 131.364 98.5605 131.633C98.206 131.902 97.7806 132.067 97.3336 132.11H65.6018C65.1742 132.128 64.7494 132.033 64.373 131.834C63.9966 131.635 63.6828 131.34 63.4652 130.98C63.2836 130.665 63.1829 130.312 63.1719 129.951C63.1608 129.59 63.2397 129.232 63.4017 128.907C63.5637 128.582 63.8039 128.301 64.1019 128.087C64.3998 127.872 64.7465 127.732 65.1123 127.677C65.4524 127.642 65.7943 127.628 66.1362 127.635H77.8864C78.2473 127.528 78.6248 127.484 79.0012 127.506Z" fill="#000078"/>
<path d="M83.808 44.3428V101.045C83.8819 101.554 83.788 102.072 83.5399 102.525C83.2918 102.979 82.9023 103.343 82.428 103.565C82.1304 103.705 81.8052 103.779 81.4751 103.783C81.145 103.787 80.818 103.72 80.517 103.588C80.216 103.456 79.9483 103.261 79.7326 103.017C79.517 102.773 79.3585 102.485 79.2684 102.175C79.1558 101.72 79.1107 101.252 79.1348 100.785V45.2121C79.1699 44.9386 79.11 44.6615 78.9647 44.4252C78.8193 44.1889 78.597 44.007 78.3332 43.9087C76.8167 43.2091 75.6136 41.9934 74.9499 40.4895C74.2861 38.9857 74.2072 37.2971 74.7279 35.7405C75.2526 34.1649 76.3434 32.8278 77.7992 31.9761C79.255 31.1244 80.9773 30.8156 82.6481 31.1069C84.3188 31.3981 85.8253 32.2696 86.8892 33.5605C87.953 34.8514 88.5025 36.4746 88.4361 38.1302C88.3923 40.8233 86.7901 42.9957 83.808 44.3428ZM83.808 37.9997C83.7922 37.3701 83.5381 36.7686 83.0948 36.3111C82.6515 35.8537 82.0502 35.5727 81.4072 35.5225C80.8017 35.5477 80.228 35.7939 79.7995 36.2122C79.371 36.6305 79.1188 37.1906 79.093 37.7816C79.1061 38.3992 79.3633 38.9879 79.8107 39.4247C80.2582 39.8615 80.8612 40.1125 81.4938 40.1252C81.7891 40.1346 82.0835 40.087 82.3599 39.9849C82.6362 39.8829 82.8892 39.7285 83.1042 39.5306C83.3193 39.3328 83.4921 39.0955 83.6129 38.8322C83.7336 38.5689 83.8 38.2849 83.808 37.9966V37.9997Z" fill="#000078"/>
<path d="M89.3714 72.7633C89.3714 67.1151 89.4602 61.5097 89.3266 55.8615C89.2888 54.8188 89.4713 53.7796 89.8628 52.8088C90.2542 51.8379 90.8463 50.9562 91.602 50.2184C92.3578 49.4806 93.2611 48.9027 94.2556 48.5205C95.2501 48.1383 96.3146 47.9601 97.3827 47.9969C98.8514 48.0408 100.276 48.0408 101.745 47.9969C101.901 47.9832 102.052 47.9326 102.184 47.8493C102.315 47.766 102.425 47.6527 102.501 47.519C103.166 46.0444 104.344 44.8472 105.827 44.1394C107.31 43.4316 109.001 43.259 110.601 43.6521C112.152 44.0114 113.532 44.8718 114.518 46.0937C115.504 47.3156 116.037 48.827 116.032 50.3824C116.027 51.9379 115.483 53.4458 114.489 54.6614C113.495 55.877 112.109 56.7287 110.557 57.0781C109.003 57.4412 107.368 57.2726 105.926 56.6005C104.484 55.9283 103.322 54.7935 102.634 53.3854C102.568 53.1686 102.423 52.9829 102.226 52.8629C102.029 52.7429 101.795 52.6968 101.566 52.7333C100.276 52.7984 98.9837 52.7984 97.6937 52.7333C95.2011 52.559 94.0884 54.1242 94.0884 56.2997C94.133 67.5085 94.1479 78.7172 94.1333 89.9261V90.7087C94.1536 91.0014 94.1095 91.295 94.0041 91.5697C93.8986 91.8445 93.7342 92.0938 93.5218 92.3014C93.3095 92.509 93.0541 92.67 92.7729 92.7733C92.4916 92.8766 92.191 92.9201 91.8911 92.9007C91.5829 92.9516 91.267 92.9363 90.9653 92.8564C90.6636 92.7765 90.3831 92.6337 90.1435 92.4377C89.9038 92.2417 89.7106 91.9972 89.5771 91.7212C89.4436 91.4453 89.3731 91.1443 89.3704 90.8391V72.7633H89.3714ZM108.955 52.6028C109.561 52.6131 110.147 52.3917 110.588 51.9857C111.029 51.5797 111.29 51.0215 111.314 50.4303C111.326 50.1244 111.275 49.8191 111.165 49.5325C111.055 49.2459 110.887 48.9837 110.671 48.7612C110.456 48.5387 110.197 48.3605 109.91 48.2368C109.623 48.1131 109.314 48.0463 109 48.0407C108.692 48.0398 108.387 48.0991 108.103 48.2151C107.819 48.3311 107.562 48.5014 107.346 48.716C107.13 48.9306 106.961 49.1852 106.847 49.4647C106.734 49.7443 106.679 50.0431 106.686 50.3436C106.671 50.6405 106.72 50.9371 106.828 51.2149C106.936 51.4926 107.102 51.7454 107.316 51.9576C107.529 52.1697 107.785 52.3365 108.067 52.4475C108.349 52.5586 108.652 52.6114 108.956 52.6028H108.955Z" fill="#000078"/>
<path d="M73.3939 72.6714V89.9648C73.4011 90.3562 73.386 90.7477 73.3489 91.1375C73.2381 91.6803 72.9285 92.1651 72.4779 92.501C72.0274 92.837 71.4668 93.001 70.9012 92.9625C70.33 92.9506 69.7842 92.7294 69.372 92.3431C68.9598 91.9567 68.7114 91.4333 68.6759 90.8765V55.899C68.7471 55.322 68.6413 54.7374 68.3719 54.2191C68.1024 53.7008 67.6814 53.2723 67.1623 52.9878C66.6614 52.7513 66.1161 52.6181 65.5601 52.5965C64.0915 52.5527 62.6228 52.5965 61.1541 52.5527C60.9489 52.5302 60.7421 52.5793 60.5702 52.6911C60.3983 52.803 60.2724 52.9704 60.2147 53.1641C59.5445 54.5672 58.411 55.7099 56.996 56.409C55.5809 57.108 53.9664 57.3227 52.4114 57.0188C50.8563 56.7149 49.451 55.9099 48.4206 54.733C47.3903 53.556 46.7947 52.0754 46.7296 50.5285C46.6644 48.9816 47.1334 47.4581 48.0612 46.2026C48.989 44.947 50.322 44.0322 51.8463 43.6046C53.3705 43.1771 54.9976 43.2617 56.4667 43.8449C57.9358 44.4282 59.1616 45.4762 59.9475 46.8209C60.0907 47.1458 60.3361 47.4179 60.6482 47.5976C60.9602 47.7773 61.3227 47.8553 61.6833 47.8205C63.3743 47.7191 65.071 47.7481 66.7574 47.9071C70.8522 48.4288 73.4377 51.5133 73.4377 55.6412C73.3939 61.3312 73.3939 67.0222 73.3939 72.6714ZM53.7212 52.5975C54.3228 52.5931 54.9003 52.3667 55.3379 51.9637C55.7755 51.5607 56.0407 51.011 56.0802 50.425C56.0864 49.8292 55.8512 49.2552 55.426 48.8278C55.0007 48.4004 54.4198 48.1541 53.8095 48.1426C53.1993 48.1312 52.6091 48.3556 52.1674 48.7668C51.7257 49.178 51.4682 49.7429 51.4509 50.3385C51.4476 50.6324 51.5038 50.9241 51.6162 51.1969C51.7285 51.4696 51.8949 51.718 52.1058 51.9279C52.3167 52.1377 52.568 52.3049 52.8452 52.4198C53.1224 52.5347 53.4201 52.5951 53.7212 52.5975Z" fill="#000078"/>
</svg>
