<svg width="172" height="171" viewBox="0 0 172 171" fill="none" xmlns="http://www.w3.org/2000/svg">
<path fill-rule="evenodd" clip-rule="evenodd" d="M28.2639 50.6593C4.17205 75.9119 -12.9815 112.023 12.9319 133.418C41.8724 157.304 101.566 151.759 132.426 106.692C152.152 77.9031 162.59 32.3895 140.74 6.86006C122.032 -14.9993 57.8205 19.6739 28.2639 50.6593Z" fill="#11A8F0"/>
<g clip-path="url(#clip0)">
<path d="M153.548 114.289H21.4524V23.3603C21.4524 18.361 25.505 14.3079 30.5047 14.3079H144.496C149.495 14.3079 153.548 18.361 153.548 23.3603V114.289H153.548Z" fill="white"/>
<path d="M153.548 117.266H21.452C19.8077 117.266 18.4749 115.933 18.4749 114.289V23.3606C18.4749 16.7276 23.8718 11.3307 30.5043 11.3307H144.496C151.129 11.3307 156.525 16.7276 156.525 23.3606V114.289C156.525 115.933 155.192 117.266 153.548 117.266ZM24.4294 111.312H150.571V23.3606C150.571 20.0107 147.846 17.2861 144.496 17.2861H30.5043C27.1544 17.2861 24.4298 20.0111 24.4298 23.3606L24.4294 111.312Z" fill="#4E3699"/>
<path d="M142.783 25.2165H32.2217V103.383H142.783V25.2165Z" fill="#D4CCF2"/>
<path d="M166.309 138.527H8.69184C6.45923 138.527 5.18542 135.978 6.52451 134.192L20.6399 115.372C21.1515 114.69 21.9542 114.289 22.8068 114.289H152.194C153.046 114.289 153.849 114.69 154.361 115.372L168.476 134.192C169.815 135.978 168.541 138.527 166.309 138.527Z" fill="white"/>
<path d="M166.309 141.504H8.69183C6.52411 141.504 4.57505 140.299 3.60563 138.36C2.63582 136.421 2.8419 134.14 4.14245 132.405L18.2574 113.586C19.3259 112.162 21.026 111.311 22.8064 111.311H152.193C153.974 111.311 155.674 112.162 156.742 113.586L170.857 132.406C172.158 134.14 172.364 136.422 171.394 138.361C170.425 140.3 168.476 141.504 166.309 141.504ZM166.094 135.979H166.099H166.094ZM9.22865 135.549H165.771L152.059 117.267H22.9409L9.22865 135.549Z" fill="#4E3699"/>
<path d="M165.231 147.268H9.76903C7.67524 147.268 5.97787 145.571 5.97787 143.477V136.967H169.022V143.477C169.023 145.571 167.325 147.268 165.231 147.268Z" fill="#C0EAFF"/>
<path d="M165.231 150.246H9.76902C6.03725 150.246 3.0004 147.209 3.0004 143.477V136.967C3.0004 135.322 4.33359 133.989 5.97787 133.989H169.022C170.667 133.989 172 135.323 172 136.967V143.477C172 147.209 168.963 150.246 165.231 150.246ZM8.95534 139.944V143.477C8.95534 143.926 9.32069 144.291 9.76902 144.291H165.231C165.68 144.291 166.045 143.926 166.045 143.477V139.944H8.95534Z" fill="#4E3699"/>
<path d="M43.2664 76.7188C41.6218 76.7188 40.289 78.0523 40.289 79.6962V101.261C40.289 102.906 41.6222 104.238 43.2664 104.238C44.9107 104.238 46.2435 102.905 46.2435 101.261V79.6962C46.2435 78.0523 44.9107 76.7188 43.2664 76.7188Z" fill="#80C9FF"/>
<path d="M68.5425 82.4417C66.8982 82.4417 65.5654 83.7748 65.5654 85.4191V101.261C65.5654 102.906 66.8986 104.238 68.5425 104.238C70.1871 104.238 71.5199 102.905 71.5199 101.261V85.4191C71.5203 83.7745 70.1871 82.4417 68.5425 82.4417Z" fill="#80C9FF"/>
<path d="M93.8193 67.6908C92.175 67.6908 90.8418 69.0244 90.8418 70.6683V101.261C90.8418 102.906 92.1754 104.238 93.8193 104.238C95.464 104.238 96.7968 102.905 96.7968 101.261V70.6683C96.7972 69.0244 95.464 67.6908 93.8193 67.6908Z" fill="#80C9FF"/>
<path d="M119.096 70.3014C117.451 70.3014 116.118 71.6346 116.118 73.2785V101.261C116.118 102.906 117.452 104.238 119.096 104.238C120.74 104.238 122.073 102.905 122.073 101.261V73.2785C122.073 71.6342 120.74 70.3014 119.096 70.3014Z" fill="#80C9FF"/>
<path d="M55.9047 65.0947C54.2604 65.0947 52.9272 66.4279 52.9272 68.0718V101.261C52.9272 102.906 54.2608 104.238 55.9047 104.238C57.5485 104.238 58.8821 102.905 58.8821 101.261V68.0718C58.8821 66.4279 57.5485 65.0947 55.9047 65.0947Z" fill="#FF6A48"/>
<path d="M81.1811 75.1558C79.5364 75.1558 78.2036 76.489 78.2036 78.1333V101.261C78.2036 102.906 79.5368 104.238 81.1811 104.238C82.8254 104.238 84.1586 102.905 84.1586 101.261V78.1333C84.1586 76.489 82.8254 75.1558 81.1811 75.1558Z" fill="#FF6A48"/>
<path d="M106.458 55.9838C104.813 55.9838 103.48 57.317 103.48 58.9612V101.261C103.48 102.906 104.813 104.238 106.458 104.238C108.102 104.238 109.435 102.905 109.435 101.261V58.9616C109.435 57.317 108.102 55.9838 106.458 55.9838Z" fill="#FF6A48"/>
<path d="M131.734 82.4417C130.09 82.4417 128.757 83.7749 128.757 85.4191V101.261C128.757 102.906 130.09 104.238 131.734 104.238C133.379 104.238 134.711 102.905 134.711 101.261V85.4191C134.711 83.7745 133.378 82.4417 131.734 82.4417Z" fill="#FF6A48"/>
<path d="M142.781 100.404H32.2194C30.5747 100.404 29.2419 101.738 29.2419 103.382C29.2419 105.026 30.5751 106.359 32.2194 106.359H142.781C144.425 106.359 145.758 105.026 145.758 103.382C145.758 101.738 144.425 100.404 142.781 100.404Z" fill="#4E3699"/>
<path d="M84.411 61.6525C83.6595 61.6525 82.9083 61.3697 82.3294 60.8038L63.9109 42.7943L43.7521 59.6794C42.4921 60.7362 40.6134 60.5698 39.5579 59.3086C38.5015 58.0481 38.6679 56.1707 39.9283 55.1143L62.1534 36.4988C63.3257 35.5164 65.0526 35.582 66.1467 36.6525L84.4063 54.5063L107.636 31.6886C108.74 30.6048 110.491 30.5462 111.663 31.5549L134.237 50.9661C135.484 52.0389 135.625 53.9184 134.554 55.1655C133.482 56.4125 131.602 56.5537 130.354 55.482L109.856 37.8551L86.497 60.7995C85.9188 61.3682 85.1645 61.6525 84.411 61.6525Z" fill="#4E3699"/>
<path d="M41.8412 64.0168C45.3294 64.0168 48.1572 61.189 48.1572 57.7008C48.1572 54.2126 45.3294 51.3849 41.8412 51.3849C38.353 51.3849 35.5252 54.2126 35.5252 57.7008C35.5252 61.189 38.353 64.0168 41.8412 64.0168Z" fill="#FFB829"/>
<path d="M41.8404 66.9942C36.7161 66.9942 32.5474 62.8255 32.5474 57.7012C32.5474 52.5776 36.7161 48.4089 41.8404 48.4089C46.9644 48.4089 51.1331 52.5776 51.1331 57.7012C51.1331 62.8259 46.9644 66.9942 41.8404 66.9942ZM41.8404 54.3638C39.9999 54.3638 38.5027 55.861 38.5027 57.7012C38.5027 59.5421 40.0003 61.0393 41.8404 61.0393C43.6813 61.0393 45.1777 59.5417 45.1777 57.7012C45.1777 55.861 43.6813 54.3638 41.8404 54.3638Z" fill="#4E3699"/>
<path d="M64.0887 45.3521C67.5769 45.3521 70.4046 42.5243 70.4046 39.0361C70.4046 35.5479 67.5769 32.7201 64.0887 32.7201C60.6005 32.7201 57.7727 35.5479 57.7727 39.0361C57.7727 42.5243 60.6005 45.3521 64.0887 45.3521Z" fill="#FFB829"/>
<path d="M64.0867 48.3292C58.9627 48.3292 54.794 44.1605 54.794 39.0369C54.794 33.9126 58.9627 29.7439 64.0867 29.7439C69.2102 29.7439 73.3793 33.9126 73.3793 39.0369C73.3793 44.1609 69.2106 48.3292 64.0867 48.3292ZM64.0867 35.6988C62.2458 35.6988 60.7494 37.1964 60.7494 39.0369C60.7494 40.8775 62.2462 42.3743 64.0867 42.3743C65.9272 42.3743 67.424 40.8771 67.424 39.0369C67.4244 37.1964 65.9272 35.6988 64.0867 35.6988Z" fill="#4E3699"/>
<path d="M84.763 64.9921C88.2512 64.9921 91.079 62.1644 91.079 58.6762C91.079 55.188 88.2512 52.3602 84.763 52.3602C81.2748 52.3602 78.4471 55.188 78.4471 58.6762C78.4471 62.1644 81.2748 64.9921 84.763 64.9921Z" fill="#FFB829"/>
<path d="M84.7626 67.9676C79.6391 67.9676 75.47 63.7989 75.47 58.675C75.47 53.5514 79.6391 49.3824 84.7626 49.3824C89.8874 49.3824 94.0557 53.5514 94.0557 58.675C94.0557 63.7989 89.887 67.9676 84.7626 67.9676ZM84.7626 55.3377C82.9217 55.3377 81.4253 56.8349 81.4253 58.675C81.4253 60.5159 82.9221 62.0123 84.7626 62.0123C86.6031 62.0123 88.1007 60.5155 88.1007 58.675C88.1003 56.8345 86.6027 55.3377 84.7626 55.3377Z" fill="#4E3699"/>
<path d="M109.818 40.1294C113.307 40.1294 116.134 37.3016 116.134 33.8134C116.134 30.3252 113.307 27.4975 109.818 27.4975C106.33 27.4975 103.502 30.3252 103.502 33.8134C103.502 37.3016 106.33 40.1294 109.818 40.1294Z" fill="#FFB829"/>
<path d="M109.819 43.1053C104.695 43.1053 100.526 38.9366 100.526 33.8127C100.526 28.6887 104.695 24.5196 109.819 24.5196C114.942 24.5196 119.111 28.6887 119.111 33.8127C119.111 38.9366 114.942 43.1053 109.819 43.1053ZM109.819 30.4746C107.978 30.4746 106.481 31.9725 106.481 33.8127C106.481 35.6536 107.978 37.15 109.819 37.15C111.659 37.15 113.156 35.6532 113.156 33.8127C113.156 31.9725 111.659 30.4746 109.819 30.4746Z" fill="#4E3699"/>
<path d="M133.159 60.3396C136.647 60.3396 139.475 57.5118 139.475 54.0236C139.475 50.5354 136.647 47.7077 133.159 47.7077C129.671 47.7077 126.843 50.5354 126.843 54.0236C126.843 57.5118 129.671 60.3396 133.159 60.3396Z" fill="#FFB829"/>
<path d="M133.16 63.3151C128.036 63.3151 123.867 59.1464 123.867 54.0225C123.867 48.8985 128.036 44.7298 133.16 44.7298C138.284 44.7298 142.453 48.8985 142.453 54.0225C142.453 59.1464 138.284 63.3151 133.16 63.3151ZM133.16 50.6848C131.32 50.6848 129.822 52.1824 129.822 54.0225C129.822 55.8634 131.32 57.3602 133.16 57.3602C135.001 57.3602 136.498 55.863 136.498 54.0225C136.498 52.182 135.001 50.6848 133.16 50.6848Z" fill="#4E3699"/>
<path d="M60.5838 155.715H47.2487C45.6044 155.715 44.2716 157.048 44.2716 158.692C44.2716 160.336 45.6048 161.669 47.2487 161.669H60.5838C62.2285 161.669 63.5613 160.336 63.5613 158.692C63.5613 157.048 62.2285 155.715 60.5838 155.715Z" fill="#4E3699"/>
<path d="M75.6733 155.715H70.7668C69.1225 155.715 67.7897 157.048 67.7897 158.692C67.7897 160.336 69.1229 161.669 70.7668 161.669H75.6733C77.3176 161.669 78.6508 160.336 78.6508 158.692C78.6511 157.048 77.3176 155.715 75.6733 155.715Z" fill="#4E3699"/>
<path d="M114.952 155.715H86.4301C84.7858 155.715 83.4526 157.048 83.4526 158.692C83.4526 160.336 84.7862 161.669 86.4301 161.669H114.952C116.596 161.669 117.929 160.336 117.929 158.692C117.929 157.048 116.596 155.715 114.952 155.715Z" fill="#4E3699"/>
<path d="M127.752 155.715H125.188C123.543 155.715 122.21 157.048 122.21 158.692C122.21 160.336 123.544 161.669 125.188 161.669H127.752C129.396 161.669 130.73 160.336 130.73 158.692C130.73 157.048 129.396 155.715 127.752 155.715Z" fill="#4E3699"/>
</g>
<defs>
<clipPath id="clip0">
<rect x="3" y="2" width="169" height="169" fill="white"/>
</clipPath>
</defs>
</svg>
