<svg width="165" height="168" viewBox="0 0 165 168" fill="none" xmlns="http://www.w3.org/2000/svg">
<ellipse cx="82.5" cy="84" rx="82.5" ry="84" fill="#10D2EF"/>
<path d="M46.1273 69.2069C46.3495 69.4312 46.5148 69.7076 46.609 70.0122C46.7032 70.3168 46.7234 70.6404 46.6679 70.9549V95.5159C46.6679 98.7136 48.1246 100.206 51.2858 100.25H105.707C106.363 100.274 107.019 100.217 107.662 100.079C108.436 99.9284 109.144 99.529 109.682 98.9387C110.221 98.3485 110.562 97.598 110.656 96.7959C110.744 96.1318 110.786 95.462 110.78 94.7919V70.4436C110.81 70.1183 110.894 69.8009 111.03 69.5052C111.072 69.4198 111.072 69.3343 111.113 69.2921C111.196 69.1215 111.28 68.9086 111.363 68.6948C111.619 68.2837 111.776 67.8161 111.821 67.3305C111.862 63.2795 111.862 58.9303 111.862 53.7278C111.82 50.7851 110.281 49.2078 107.371 49.2078H91.1861V45.6689C91.1028 41.0215 88.2737 37.7806 83.988 37.4815C80.4835 37.2256 76.9656 37.2256 73.4611 37.4815C69.1342 37.8228 66.3052 41.0205 66.3052 45.711V49.2078H50.079C47.1667 49.2078 45.6267 50.7861 45.5884 53.7278C45.5472 57.6081 45.5472 61.7866 45.5884 67.202C45.5453 68.226 45.7119 68.8656 46.1273 69.2069ZM50.4962 96.327C50.4141 96.022 50.3859 95.7044 50.413 95.3893V71.2971C50.7039 71.3824 50.9958 71.5109 51.2456 71.5963C52.2027 71.9376 53.1167 72.2779 54.0335 72.6192C55.6558 73.2588 57.3202 73.8561 58.9433 74.4957C62.896 76.0298 66.9732 77.609 71.0119 79.098C71.6359 79.3109 71.8445 79.5669 71.8857 80.0358C67.8497 78.5439 63.7726 76.9675 59.8611 75.4334C58.2388 74.7939 56.5744 74.1543 54.9513 73.557C54.0363 73.2166 53.1625 72.8754 52.1634 72.534C51.8724 72.4487 51.6227 72.3211 51.3317 72.2358V96.371C51.0535 96.3842 50.7746 96.3698 50.4991 96.3279L50.4962 96.327ZM81.6594 75.0921H76.2921V82.8106H75.8346V74.6232H81.6594V75.0921ZM105.624 72.9596C99.3833 75.347 92.9346 77.7777 86.6103 80.2467C86.4573 80.3942 86.3551 80.5886 86.3193 80.8008C86.2772 81.6963 86.2772 82.6342 86.2772 83.5297V85.3629C86.3145 85.6631 86.2844 85.9683 86.1889 86.2547C86.0934 86.5412 85.9352 86.8014 85.7264 87.0155C85.5176 87.2296 85.2637 87.3918 84.9843 87.4898C84.7048 87.5878 84.4072 87.6188 84.1142 87.5806H74.8363C74.5563 87.6012 74.2752 87.5629 74.0103 87.4675C73.7454 87.3722 73.5024 87.2221 73.2964 87.0265C73.1354 86.8705 73.008 86.6816 72.9223 86.4722C73.226 86.5978 73.5521 86.6559 73.8793 86.6429H83.1572C83.4501 86.6811 83.7478 86.6504 84.0273 86.5525C84.3067 86.4546 84.5607 86.2925 84.7696 86.0785C84.9785 85.8645 85.1367 85.6043 85.2323 85.3179C85.3279 85.0315 85.3583 84.7263 85.3211 84.4261V82.5939C85.3211 81.6983 85.3211 80.7607 85.3623 79.8651C85.3877 79.6494 85.4916 79.4514 85.6532 79.3108C91.9775 76.838 98.4263 74.4076 104.667 72.0239L106.913 71.1714V72.4504L105.624 72.9596ZM86.2772 75.0921C86.1106 75.1353 85.9862 75.2206 85.8197 75.2628C85.6631 75.3075 85.5103 75.3645 85.3623 75.4334V72.8322C85.3584 72.4982 85.3021 72.1669 85.1957 71.8512C85.9029 72.1072 86.236 72.7467 86.2772 73.7688V75.0921ZM70.0923 44.5183C70.2436 43.6083 70.7094 42.7842 71.4046 42.1971C72.0997 41.61 72.9779 41.2991 73.8784 41.3207C77.1238 41.2785 80.3271 41.2785 83.4481 41.3207C84.4261 41.3172 85.369 41.6936 86.087 42.3741C86.805 43.0546 87.2447 43.9886 87.3176 44.9881C87.4008 46.0112 87.3587 47.0774 87.3587 48.1858V49.252H70.051C70.058 48.8536 70.0443 48.4551 70.0099 48.0582C69.9742 46.8772 70.002 45.6952 70.0932 44.5174L70.0923 44.5183ZM49.2061 65.3246C49.2893 62.7665 49.2482 60.1653 49.2482 57.6925V54.5791C49.2162 54.1226 49.2442 53.6636 49.3315 53.2146C49.7411 53.1236 50.1616 53.095 50.5795 53.1294H57.8609C62.3516 53.1294 66.9731 53.1725 71.5077 53.1725C79.5796 53.1725 87.6926 53.1726 95.7645 53.1294H106.711C107.128 53.0927 107.549 53.1213 107.959 53.2146C108.049 53.4887 108.077 53.7802 108.042 54.0672H96.6412C88.5693 54.0672 80.4562 54.1102 72.3843 54.1102C67.8488 54.1102 63.1897 54.1103 58.7374 54.0672H51.4561C51.0383 54.0305 50.6175 54.0592 50.2081 54.1524C50.1164 54.6007 50.0884 55.0603 50.1248 55.5169V58.6302C50.1248 61.1462 50.1659 63.7042 50.0836 66.2624C50.0653 66.5211 50.0936 66.7812 50.167 67.0295C49.8369 66.9063 49.5598 66.6676 49.3847 66.3555C49.2096 66.0434 49.1476 65.678 49.2098 65.3237L49.2061 65.3246Z" fill="#F4F4F4"/>
<path d="M113.695 120.888C111.656 121.016 109.867 121.101 108.161 121.144C106.206 121.187 104.708 121.187 103.296 121.144C102.048 121.101 101.674 120.675 101.674 119.396V116.328C101.674 115.006 101.924 114.75 103.171 114.708H113.198C113.621 114.825 114.071 114.796 114.477 114.626C114.883 114.456 115.224 114.154 115.446 113.767C115.668 113.379 115.76 112.927 115.707 112.481C115.654 112.034 115.46 111.618 115.153 111.296C114.135 109.365 112.687 107.706 110.927 106.454C109.167 105.201 107.145 104.391 105.023 104.088C102.901 103.785 100.739 103.998 98.7123 104.709C96.6854 105.42 94.8502 106.61 93.355 108.183C93.0245 108.546 92.5854 108.786 92.107 108.865C84.2437 108.908 75.589 108.95 64.9378 108.95C64.5975 108.94 64.2723 108.804 64.0228 108.566C62.538 106.991 60.717 105.79 58.7028 105.058C56.6885 104.326 54.536 104.083 52.4145 104.347C50.2863 104.688 48.2632 105.527 46.5026 106.799C44.742 108.071 43.2913 109.742 42.2629 111.682C41.972 112.194 41.5977 113.429 42.0963 114.027C42.3803 114.334 42.7221 114.58 43.1011 114.748C43.48 114.917 43.8884 115.005 44.3015 115.008C46.2156 115.05 48.1709 115.05 50.085 115.05H54.3287C55.369 115.05 55.7021 115.477 55.7021 116.628V119.4C55.7021 121.318 55.5355 121.489 53.6634 121.532H43.8402C43.4733 121.504 43.1053 121.571 42.7706 121.727C42.4358 121.884 42.1454 122.125 41.9262 122.428C41.7634 122.764 41.6892 123.137 41.711 123.511C41.7328 123.885 41.8499 124.247 42.0505 124.56C43.1001 126.61 44.6162 128.369 46.4703 129.691C48.3244 131.012 50.4619 131.856 52.7017 132.15C53.2259 132.22 53.7544 132.249 54.2828 132.236C56.1523 132.235 58.0014 131.836 59.713 131.066C61.4246 130.295 62.9616 129.169 64.2267 127.758C64.5041 127.506 64.8553 127.356 65.225 127.331C74.5449 127.246 83.6553 127.204 92.311 127.204C92.7248 127.232 93.1187 127.396 93.4336 127.673C95.9668 130.301 99.3995 131.814 103.003 131.891C105.613 131.914 108.175 131.171 110.386 129.751C112.598 128.33 114.367 126.291 115.485 123.875C115.653 123.533 115.73 123.152 115.708 122.77C115.686 122.388 115.566 122.019 115.36 121.7C115.182 121.421 114.932 121.198 114.639 121.054C114.345 120.911 114.018 120.854 113.695 120.888ZM57.1933 108.519C58.832 109.069 60.307 110.038 61.479 111.334C60.4445 110.374 59.2256 109.648 57.9006 109.201C56.3161 108.683 54.6289 108.588 52.9983 108.923C51.3677 109.259 49.8474 110.014 48.5806 111.119H47.2072C48.4699 109.775 50.0742 108.819 51.8388 108.36C53.6035 107.902 55.4582 107.958 57.1933 108.522V108.519ZM47.2072 125.192H54.5298C55.1673 125.206 55.801 125.088 56.3927 124.844C56.9843 124.6 57.5219 124.236 57.9728 123.774C58.4237 123.312 58.7787 122.761 59.0165 122.155C59.2542 121.548 59.3699 120.899 59.3563 120.246C59.3975 119.179 59.3975 118.113 59.3563 117.09V116.365C59.382 115.156 59.0161 113.971 58.3159 112.997C58.8882 113.492 59.343 114.114 59.6458 114.816C59.9486 115.518 60.0915 116.281 60.0636 117.048V120.928C60.0771 121.582 59.9615 122.231 59.7237 122.838C59.486 123.444 59.1309 123.995 58.68 124.457C58.2291 124.919 57.6917 125.283 57.1 125.527C56.5083 125.77 55.8746 125.889 55.237 125.875C54.3215 125.917 53.4062 125.917 52.4913 125.875H47.9146C47.6591 125.671 47.4226 125.443 47.2083 125.194L47.2072 125.192ZM66.7209 112.784H90.395C90.3066 113.02 90.2371 113.262 90.1873 113.509H67.4703C68.7399 116.607 68.9019 120.065 67.9278 123.274H67.0128C68.1669 119.858 68.0634 116.127 66.7218 112.784H66.7209ZM102.877 124.937C104.416 124.98 105.956 124.937 107.495 124.937H110.114C109.907 125.193 109.657 125.406 109.407 125.662H103.582C102.838 125.679 102.099 125.522 101.422 125.205C100.745 124.887 100.146 124.416 99.6719 123.828C100.596 124.54 101.719 124.929 102.875 124.936L102.877 124.937ZM93.3905 117.475C93.4498 115.359 94.1508 113.314 95.396 111.626C96.6413 109.937 98.3689 108.688 100.339 108.051C101.227 107.764 102.153 107.62 103.085 107.625C104.416 107.61 105.735 107.879 106.959 108.415C108.183 108.951 109.285 109.742 110.195 110.738C108.408 109.18 106.134 108.332 103.787 108.35C102.856 108.342 101.929 108.486 101.042 108.776C99.0714 109.413 97.3436 110.662 96.0984 112.351C94.8531 114.04 94.1523 116.084 94.0932 118.2C94.0335 120.817 94.94 123.36 96.6314 125.322C95.577 124.326 94.7421 123.111 94.1824 121.758C93.6227 120.405 93.3513 118.945 93.386 117.476L93.3905 117.475Z" fill="#F4F4F4"/>
<path d="M139.907 40.424C132.251 40.3387 125.967 40.2955 120.06 40.2955H120.019C118.314 40.2955 117.648 40.9781 117.648 42.7261C117.648 44.6025 117.606 46.479 117.606 48.3544C117.606 49.6335 117.606 50.9126 117.565 52.1897L117.524 55.5158C117.482 59.7346 117.482 63.9592 117.441 68.1799C117.441 70.3545 117.399 72.5721 117.358 74.7467C117.316 77.6884 117.274 80.7164 117.274 83.7012C117.233 89.5433 117.233 95.5129 117.191 101.27V105.619C117.191 107.58 117.732 108.135 119.687 108.177L122.642 108.22L138.618 108.347H138.701C139.089 108.408 139.485 108.386 139.864 108.283C140.243 108.181 140.598 107.999 140.906 107.75C141.149 107.418 141.325 107.039 141.425 106.637C141.525 106.235 141.547 105.816 141.489 105.405C141.489 99.3501 141.614 85.4913 141.697 73.2961C141.78 64.8959 141.822 57.6472 141.822 54.9606C141.822 52.9566 141.822 50.9527 141.863 48.9478C141.863 46.9439 141.904 44.9821 141.904 42.9782C141.946 41.2331 141.28 40.4662 139.907 40.424ZM121.393 44.3897C121.476 44.3044 121.6 44.2189 121.642 44.1767C124.721 44.1767 127.841 44.2191 130.879 44.2191C133.209 44.2191 135.581 44.2612 137.911 44.2612C138.009 44.2547 138.108 44.269 138.202 44.3033C138.244 44.4422 138.244 44.5912 138.202 44.7301V45.242C136.121 45.242 134.085 45.2421 132.003 45.1999C128.965 45.1999 125.845 45.1577 122.766 45.1577C122.664 45.2014 122.577 45.2755 122.516 45.3705C122.475 46.3936 122.475 47.4177 122.475 48.4839H121.352V47.801C121.35 46.5632 121.35 45.4981 121.393 44.3888V44.3897ZM133.001 85.2352H132.918C130.422 85.193 127.883 85.15 125.429 85.15L123.223 85.1067H122.266V88.3907H121.102V84.172H122.059L124.264 84.2141C126.719 84.2563 129.257 84.2564 131.753 84.2996H131.836C132.298 84.343 132.761 84.2228 133.147 83.959C133.533 83.6952 133.819 83.3035 133.958 82.8496C134.1 82.4147 134.07 81.9401 133.875 81.5275C134.287 81.6505 134.652 81.9044 134.915 82.2525C135.071 82.4702 135.172 82.7245 135.209 82.9924C135.245 83.2603 135.215 83.5332 135.123 83.7864C134.991 84.2452 134.707 84.6422 134.319 84.9077C133.931 85.1733 133.465 85.2907 133.001 85.2392V85.2352ZM126.302 60.3329C127.136 60.4294 127.973 60.1845 128.632 59.6512C128.934 59.2981 129.097 58.842 129.089 58.3722C129.103 58.1057 129.046 57.8403 128.923 57.6051C129.303 57.6884 129.643 57.9038 129.885 58.2146C130.128 58.5255 130.258 58.9128 130.254 59.3108C130.268 59.5448 130.234 59.7792 130.156 59.9993C130.077 60.2194 129.955 60.4204 129.797 60.5899C129.138 61.1235 128.301 61.3688 127.467 61.2725H122.474V64.4701H121.351V60.3347L126.302 60.3329ZM133.001 53.2972C130.796 53.2972 128.591 53.2548 126.386 53.2548L123.307 53.2127H122.516V56.4536H121.351V52.2808H122.142L125.221 52.3229C127.426 52.3229 129.631 52.365 131.836 52.365C132.511 52.4108 133.177 52.1978 133.707 51.7676C133.869 51.592 133.993 51.3839 134.072 51.1564C134.15 50.929 134.182 50.6872 134.165 50.4465C134.16 50.1495 134.089 49.8576 133.957 49.5932C134.347 49.6949 134.692 49.9254 134.941 50.2494C135.189 50.5733 135.326 50.9723 135.33 51.3842C135.348 51.6251 135.316 51.867 135.237 52.0947C135.159 52.3223 135.034 52.5305 134.873 52.7063C134.346 53.1422 133.676 53.355 133.001 53.3009V53.2972ZM121.226 68.2642H122.017L125.262 68.3063C127.426 68.3063 129.589 68.3496 131.711 68.3496H131.752C133.541 68.3496 133.957 67.3686 133.997 66.5584C134.01 66.237 133.953 65.9167 133.831 65.6206C134.157 65.7197 134.456 65.8952 134.704 66.1328C134.875 66.3113 135.004 66.5263 135.083 66.7623C135.162 66.9982 135.189 67.2491 135.162 67.4971C135.121 68.3073 134.704 69.2883 132.917 69.2883H132.875C130.712 69.2883 128.549 69.2459 126.427 69.2459L123.181 69.2038H122.391V72.3593H121.226V68.2651V68.2642ZM121.143 76.4516C121.276 76.3342 121.432 76.2469 121.6 76.1955C122.557 76.1533 123.556 76.1534 124.471 76.1534H126.926C127.288 76.1669 127.648 76.0835 127.969 75.9115C128.29 75.7396 128.561 75.4849 128.757 75.1725C128.88 74.9365 128.944 74.673 128.944 74.4054C128.944 74.1379 128.88 73.8744 128.757 73.6383C128.757 73.6271 128.753 73.6165 128.745 73.6086C128.737 73.6007 128.727 73.5962 128.716 73.5962C129.195 73.7905 129.602 74.1334 129.881 74.577C130.023 74.8062 130.099 75.0723 130.099 75.3441C130.099 75.6159 130.023 75.8821 129.881 76.1112C129.685 76.4235 129.413 76.6782 129.092 76.8502C128.771 77.0222 128.412 77.1055 128.05 77.092H125.595C124.638 77.092 123.681 77.092 122.724 77.1351C122.549 77.1687 122.389 77.2584 122.266 77.3912C122.225 78.3721 122.225 79.3089 122.225 80.3339H121.892C121.628 80.3397 121.364 80.3251 121.102 80.2906V79.5659C121.102 78.4997 121.06 77.4765 121.143 76.4525V76.4516ZM121.06 92.229H125.844C126.219 92.2362 126.593 92.222 126.967 92.1866C127.213 92.189 127.457 92.1389 127.683 92.0394C127.91 91.9399 128.114 91.7934 128.282 91.6089C128.45 91.4245 128.579 91.2062 128.66 90.968C128.742 90.7297 128.774 90.4767 128.755 90.225C128.75 89.9418 128.679 89.6639 128.548 89.4148C128.929 89.5106 129.267 89.7352 129.509 90.0522C129.75 90.3693 129.881 90.7605 129.879 91.1627C129.894 91.4136 129.859 91.6649 129.776 91.9015C129.694 92.1381 129.564 92.355 129.397 92.5387C129.23 92.7224 129.027 92.8689 128.803 92.9697C128.578 93.0704 128.335 93.1231 128.09 93.1244C127.717 93.1597 127.342 93.1737 126.967 93.1665H122.182V96.1947H121.06V92.229ZM121.06 100.075H124.97C127.175 100.075 129.38 100.117 131.585 100.117C133.583 100.117 133.831 98.838 133.874 98.326C133.883 98.0325 133.826 97.7409 133.707 97.4737C134.033 97.5729 134.332 97.7481 134.581 97.9857C134.884 98.3388 135.047 98.7948 135.038 99.2647C135.038 99.8189 134.789 101.056 132.75 101.056C130.545 101.056 128.34 101.056 126.135 101.013H122.224V104.381H121.06V100.074V100.075Z" fill="#F4F4F4"/>
<path d="M100.34 107.796C101.228 107.508 102.154 107.365 103.086 107.369C104.442 107.349 105.787 107.628 107.029 108.187C108.271 108.746 109.381 109.572 110.284 110.61H104.38C103.699 110.595 103.018 110.623 102.341 110.695C101.12 110.763 99.9745 111.32 99.1498 112.245C98.3251 113.17 97.8876 114.39 97.931 115.642C97.8899 116.75 97.931 117.859 97.931 118.925V119.522C97.9005 120.204 98.0085 120.886 98.2481 121.523C98.4876 122.16 98.8537 122.74 99.3229 123.224C99.7922 123.709 100.354 124.089 100.974 124.34C101.594 124.591 102.258 124.707 102.924 124.681C104.464 124.724 106.003 124.681 107.543 124.681H110.162C108.919 125.986 107.346 126.911 105.621 127.355C103.895 127.799 102.082 127.745 100.385 127.197C98.3726 126.549 96.6141 125.261 95.3642 123.52C94.1143 121.778 93.4379 119.674 93.4333 117.512C93.4286 115.35 94.0957 113.243 95.338 111.496C96.5804 109.749 98.3334 108.453 100.343 107.796H100.34Z" fill="#37BEB7"/>
<path d="M90.5626 123.023H66.9307C68.1552 119.638 68.0809 115.903 66.723 112.572H90.3914C89.1135 115.945 89.175 119.696 90.5626 123.023Z" fill="#37BEB7"/>
<path d="M57.3189 127.582C55.5679 128.156 53.6944 128.212 51.9135 127.745C50.1327 127.277 48.5166 126.304 47.2505 124.938H54.573C55.2105 124.952 55.8443 124.834 56.436 124.59C57.0276 124.346 57.565 123.983 58.016 123.52C58.4669 123.058 58.8219 122.507 59.0596 121.901C59.2974 121.295 59.413 120.645 59.3995 119.992C59.4407 118.926 59.4407 117.859 59.3995 116.836V116.112C59.4346 115.432 59.3312 114.752 59.096 114.115C58.8607 113.479 58.4987 112.9 58.033 112.414C57.5672 111.929 57.0081 111.548 56.391 111.296C55.7739 111.045 55.1124 110.927 54.4486 110.952C53.5336 110.91 52.5775 110.952 51.6607 110.952H47.2505C48.2915 109.846 49.565 108.998 50.9741 108.473C52.3832 107.948 53.8907 107.76 55.3816 107.923C56.8726 108.085 58.3075 108.595 59.5772 109.412C60.8469 110.229 61.9179 111.333 62.7084 112.638C63.4989 113.944 63.9881 115.417 64.1388 116.946C64.2895 118.475 64.0977 120.019 63.5778 121.46C63.058 122.902 62.2239 124.202 61.1393 125.263C60.0546 126.324 58.7479 127.117 57.3189 127.582Z" fill="#37BEB7"/>
<path d="M49.4967 57.6927V54.5805C49.4649 54.124 49.4929 53.665 49.58 53.216C49.9897 53.1253 50.4102 53.0964 50.828 53.1306H58.1094C62.6001 53.1306 67.2216 53.173 71.7562 53.173C79.8281 53.173 87.9411 53.1728 96.0121 53.1306H106.958C107.376 53.0938 107.797 53.1227 108.206 53.216C108.298 53.6644 108.326 54.124 108.289 54.5805V57.9066C108.289 60.3804 108.289 62.9383 108.331 65.4543C108.397 65.8387 108.311 66.234 108.093 66.5538C107.875 66.8735 107.542 67.0915 107.167 67.16C105.211 67.8849 103.256 68.6529 101.383 69.3778C100.635 69.676 99.8863 69.9753 99.1378 70.2303L96.0178 71.4239L86.0326 75.2592C85.8761 75.304 85.7231 75.361 85.5751 75.4298V72.8287C85.611 72.538 85.5801 72.2428 85.4848 71.9665C85.3895 71.6903 85.2325 71.4406 85.0264 71.2376C84.8202 71.0346 84.5707 70.884 84.2976 70.7975C84.0244 70.711 83.7353 70.6911 83.4534 70.7395H74.1756C72.761 70.7395 72.137 71.3789 72.0949 72.8717V75.4298L70.6382 74.8757C69.1414 74.3216 67.7259 73.7673 66.3113 73.2121C64.6058 72.5726 62.8994 71.89 61.1939 71.2505C57.7408 69.9283 54.2044 68.5216 50.7092 67.1994C49.6689 66.8158 49.3779 66.3893 49.4191 65.3663C49.4967 62.7679 49.4967 60.1664 49.4967 57.6927Z" fill="#F7F8FB"/>
<path d="M51.4942 71.5944C52.4513 71.9357 53.3653 72.277 54.2821 72.6173C55.9044 73.2569 57.5687 73.8543 59.1918 74.4938C63.1445 76.0279 67.2217 77.6071 71.2604 79.0962C72.0089 79.3953 72.1755 79.6503 72.1343 80.4183C72.0931 81.356 72.0931 82.2947 72.0931 83.2325V84.5548C72.0582 84.8377 72.0869 85.125 72.177 85.3947C72.2671 85.6645 72.4163 85.9094 72.613 86.111C72.8098 86.3127 73.0489 86.4655 73.3121 86.5579C73.5753 86.6503 73.8556 86.6798 74.1316 86.6441H83.4095C83.7025 86.6823 84 86.6513 84.2795 86.5535C84.559 86.4556 84.8129 86.2934 85.0218 86.0794C85.2307 85.8654 85.3891 85.6053 85.4847 85.3189C85.5803 85.0325 85.6106 84.7275 85.5734 84.4273V82.5939C85.5734 81.6983 85.5734 80.7607 85.6145 79.8651C85.64 79.6495 85.7439 79.4517 85.9055 79.3111C92.2298 76.8373 98.6785 74.4076 104.92 72.0239L107.165 71.1716V95.3914C107.179 95.7049 107.165 96.0191 107.124 96.3301C106.826 96.4116 106.516 96.4404 106.209 96.4153H51.6215C51.3159 96.428 51.0097 96.414 50.7065 96.3732C50.6243 96.0679 50.5961 95.75 50.6232 95.4345V71.3423C50.9254 71.382 51.2199 71.4682 51.497 71.5981L51.4942 71.5944Z" fill="#F7F8FB"/>
<path d="M81.4505 74.1527H75.6257V82.3401H81.4505V74.1527Z" fill="#FBC316"/>
<path d="M132.044 100.117C134.082 100.117 134.332 98.838 134.332 98.326C134.346 98.092 134.312 97.8576 134.234 97.6376C134.155 97.4175 134.033 97.2164 133.875 97.047C133.368 96.5944 132.716 96.3512 132.044 96.3644L123.972 96.2368L122.35 96.1946H121.559V92.229H126.344C126.718 92.2363 127.093 92.2223 127.466 92.1869C127.714 92.1859 127.96 92.1339 128.188 92.034C128.416 91.9341 128.622 91.7882 128.794 91.6051C128.966 91.4221 129.101 91.2055 129.19 90.9682C129.278 90.7309 129.32 90.4776 129.312 90.2236C129.303 89.9695 129.245 89.7197 129.141 89.489C129.037 89.2583 128.888 89.0517 128.705 88.8808C128.521 88.71 128.306 88.5786 128.072 88.4946C127.837 88.4106 127.589 88.3757 127.342 88.3918H121.559V84.1729H122.516L124.721 84.2153C127.176 84.2575 129.714 84.2573 132.21 84.3005H132.294C132.756 84.3439 133.218 84.2237 133.604 83.9599C133.991 83.6961 134.277 83.3047 134.415 82.8508C134.498 82.5959 134.522 82.3249 134.486 82.0589C134.45 81.7928 134.355 81.5388 134.208 81.3166C133.979 81.0271 133.686 80.7985 133.353 80.6501C133.019 80.5017 132.656 80.4379 132.294 80.4643C130.255 80.4221 128.258 80.4221 126.219 80.4221C124.929 80.4221 123.64 80.4222 122.35 80.38C122.086 80.3861 121.821 80.3718 121.559 80.3376V79.6129C121.559 78.5045 121.559 77.4805 121.6 76.4574C121.734 76.3401 121.889 76.2528 122.058 76.2013C123.015 76.1582 124.013 76.1583 124.929 76.1583H127.384C127.746 76.1717 128.105 76.0884 128.426 75.9164C128.747 75.7445 129.019 75.4898 129.215 75.1774C129.338 74.9414 129.402 74.6779 129.402 74.4103C129.402 74.1428 129.338 73.8793 129.215 73.6432C128.999 73.3141 128.716 73.0368 128.386 72.8307C128.055 72.6246 127.685 72.4947 127.301 72.4496C125.886 72.3643 124.472 72.3641 122.974 72.4063H121.726V68.3131H122.516L125.762 68.3554C127.926 68.3554 130.089 68.3985 132.21 68.3985H132.252C134.04 68.3985 134.457 67.4177 134.497 66.6075C134.524 66.3596 134.497 66.1085 134.418 65.8725C134.339 65.6365 134.209 65.4215 134.039 65.243C133.801 65.0145 133.519 64.8396 133.211 64.7295C132.903 64.6193 132.576 64.5763 132.251 64.6035C129.921 64.5604 127.55 64.5605 125.261 64.5183L122.682 64.4759H121.85V60.3396H126.843C127.677 60.4359 128.514 60.1906 129.173 59.657C129.475 59.3039 129.638 58.8478 129.63 58.378C129.589 57.1411 128.673 56.5015 126.925 56.5015H121.933V52.3229H122.724L125.803 52.3652C128.008 52.3652 130.213 52.4074 132.418 52.4074C133.092 52.4529 133.759 52.24 134.289 51.81C134.451 51.6342 134.575 51.426 134.654 51.1983C134.733 50.9707 134.764 50.7287 134.747 50.4879C134.705 49.2941 133.832 48.5701 132.417 48.526C130.088 48.4838 127.798 48.4839 125.469 48.4839H121.974V47.8013C121.974 46.6507 121.974 45.5414 122.016 44.433C122.099 44.3477 122.223 44.2622 122.266 44.22C125.344 44.22 128.464 44.2621 131.502 44.2621C133.832 44.2621 136.203 44.3054 138.534 44.3054C138.632 44.2988 138.732 44.3131 138.825 44.3475C138.867 44.4864 138.867 44.6354 138.825 44.7743V46.992C138.783 52.791 138.783 58.633 138.741 64.4319C138.7 68.2269 138.7 71.9798 138.658 75.7748C138.575 84.8577 138.492 94.2388 138.45 103.491C138.45 103.96 138.409 104.216 138.284 104.302C138.03 104.443 137.736 104.489 137.452 104.43C134.914 104.388 132.293 104.388 129.713 104.388H121.642V100.081H125.552C127.634 100.117 129.839 100.117 132.044 100.117Z" fill="#37BEB7"/>
<path d="M45.4197 68.2681C45.6419 68.4923 45.8073 68.7688 45.9015 69.0734C45.9958 69.378 46.016 69.7016 45.9605 70.016V94.5773C45.9605 97.775 47.4162 99.2679 50.5784 99.311H104.999C105.655 99.3357 106.312 99.2782 106.954 99.1401C107.729 98.9897 108.437 98.5906 108.975 98.0004C109.513 97.4101 109.854 96.6595 109.948 95.8573C110.036 95.1933 110.078 94.5235 110.073 93.8533V69.505C110.102 69.1797 110.187 68.8621 110.322 68.5663C110.364 68.481 110.364 68.3957 110.406 68.3536C110.489 68.1829 110.572 67.97 110.655 67.7562C110.912 67.3451 111.068 66.8775 111.113 66.3919C111.154 62.3409 111.154 57.9917 111.154 52.7892C111.113 49.8465 109.573 48.2692 106.663 48.2692H90.4784V44.7303C90.3952 40.0829 87.5661 36.842 83.2804 36.5429C79.7759 36.287 76.2581 36.287 72.7536 36.5429C68.4267 36.8842 65.5976 40.0819 65.5976 44.7724V48.2692H49.3715C46.4591 48.2692 44.9193 49.8475 44.8809 52.7892C44.8397 56.6695 44.8397 60.848 44.8809 66.2634C44.8222 66.6176 44.84 66.9807 44.9331 67.3271C45.0262 67.6735 45.1923 67.9947 45.4197 68.2681ZM48.5397 56.7124V53.5993C48.5078 53.1428 48.536 52.6838 48.6231 52.2348C49.0328 52.1438 49.4533 52.1152 49.8711 52.1496H57.1524C61.643 52.1496 66.2647 52.1918 70.7993 52.1918C78.8712 52.1918 86.9842 52.1918 95.0561 52.1496H106.002C106.42 52.1128 106.841 52.1414 107.25 52.2348C107.342 52.6832 107.37 53.1428 107.333 53.5993V56.9255C107.333 59.3983 107.333 61.9572 107.375 64.4731C107.441 64.8575 107.355 65.253 107.137 65.5726C106.918 65.8923 106.585 66.1102 106.211 66.1789C104.255 66.9038 102.3 67.6718 100.427 68.3966C99.6786 68.6948 98.9302 68.9941 98.1817 69.2501L95.0617 70.4437L85.0767 74.279C84.9201 74.3238 84.7672 74.3809 84.6192 74.4496V71.8485C84.655 71.5578 84.6241 71.2626 84.5288 70.9863C84.4335 70.7101 84.2766 70.4606 84.0704 70.2576C83.8643 70.0546 83.6146 69.9038 83.3415 69.8173C83.0683 69.7308 82.7792 69.7109 82.4973 69.7593H73.2195C71.8049 69.7593 71.1809 70.3987 71.1388 71.8915V74.4496L69.6822 73.8956C68.1853 73.3414 66.7698 72.787 65.3552 72.2328C63.6497 71.5933 61.9433 70.9117 60.2378 70.2712C56.7847 68.949 53.2483 67.5423 49.7531 66.2201C48.7128 65.8366 48.4219 65.41 48.4631 64.387C48.5875 61.8288 48.5875 59.2276 48.5464 56.7164L48.5397 56.7124ZM75.1682 81.8709V73.6837H80.993V81.8709H75.1682ZM50.5793 70.6528C51.5363 70.9941 52.4503 71.3356 53.3672 71.6759C54.9894 72.3155 56.6538 72.9129 58.277 73.5524C62.2297 75.0865 66.3068 76.6655 70.3456 78.1545C71.094 78.4537 71.2605 78.7089 71.2193 79.4769C71.1782 80.4146 71.1781 81.3531 71.1781 82.2908V83.6132C71.1432 83.8961 71.172 84.1833 71.2621 84.4531C71.3523 84.7228 71.5013 84.968 71.6981 85.1696C71.8948 85.3712 72.1339 85.5239 72.3971 85.6163C72.6603 85.7086 72.9407 85.7381 73.2167 85.7024H82.4945C82.7876 85.7407 83.0853 85.7097 83.3649 85.6118C83.6444 85.5139 83.8984 85.3517 84.1073 85.1376C84.3162 84.9235 84.4745 84.6633 84.5701 84.3768C84.6656 84.0903 84.6958 83.785 84.6584 83.4847V81.6553C84.6584 80.7598 84.6585 79.8221 84.7006 78.9265C84.726 78.7109 84.8299 78.5128 84.9915 78.3722C91.3158 75.8985 97.7646 73.4687 104.006 71.0851L106.251 70.2328V94.4526C106.265 94.7661 106.251 95.0803 106.21 95.3912C105.912 95.4727 105.602 95.5017 105.295 95.4767H50.7074C50.4015 95.4892 50.095 95.4746 49.7915 95.4334C49.7095 95.1284 49.6813 94.8108 49.7082 94.4956V70.4035C50.0104 70.4432 50.3051 70.5296 50.5821 70.6595L50.5793 70.6528ZM69.3837 43.5757C69.5351 42.6657 70.001 41.8419 70.6962 41.2548C71.3913 40.6677 72.2694 40.3565 73.1699 40.3781C76.4153 40.335 79.6186 40.335 82.7396 40.3781C83.7175 40.3744 84.6604 40.7505 85.3784 41.4308C86.0964 42.1112 86.5361 43.0452 86.609 44.0446C86.6923 45.0677 86.6502 46.1338 86.6502 47.2432V48.3094H69.3426C69.3496 47.9111 69.3358 47.5127 69.3014 47.1158C69.2657 45.9355 69.2934 44.7539 69.3847 43.5767L69.3837 43.5757Z" fill="#000078"/>
<path d="M112.988 119.906C110.949 120.034 109.159 120.119 107.454 120.162C105.498 120.205 104.001 120.205 102.589 120.162C101.341 120.12 100.967 119.693 100.967 118.414V115.346C100.967 114.025 101.217 113.768 102.464 113.726H112.491C112.914 113.843 113.364 113.815 113.77 113.645C114.176 113.475 114.517 113.173 114.739 112.785C114.961 112.397 115.053 111.945 115 111.499C114.947 111.053 114.752 110.636 114.446 110.314C113.427 108.383 111.98 106.724 110.22 105.472C108.46 104.22 106.437 103.409 104.315 103.106C102.194 102.803 100.032 103.016 98.005 103.727C95.9782 104.439 94.1431 105.629 92.6479 107.201C92.3175 107.565 91.8784 107.805 91.3999 107.884C83.5366 107.926 74.8819 107.969 64.2307 107.969C63.8904 107.959 63.5652 107.823 63.3157 107.586C61.831 106.01 60.0099 104.809 57.9957 104.077C55.9814 103.345 53.8289 103.102 51.7075 103.367C49.5792 103.707 47.5561 104.546 45.7956 105.818C44.035 107.09 42.5841 108.761 41.5558 110.701C41.2648 111.213 40.8897 112.449 41.3893 113.046C41.6733 113.354 42.0151 113.599 42.394 113.768C42.773 113.936 43.1813 114.024 43.5944 114.027C45.5085 114.069 47.4638 114.069 49.378 114.069H53.6215C54.6618 114.069 54.9949 114.496 54.9949 115.647V118.419C54.9949 120.337 54.8284 120.508 52.9564 120.552H43.1331C42.7663 120.523 42.3983 120.59 42.0635 120.747C41.7288 120.903 41.4382 121.144 41.219 121.447C41.0561 121.783 40.9819 122.156 41.0037 122.53C41.0256 122.904 41.1428 123.266 41.3435 123.579C42.393 125.629 43.909 127.389 45.7631 128.71C47.6172 130.031 49.7548 130.875 51.9947 131.169C52.5188 131.239 53.0473 131.268 53.5757 131.255C55.4452 131.254 57.2942 130.856 59.0058 130.085C60.7174 129.315 62.2544 128.189 63.5197 126.778C63.797 126.527 64.1482 126.376 64.5179 126.352C73.8378 126.266 82.9482 126.224 91.6039 126.224C92.0178 126.251 92.4117 126.416 92.7265 126.693C95.2598 129.321 98.6924 130.834 102.296 130.912C104.906 130.934 107.468 130.191 109.679 128.771C111.891 127.35 113.66 125.312 114.778 122.895C114.946 122.553 115.023 122.172 115.001 121.791C114.979 121.409 114.86 121.039 114.654 120.72C114.472 120.444 114.222 120.223 113.929 120.08C113.636 119.937 113.311 119.877 112.988 119.906ZM99.6317 107.114C100.52 106.826 101.446 106.682 102.378 106.687C103.734 106.667 105.079 106.946 106.321 107.505C107.563 108.064 108.673 108.89 109.576 109.928H103.668C102.987 109.913 102.306 109.942 101.629 110.013C100.408 110.081 99.2625 110.638 98.4378 111.563C97.6132 112.488 97.1755 113.708 97.219 114.96C97.1778 116.068 97.219 117.177 97.219 118.244V118.841C97.1885 119.523 97.2964 120.205 97.536 120.842C97.7756 121.479 98.1416 122.059 98.6109 122.544C99.0801 123.029 99.6425 123.408 100.262 123.659C100.882 123.91 101.546 124.026 102.212 124.001C103.751 124.044 105.291 124.001 106.83 124.001H109.449C108.205 125.304 106.633 126.229 104.907 126.673C103.182 127.117 101.369 127.063 99.6719 126.516C97.6089 125.86 95.8125 124.529 94.5576 122.727C93.3027 120.925 92.6585 118.752 92.7236 116.539C92.7539 114.421 93.4389 112.368 94.6799 110.675C95.9209 108.982 97.654 107.736 99.6299 107.116L99.6317 107.114ZM89.8955 122.336H66.2636C67.4882 118.951 67.4139 115.216 66.0559 111.885H89.7299C88.4512 115.257 88.511 119.008 89.8964 122.336H89.8955ZM56.6106 126.899C54.8596 127.473 52.9862 127.53 51.2053 127.062C49.4244 126.594 47.8083 125.622 46.5423 124.256H53.8648C54.5023 124.269 55.1361 124.151 55.7278 123.907C56.3196 123.664 56.8571 123.3 57.3081 122.838C57.759 122.376 58.1139 121.825 58.3517 121.218C58.5894 120.612 58.7049 119.962 58.6913 119.309C58.7325 118.243 58.7325 117.177 58.6913 116.154V115.429C58.7264 114.749 58.623 114.069 58.3877 113.433C58.1525 112.796 57.7905 112.217 57.3247 111.731C56.859 111.246 56.2998 110.865 55.6827 110.614C55.0656 110.362 54.4041 110.245 53.7404 110.269C52.8254 110.227 51.8693 110.269 50.9525 110.269H46.546C47.8075 108.91 49.4166 107.941 51.1896 107.473C52.9626 107.006 54.8281 107.059 56.5732 107.626C58.5422 108.285 60.2636 109.553 61.5004 111.256C62.7372 112.958 63.4287 115.012 63.4795 117.134C63.4632 119.291 62.7936 121.389 61.5632 123.138C60.3329 124.887 58.6025 126.202 56.6115 126.899H56.6106Z" fill="#000078"/>
<path d="M139.2 39.4846C131.544 39.3993 125.26 39.3563 119.353 39.3563H119.312C117.606 39.3563 116.94 40.0389 116.94 41.7868C116.94 43.6632 116.898 45.5395 116.898 47.415C116.898 48.694 116.898 49.9731 116.857 51.2503L116.816 54.5764C116.775 58.7952 116.775 63.0197 116.733 67.2405C116.733 69.4151 116.692 71.6329 116.649 73.8075C116.608 76.7492 116.566 79.777 116.566 82.7618C116.524 88.6039 116.524 94.5735 116.483 100.33V104.68C116.483 106.641 117.024 107.195 118.979 107.238L121.932 107.281L137.91 107.408H137.993C138.381 107.469 138.777 107.447 139.156 107.344C139.535 107.241 139.89 107.06 140.198 106.811C140.441 106.478 140.617 106.1 140.717 105.698C140.817 105.295 140.839 104.877 140.781 104.466C140.781 98.4107 140.905 84.5521 140.989 72.3569C141.072 63.9567 141.113 56.708 141.113 54.0214C141.113 52.0174 141.113 50.0135 141.154 48.0086C141.154 46.0047 141.195 44.0429 141.195 42.039C141.28 40.2949 140.573 39.5277 139.2 39.4846ZM130.878 99.1827C132.917 99.1827 133.166 97.9035 133.166 97.3915C133.18 97.1575 133.147 96.9231 133.068 96.703C132.989 96.483 132.867 96.2819 132.709 96.1124C132.202 95.6599 131.55 95.4167 130.878 95.4299L122.806 95.3023L121.184 95.2592H120.393V91.2935H125.179C125.553 91.3004 125.928 91.2859 126.301 91.2502C126.549 91.2493 126.795 91.1973 127.023 91.0974C127.251 90.9975 127.457 90.8518 127.629 90.6688C127.801 90.4857 127.936 90.2689 128.025 90.0316C128.114 89.7943 128.155 89.5413 128.147 89.2872C128.138 89.0331 128.08 88.7833 127.976 88.5526C127.872 88.322 127.724 88.1151 127.54 87.9442C127.356 87.7734 127.141 87.6422 126.907 87.5582C126.673 87.4742 126.425 87.4391 126.177 87.4552H120.393V83.2365H121.35L123.556 83.2787C126.01 83.3208 128.549 83.321 131.045 83.3641H131.128C131.59 83.4075 132.053 83.2873 132.439 83.0235C132.825 82.7597 133.111 82.3683 133.25 81.9144C133.332 81.6595 133.357 81.3885 133.321 81.1225C133.285 80.8564 133.189 80.6024 133.042 80.3802C132.814 80.0905 132.52 79.8616 132.187 79.7131C131.854 79.5645 131.49 79.5007 131.128 79.527C129.089 79.4848 127.092 79.4846 125.053 79.4846C123.763 79.4846 122.474 79.4846 121.184 79.4425C120.92 79.4482 120.656 79.4339 120.393 79.3994V78.6744C120.393 77.566 120.393 76.542 120.436 75.5189C120.569 75.4015 120.725 75.3145 120.893 75.2631C121.85 75.2199 122.848 75.2198 123.764 75.2198H126.219C126.581 75.2333 126.94 75.1502 127.261 74.9782C127.582 74.8062 127.854 74.5513 128.05 74.2389C128.173 74.0029 128.237 73.7394 128.237 73.4718C128.237 73.2043 128.173 72.9408 128.05 72.7047C127.834 72.3756 127.551 72.0986 127.221 71.8925C126.89 71.6864 126.52 71.5562 126.136 71.5111C124.721 71.4258 123.307 71.4259 121.809 71.469H120.561V67.3758H121.351L124.597 67.4188C126.761 67.4188 128.924 67.461 131.046 67.461H131.088C132.876 67.461 133.293 66.4802 133.333 65.67C133.36 65.422 133.333 65.1709 133.254 64.9349C133.175 64.699 133.046 64.4842 132.876 64.3057C132.637 64.0772 132.355 63.902 132.047 63.7919C131.739 63.6818 131.412 63.6388 131.087 63.666C128.757 63.6238 126.385 63.6239 124.097 63.5808L121.518 63.5377H120.685V59.3965H125.678C126.512 59.4928 127.35 59.2475 128.008 58.7139C128.31 58.3607 128.474 57.9047 128.465 57.4348C128.424 56.1979 127.508 55.5584 125.761 55.5584H120.768V51.3797H121.558L124.637 51.4221C126.842 51.4221 129.047 51.4642 131.252 51.4642C131.927 51.5099 132.594 51.2969 133.123 50.8668C133.285 50.691 133.409 50.4828 133.488 50.2552C133.567 50.0275 133.598 49.7856 133.581 49.5447C133.54 48.351 132.666 47.6269 131.251 47.5828C128.922 47.5397 126.633 47.5398 124.303 47.5398H120.808V46.8572C120.808 45.7066 120.808 44.597 120.849 43.4887C120.932 43.4033 121.057 43.3181 121.099 43.2759C124.178 43.2759 127.298 43.3189 130.335 43.3189C132.665 43.3189 135.037 43.3611 137.367 43.3611C137.466 43.3544 137.565 43.369 137.658 43.4034C137.701 43.5423 137.701 43.6911 137.658 43.8299V46.0477C137.617 51.8466 137.617 57.6889 137.575 63.4878C137.534 67.2828 137.534 71.0355 137.492 74.8305C137.408 83.9134 137.325 93.2944 137.284 102.547C137.284 103.016 137.243 103.272 137.117 103.357C136.863 103.499 136.569 103.544 136.286 103.486C133.747 103.443 131.126 103.443 128.547 103.443H120.475V99.1357H124.385C126.469 99.1405 128.674 99.1874 130.879 99.1874L130.878 99.1827Z" fill="#000078"/>
</svg>
