<svg width="169" height="197" viewBox="0 0 169 197" fill="none" xmlns="http://www.w3.org/2000/svg">
<path fill-rule="evenodd" clip-rule="evenodd" d="M31.2639 50.6593C7.17205 75.9119 -9.9815 112.023 15.9319 133.418C44.8724 157.304 104.566 151.759 135.426 106.692C155.152 77.9031 165.59 32.3895 143.74 6.86006C125.032 -14.9993 60.8205 19.6739 31.2639 50.6593Z" fill="#11A8F0"/>
<g clip-path="url(#clip0)">
<path d="M127.98 187.788L88.5165 148.324C87.4113 147.22 85.9473 146.7 84.5 146.753C83.0531 146.7 81.5891 147.22 80.4839 148.324L41.0199 187.788C38.9125 189.896 38.9125 193.312 41.0199 195.42C42.0741 196.473 43.4545 197 44.8356 197C46.217 197 47.5978 196.473 48.6516 195.42L84.5 159.571L120.349 195.42C121.403 196.473 122.784 197 124.165 197C125.546 197 126.927 196.473 127.98 195.42C130.088 193.312 130.088 189.896 127.98 187.788Z" fill="#4E3699"/>
<path d="M147.81 47.9259H21.194V148.861H147.81V47.9259Z" fill="white"/>
<path d="M147.807 151.676H21.1932C19.6385 151.676 18.3779 150.415 18.3779 148.861V47.9255C18.3779 46.3704 19.6389 45.1102 21.1932 45.1102H147.807C149.362 45.1102 150.623 46.3708 150.623 47.9255V148.861C150.623 150.415 149.362 151.676 147.807 151.676ZM24.0086 146.045H144.992V50.7406H24.0086V146.045Z" fill="#4E3699"/>
<path d="M96.3751 68.1516H72.6264V83.4649H96.3751V68.1516Z" fill="#FFB829"/>
<path d="M96.3747 86.2799H72.626C71.0709 86.2799 69.8106 85.0193 69.8106 83.4645V68.1505C69.8106 66.5953 71.0713 65.3351 72.626 65.3351H96.3747C97.9298 65.3351 99.1901 66.5957 99.1901 68.1505V83.4645C99.1901 85.0197 97.9295 86.2799 96.3747 86.2799ZM75.4414 80.6492H93.5597V70.9658H75.4414V80.6492Z" fill="#4E3699"/>
<path d="M123.197 94.9343H87.3158V83.4645C87.3158 81.9098 86.0551 80.6492 84.5004 80.6492C82.9456 80.6492 81.6854 81.9102 81.6854 83.4645V94.9343H45.8043C44.2491 94.9343 42.9889 96.1949 42.9889 97.7497V117.649C42.9889 119.204 44.2495 120.465 45.8043 120.465C47.359 120.465 48.6193 119.204 48.6193 117.649V100.565H81.6854V114.692C81.6854 116.247 82.946 117.507 84.5004 117.507C86.0555 117.507 87.3158 116.247 87.3158 114.692V100.565H120.382V117.649C120.382 119.204 121.642 120.465 123.197 120.465C124.752 120.465 126.012 119.204 126.012 117.649V97.7497C126.012 96.1945 124.752 94.9343 123.197 94.9343Z" fill="#4E3699"/>
<path d="M57.6794 113.329H33.9303V128.643H57.6794V113.329Z" fill="#FF6A48"/>
<path d="M57.6779 131.46H33.9288C32.374 131.46 31.1138 130.199 31.1138 128.644V113.33C31.1138 111.775 32.3744 110.515 33.9288 110.515H57.6779C59.2326 110.515 60.4929 111.776 60.4929 113.33V128.644C60.4929 130.2 59.2326 131.46 57.6779 131.46ZM36.7442 125.829H54.8625V116.146H36.7442V125.829Z" fill="#4E3699"/>
<path d="M96.3751 113.329H72.6264V128.643H96.3751V113.329Z" fill="#80C9FF"/>
<path d="M96.3747 131.46H72.626C71.0709 131.46 69.8107 130.199 69.8107 128.644V113.33C69.8107 111.775 71.0713 110.515 72.626 110.515H96.3747C97.9299 110.515 99.1901 111.776 99.1901 113.33V128.644C99.1901 130.2 97.9295 131.46 96.3747 131.46ZM75.4414 125.829H93.5597V116.146H75.4414V125.829Z" fill="#4E3699"/>
<path d="M135.071 113.329H111.323V128.643H135.071V113.329Z" fill="#FF6A48"/>
<path d="M135.072 131.46H111.323C109.768 131.46 108.508 130.199 108.508 128.644V113.33C108.508 111.775 109.768 110.515 111.323 110.515H135.072C136.626 110.515 137.887 111.776 137.887 113.33V128.644C137.887 130.2 136.626 131.46 135.072 131.46ZM114.138 125.829H132.256V116.146H114.138V125.829Z" fill="#4E3699"/>
<path d="M152.428 145.451H16.5717V154.957H152.428V145.451Z" fill="#80C9FF"/>
<path d="M152.428 157.771H16.5717C15.017 157.771 13.7567 156.51 13.7567 154.955V145.45C13.7567 143.895 15.0173 142.634 16.5717 142.634H152.428C153.983 142.634 155.243 143.895 155.243 145.45V154.955C155.243 156.51 153.983 157.771 152.428 157.771ZM19.3871 152.14H149.613V148.265H19.3871V152.14Z" fill="#4E3699"/>
<path d="M152.428 41.7645H16.5717V51.2705H152.428V41.7645Z" fill="#80C9FF"/>
<path d="M152.428 54.0859H16.5717C15.017 54.0859 13.7567 52.8249 13.7567 51.2705V41.7649C13.7567 40.2098 15.0173 38.9495 16.5717 38.9495H152.428C153.983 38.9495 155.243 40.2101 155.243 41.7649V51.2705C155.243 52.8249 153.983 54.0859 152.428 54.0859ZM19.3871 48.4547H149.613V44.5799H19.3871V48.4547Z" fill="#4E3699"/>
<path d="M41.7216 57.4055H30.7732C29.218 57.4055 27.9578 58.6661 27.9578 60.2205C27.9578 61.7756 29.2184 63.0358 30.7732 63.0358H41.7216C43.2763 63.0358 44.537 61.7752 44.537 60.2205C44.537 58.6657 43.2763 57.4055 41.7216 57.4055Z" fill="#4E3699"/>
<path d="M138.539 57.4055H127.591C126.036 57.4055 124.776 58.6661 124.776 60.2205C124.776 61.7756 126.036 63.0358 127.591 63.0358H138.539C140.094 63.0358 141.355 61.7752 141.355 60.2205C141.355 58.6657 140.094 57.4055 138.539 57.4055Z" fill="#4E3699"/>
<path d="M60.4085 28H47.7993C46.2446 28 44.9839 29.2606 44.9839 30.8154C44.9839 32.3701 46.2449 33.6308 47.7993 33.6308H60.4085C61.9632 33.6308 63.2238 32.3701 63.2238 30.8154C63.2238 29.2606 61.9632 28 60.4085 28Z" fill="#4E3699"/>
<path d="M74.6765 28H70.0371C68.482 28 67.2217 29.2606 67.2217 30.8154C67.2217 32.3701 68.4824 33.6308 70.0371 33.6308H74.6765C76.2312 33.6308 77.4915 32.3701 77.4915 30.8154C77.4915 29.2606 76.2312 28 74.6765 28Z" fill="#4E3699"/>
<path d="M121.201 28H84.847C83.2922 28 82.032 29.2606 82.032 30.8154C82.032 32.3701 83.2926 33.6308 84.847 33.6308H121.201C122.756 33.6308 124.016 32.3701 124.016 30.8154C124.016 29.2606 122.756 28 121.201 28Z" fill="#4E3699"/>
</g>
<defs>
<clipPath id="clip0">
<rect y="28" width="169" height="169" fill="white"/>
</clipPath>
</defs>
</svg>
