<svg width="1125" height="401" viewBox="0 0 1125 401" fill="none" xmlns="http://www.w3.org/2000/svg">
<path d="M308.963 360.13C398.634 375.646 426.373 272.958 548.561 259.068C690.836 242.895 751.2 370.987 848.342 341.961C957.346 309.392 1034.39 102.374 973.246 26.2833C898.433 -66.8247 682.408 117.857 290.793 111.448C248.831 110.761 184.63 107.549 163.615 143.243C130.459 199.556 210.466 343.086 308.963 360.13Z" fill="#EEF9FF"/>
<path fill-rule="evenodd" clip-rule="evenodd" d="M660.391 380.649C519.381 380.649 405.07 377.68 405.07 374.016C405.07 370.354 519.381 367.384 660.391 367.384C801.396 367.384 915.709 370.354 915.709 374.016C915.709 377.68 801.396 380.649 660.391 380.649Z" fill="#F7F7F7"/>
<path fill-rule="evenodd" clip-rule="evenodd" d="M324.213 378.603C294.173 378.603 269.822 376.453 269.822 373.803C269.822 371.153 294.173 369.005 324.213 369.005C354.251 369.005 378.603 371.153 378.603 373.803C378.603 376.453 354.251 378.603 324.213 378.603Z" fill="#F7F7F7"/>
<path fill-rule="evenodd" clip-rule="evenodd" d="M1049.51 308.975C1052.33 309.708 1062.99 309.278 1060.96 304.013C1058.69 298.159 1052.64 303.276 1050.04 306.521C1051.03 301.344 1051.16 296.071 1051.15 293.248C1053.07 290.945 1057.12 276.3 1049.14 277.026C1038.68 277.977 1047.95 291.837 1050.36 293.411C1050.35 296.789 1050.13 303.482 1048.6 309.288C1048.27 305.598 1044.59 295.103 1039.7 298.803C1032.61 304.173 1046.18 310.653 1048.24 310.541C1047.59 312.66 1046.76 314.612 1045.67 316.173C1044.88 317.298 1044.01 318.599 1043.11 320.016L1043.06 320.068C1042.61 316.183 1038.98 306.205 1034.19 309.827C1027.56 314.841 1038.96 320.822 1042.18 321.503C1040.18 324.749 1038.12 328.46 1036.54 332.035C1036.32 328.526 1029.43 321.353 1026.7 325.455C1025.17 327.742 1033.24 335.195 1035.91 333.525C1034.38 337.231 1033.47 340.695 1033.79 343.223C1033.9 344.155 1034.08 345.254 1034.27 346.445C1032.38 344.36 1025.57 337.37 1023.54 342.779C1021.87 347.265 1027.48 349.868 1029.85 349.868C1031.69 349.868 1033.65 348.117 1034.43 347.355C1034.53 348.001 1034.64 348.663 1034.77 349.34C1035.71 354.859 1036.85 361.504 1036.52 365.5C1034.91 362.379 1027.72 349.386 1023.54 357.742C1021.4 362.026 1027.48 365.616 1029.85 366.403C1031.78 367.05 1035.25 366.469 1036.44 366.24C1036.37 366.69 1036.29 367.106 1036.16 367.46C1034.63 372.078 1031.52 376.769 1031.49 376.816C1031.37 376.997 1031.42 377.242 1031.59 377.362C1031.66 377.407 1031.74 377.428 1031.82 377.428C1031.94 377.428 1032.07 377.367 1032.14 377.252C1032.17 377.213 1034.48 373.722 1036.14 369.763C1037.99 369.53 1045.12 368.558 1047.17 367.191C1049.54 365.616 1053.76 360.442 1050.32 358.529C1044.99 355.569 1039.41 363.436 1036.96 367.526C1037.87 364.473 1037.07 358.366 1036.12 352.631C1038.02 353.201 1044.22 352.093 1046.38 350.654C1048.75 349.079 1052.82 344.998 1050.32 342.779C1044.06 337.215 1037.44 349.003 1035.99 351.831C1035.84 350.938 1035.69 350.059 1035.54 349.206C1035.14 346.919 1034.78 344.76 1034.57 343.124C1034.28 340.777 1035.15 337.402 1036.71 333.615C1037.95 334.01 1042.16 335.17 1046.78 334.512C1052.29 333.723 1055.09 329.432 1053.08 327.424C1049.66 324.007 1039.56 331.086 1036.95 333.017C1038.54 329.291 1040.77 325.207 1043.22 321.312C1046.42 322.054 1059.22 321.781 1057.49 316.7C1055.76 311.623 1049.2 315.038 1045.36 318.015C1045.67 317.548 1045.99 317.081 1046.31 316.625C1047.77 314.543 1048.79 311.839 1049.51 308.975Z" fill="url(#paint0_linear)"/>
<path fill-rule="evenodd" clip-rule="evenodd" d="M1026.65 357.744C1020.04 355.1 1018.42 365.216 1018.07 368.534C1016.62 363.696 1015.99 357.809 1016.66 353.015C1017.66 352.991 1021.56 352.807 1024.28 351.444C1027.43 349.87 1029.38 343.563 1026.65 342.782C1022.06 341.471 1018.02 349.425 1016.79 352.134C1016.9 351.523 1017.03 350.93 1017.18 350.366C1018.19 346.681 1018.92 341.932 1019.23 337.264C1020.48 337.241 1023.94 337.121 1025.86 336.481C1028.22 335.695 1032.23 329.525 1029.01 328.608C1024.58 327.343 1020.66 333.692 1019.29 336.244C1019.56 331.376 1019.36 326.691 1018.53 323.5C1018.88 322.096 1019.56 319.119 1019.56 316.795C1019.56 313.645 1015.9 307.445 1012.47 310.496C1006.2 316.068 1015.6 322.582 1017.85 324.012C1018.61 327.156 1018.78 331.694 1018.51 336.404C1017.1 332.861 1011.42 320.11 1004.6 326.245C1001.98 328.601 1007.74 334.12 1011.68 335.695C1014.81 336.947 1017.49 337.212 1018.45 337.269C1018.14 341.854 1017.41 346.526 1016.43 350.159C1016.24 350.818 1016.1 351.515 1015.99 352.238C1014.49 349.226 1007.55 336.417 999.87 341.994C996.688 344.31 1003.03 349.87 1006.18 351.444C1008.87 352.797 1014.38 352.867 1015.89 352.859C1015.23 357.635 1015.82 363.48 1017.24 368.383C1014.93 364.882 1008.17 355.898 1003.03 361.681C999.97 365.113 1007.87 368.022 1010.11 368.769C1012.08 369.427 1016.31 369.623 1017.64 369.67C1018.76 373.052 1020.29 375.858 1022.07 377.339C1022.14 377.401 1022.22 377.43 1022.32 377.43C1022.43 377.43 1022.54 377.383 1022.62 377.289C1022.76 377.122 1022.74 376.873 1022.57 376.736C1020.87 375.321 1019.42 372.644 1018.34 369.407C1019.37 368.981 1022.36 367.693 1024.28 366.406C1026.65 364.83 1030.31 359.206 1026.65 357.744Z" fill="url(#paint1_linear)"/>
<path d="M1043.6 377.459H1007.76C1007.55 377.459 1007.37 377.283 1007.37 377.065C1007.37 376.848 1007.55 376.671 1007.76 376.671H1043.6C1043.82 376.671 1043.99 376.848 1043.99 377.065C1043.99 377.283 1043.82 377.459 1043.6 377.459Z" fill="#6F3996"/>
<path d="M1056.19 377.459H1047.92C1047.71 377.459 1047.53 377.283 1047.53 377.065C1047.53 376.848 1047.71 376.671 1047.92 376.671H1056.19C1056.41 376.671 1056.59 376.848 1056.59 377.065C1056.59 377.283 1056.41 377.459 1056.19 377.459Z" fill="#6F3996"/>
<path fill-rule="evenodd" clip-rule="evenodd" d="M118.517 304.905C115.7 305.638 105.03 305.208 107.067 299.943C109.335 294.09 115.383 299.207 117.979 302.451C116.993 297.275 116.86 292.001 116.874 289.179C114.956 286.875 110.903 272.23 118.886 272.956C129.347 273.907 120.078 287.767 117.669 289.341C117.67 292.719 117.896 299.412 119.425 305.218C119.75 301.528 123.43 291.033 128.32 294.733C135.416 300.103 121.841 306.583 119.781 306.471C120.428 308.59 121.266 310.542 122.358 312.103C123.145 313.228 124.015 314.53 124.917 315.946L124.963 315.998C125.42 312.114 129.045 302.135 133.833 305.758C140.457 310.772 129.065 316.752 125.846 317.433C127.843 320.679 129.899 324.39 131.486 327.965C131.71 324.457 138.593 317.283 141.329 321.385C142.854 323.673 134.784 331.125 132.124 329.456C133.642 333.161 134.554 336.625 134.238 339.153C134.122 340.085 133.951 341.184 133.754 342.376C135.64 340.29 142.449 333.3 144.479 338.71C146.16 343.195 140.541 345.798 138.179 345.798C136.33 345.798 134.37 344.047 133.602 343.285C133.494 343.931 133.379 344.594 133.262 345.271C132.312 350.789 131.171 357.434 131.506 361.43C133.115 358.309 140.3 345.316 144.479 353.672C146.621 357.956 140.541 361.546 138.179 362.334C136.24 362.98 132.774 362.399 131.59 362.17C131.657 362.621 131.74 363.036 131.859 363.391C133.399 368.009 136.506 372.699 136.538 372.747C136.658 372.928 136.609 373.172 136.429 373.292C136.361 373.337 136.286 373.358 136.211 373.358C136.083 373.358 135.958 373.297 135.882 373.182C135.855 373.143 133.545 369.653 131.89 365.693C130.035 365.46 122.904 364.488 120.854 363.121C118.492 361.546 114.262 356.372 117.705 354.459C123.031 351.499 128.616 359.366 131.062 363.456C130.152 360.404 130.958 354.296 131.906 348.561C129.998 349.132 123.801 348.023 121.642 346.584C119.279 345.009 115.208 340.929 117.705 338.71C123.965 333.145 130.579 344.933 132.038 347.761C132.188 346.868 132.34 345.989 132.486 345.136C132.881 342.849 133.252 340.69 133.457 339.054C133.75 336.707 132.876 333.332 131.316 329.545C130.073 329.941 125.868 331.101 121.248 330.442C115.736 329.654 112.94 325.362 114.948 323.354C118.366 319.937 128.463 327.016 131.071 328.947C129.483 325.222 127.256 321.137 124.813 317.242C121.6 317.985 108.802 317.712 110.534 312.63C112.264 307.553 118.816 310.968 122.666 313.946C122.349 313.478 122.032 313.011 121.713 312.555C120.256 310.474 119.235 307.77 118.517 304.905Z" fill="url(#paint2_linear)"/>
<path fill-rule="evenodd" clip-rule="evenodd" d="M141.331 353.674C147.942 351.03 149.558 361.147 149.907 364.464C151.362 359.626 151.981 353.739 151.322 348.945C150.317 348.921 146.418 348.737 143.693 347.374C140.544 345.8 138.601 339.493 141.331 338.712C145.918 337.401 149.956 345.355 151.184 348.064C151.077 347.454 150.95 346.86 150.795 346.297C149.789 342.611 149.061 337.862 148.747 333.195C147.504 333.171 144.035 333.051 142.119 332.412C139.756 331.625 135.756 325.455 138.968 324.538C143.396 323.273 147.313 329.623 148.685 332.174C148.419 327.307 148.62 322.621 149.448 319.43C149.093 318.026 148.418 315.049 148.418 312.725C148.418 309.576 152.074 303.375 155.506 306.426C161.776 311.998 152.379 318.512 150.127 319.942C149.366 323.086 149.198 327.624 149.47 332.334C150.879 328.791 156.566 316.041 163.381 322.175C165.998 324.531 160.231 330.05 156.293 331.625C153.162 332.877 150.492 333.142 149.525 333.199C149.842 337.784 150.564 342.456 151.555 346.089C151.735 346.748 151.878 347.446 151.997 348.168C153.489 345.156 160.437 332.347 168.106 337.924C171.29 340.24 164.956 345.8 161.805 347.374C159.101 348.727 153.597 348.798 152.092 348.789C152.746 353.565 152.155 359.411 150.736 364.314C153.05 360.812 159.815 351.828 164.956 357.611C168.005 361.044 160.11 363.952 157.868 364.7C155.894 365.357 151.673 365.553 150.336 365.6C149.217 368.982 147.692 371.788 145.915 373.269C145.842 373.331 145.752 373.36 145.664 373.36C145.55 373.36 145.438 373.313 145.361 373.219C145.22 373.052 145.243 372.804 145.41 372.666C147.107 371.252 148.56 368.574 149.631 365.337C148.605 364.911 145.625 363.623 143.693 362.336C141.331 360.761 137.675 355.136 141.331 353.674Z" fill="url(#paint3_linear)"/>
<path d="M124.366 373.389H160.196C160.413 373.389 160.589 373.213 160.589 372.996C160.589 372.778 160.413 372.602 160.196 372.602H124.366C124.148 372.602 123.972 372.778 123.972 372.996C123.972 373.213 124.148 373.389 124.366 373.389Z" fill="#6F3996"/>
<path d="M111.804 373.389H120.072C120.29 373.389 120.467 373.213 120.467 372.996C120.467 372.778 120.29 372.602 120.072 372.602H111.804C111.587 372.602 111.41 372.778 111.41 372.996C111.41 373.213 111.587 373.389 111.804 373.389Z" fill="#6F3996"/>
<path fill-rule="evenodd" clip-rule="evenodd" d="M796.686 274.1L849.17 280.038L855.426 224.777L802.942 218.838L796.686 274.1Z" fill="#438FFF"/>
<path d="M813.681 254.155L810.79 266.877C810.623 267.616 811.131 268.34 811.886 268.428L814.985 268.784C815.75 268.871 816.423 268.267 816.405 267.495L816.206 254.418C816.181 252.908 814.014 252.683 813.681 254.155Z" fill="white"/>
<path d="M819.132 259.308L816.849 267.415C816.632 268.171 817.148 268.939 817.928 269.029L820.86 269.367C821.658 269.459 822.34 268.801 822.281 268L821.633 259.557C821.525 258.134 819.514 257.934 819.132 259.308Z" fill="white"/>
<path d="M825.298 257.969L822.74 268.111C822.557 268.859 823.063 269.604 823.836 269.692L826.851 270.039C827.633 270.13 828.314 269.501 828.28 268.715L827.816 258.226C827.749 256.757 825.663 256.542 825.298 257.969Z" fill="white"/>
<path d="M834.153 245.254C834.153 244.853 834.377 244.509 834.693 244.261C834.892 244.099 835.042 243.86 835.066 243.583C835.133 243.026 834.735 242.524 834.178 242.459C833.621 242.395 833.123 242.794 833.056 243.35C833.023 243.666 833.131 243.965 833.339 244.175C833.663 244.5 833.829 244.944 833.729 245.389L828.637 268.748C828.471 269.486 828.986 270.203 829.734 270.289L832.857 270.648C833.621 270.736 834.286 270.139 834.286 269.373L834.153 245.254Z" fill="white"/>
<path d="M836.748 263.909L834.854 269.46C834.589 270.231 835.103 271.049 835.909 271.142L838.651 271.456C839.481 271.552 840.179 270.836 840.062 270.008L839.224 264.141C839.033 262.814 837.189 262.64 836.748 263.909Z" fill="white"/>
<path d="M846.403 234.947C846.087 234.911 845.796 235.021 845.589 235.221C845.323 235.472 844.991 235.632 844.634 235.59L813.067 231.955C812.702 231.914 812.411 231.682 812.211 231.377C812.053 231.134 811.787 230.961 811.472 230.926C810.915 230.861 810.409 231.264 810.342 231.825C810.301 232.167 810.442 232.488 810.675 232.701C811.007 232.993 811.106 233.468 811.023 233.899L804.81 266.037C804.668 266.767 805.184 267.462 805.923 267.548L809.121 267.916C809.86 268.001 810.525 267.427 810.541 266.677L811.306 233.903C811.314 233.472 811.505 233.037 811.879 232.819L812.029 232.709C812.328 232.448 812.702 232.279 813.1 232.325L844.601 235.953C844.957 235.993 845.248 236.22 845.447 236.518L845.555 236.651C845.796 236.911 845.955 237.241 845.913 237.597L842.291 269.023C842.249 269.383 842.025 269.672 841.726 269.872C841.485 270.029 841.31 270.289 841.277 270.598C841.211 271.155 841.61 271.656 842.166 271.721C842.723 271.785 843.221 271.386 843.288 270.831C843.321 270.522 843.213 270.23 843.022 270.02C842.773 269.758 842.615 269.424 842.656 269.065L846.27 237.645C846.311 237.287 846.544 236.997 846.843 236.798C847.084 236.639 847.258 236.379 847.291 236.07C847.358 235.513 846.959 235.011 846.403 234.947Z" fill="white"/>
<path d="M773.572 369.546H388.195C377.422 369.546 368.689 360.814 368.689 350.04V62.8905C368.689 52.1167 377.2 43.3215 388.195 43.3831H773.572C784.345 43.3831 793.077 52.1167 793.077 62.8905V350.04C793.077 360.814 784.345 369.546 773.572 369.546Z" fill="url(#paint4_linear)"/>
<path d="M774.007 354.695H387.896C384.567 354.695 381.869 351.996 381.869 348.667V63.4155C381.869 60.086 384.567 57.387 387.896 57.387H774.007C777.339 57.387 780.038 60.086 780.038 63.4155V348.667C780.038 351.996 777.339 354.695 774.007 354.695Z" fill="white"/>
<path d="M629.537 269.184H402.7C400.293 269.184 398.343 267.232 398.343 264.825V74.0996C398.343 71.6927 400.293 69.7424 402.7 69.7424H629.537C631.945 69.7424 633.894 71.6927 633.894 74.0996V264.825C633.894 267.232 631.945 269.184 629.537 269.184Z" fill="#F5F5F5"/>
<path d="M627.2 246.749H419.537C419.395 246.749 419.28 246.606 419.28 246.428V132.118C419.28 131.941 419.395 131.797 419.537 131.797C419.68 131.797 419.795 131.941 419.795 132.118V246.108H627.2C627.341 246.108 627.458 246.251 627.458 246.428C627.458 246.606 627.341 246.749 627.2 246.749Z" fill="#E64D4E"/>
<path d="M405.998 134.883C406.061 134.697 406.21 134.499 406.445 134.291C406.648 134.11 406.78 133.979 406.841 133.901C406.933 133.778 406.979 133.644 406.979 133.498C406.979 133.381 406.951 133.282 406.899 133.203C406.846 133.125 406.771 133.086 406.672 133.086C406.538 133.086 406.447 133.148 406.398 133.273C406.371 133.345 406.354 133.46 406.349 133.617H405.919C405.925 133.378 405.961 133.186 406.022 133.04C406.141 132.76 406.351 132.62 406.652 132.62C406.89 132.62 407.079 132.702 407.221 132.867C407.361 133.032 407.432 133.247 407.432 133.518C407.432 133.726 407.381 133.909 407.282 134.07C407.218 134.178 407.111 134.297 406.961 134.427L406.783 134.584C406.672 134.682 406.596 134.752 406.556 134.796L406.452 134.949H407.434V135.434H405.894C405.898 135.233 405.933 135.049 405.998 134.883Z" fill="#E64D4E"/>
<path d="M408.193 134.804C408.236 134.975 408.323 135.061 408.454 135.061C408.585 135.061 408.672 134.975 408.713 134.804C408.753 134.633 408.773 134.388 408.773 134.065C408.773 133.728 408.753 133.479 408.713 133.317C408.672 133.154 408.585 133.073 408.454 133.073C408.323 133.073 408.236 133.154 408.193 133.317C408.151 133.479 408.13 133.728 408.13 134.065C408.13 134.388 408.151 134.633 408.193 134.804ZM409.056 132.996C409.172 133.247 409.229 133.604 409.229 134.065C409.229 134.528 409.172 134.884 409.056 135.133C408.941 135.383 408.741 135.507 408.454 135.507C408.168 135.507 407.967 135.383 407.852 135.133C407.735 134.884 407.679 134.528 407.679 134.065C407.679 133.604 407.735 133.247 407.852 132.996C407.967 132.746 408.168 132.62 408.454 132.62C408.741 132.62 408.941 132.746 409.056 132.996Z" fill="#E64D4E"/>
<path d="M409.979 134.804C410.021 134.975 410.108 135.061 410.24 135.061C410.371 135.061 410.457 134.975 410.498 134.804C410.539 134.633 410.559 134.388 410.559 134.065C410.559 133.728 410.539 133.479 410.498 133.317C410.457 133.154 410.371 133.073 410.24 133.073C410.108 133.073 410.021 133.154 409.979 133.317C409.936 133.479 409.915 133.728 409.915 134.065C409.915 134.388 409.936 134.633 409.979 134.804ZM410.842 132.996C410.957 133.247 411.015 133.604 411.015 134.065C411.015 134.528 410.957 134.884 410.842 135.133C410.727 135.383 410.527 135.507 410.24 135.507C409.953 135.507 409.752 135.383 409.636 135.133C409.521 134.884 409.464 134.528 409.464 134.065C409.464 133.604 409.521 133.247 409.636 132.996C409.752 132.746 409.953 132.62 410.24 132.62C410.527 132.62 410.727 132.746 410.842 132.996Z" fill="#E64D4E"/>
<path d="M411.694 134.804C411.736 134.975 411.824 135.061 411.956 135.061C412.086 135.061 412.173 134.975 412.213 134.804C412.254 134.633 412.275 134.388 412.275 134.065C412.275 133.728 412.254 133.479 412.213 133.317C412.173 133.154 412.086 133.073 411.956 133.073C411.824 133.073 411.736 133.154 411.694 133.317C411.652 133.479 411.631 133.728 411.631 134.065C411.631 134.388 411.652 134.633 411.694 134.804ZM412.558 132.996C412.673 133.247 412.731 133.604 412.731 134.065C412.731 134.528 412.673 134.884 412.558 135.133C412.443 135.383 412.242 135.507 411.956 135.507C411.669 135.507 411.468 135.383 411.352 135.133C411.237 134.884 411.18 134.528 411.18 134.065C411.18 133.604 411.237 133.247 411.352 132.996C411.468 132.746 411.669 132.62 411.956 132.62C412.242 132.62 412.443 132.746 412.558 132.996Z" fill="#E64D4E"/>
<path d="M406.031 159.299V158.925C406.17 158.917 406.268 158.907 406.323 158.89C406.412 158.865 406.484 158.817 406.541 158.744C406.579 158.694 406.607 158.627 406.627 158.543L406.645 158.431H407.013V161.23H406.561V159.299H406.031Z" fill="#E64D4E"/>
<path d="M408.119 160.444C408.138 160.564 408.171 160.656 408.22 160.721C408.27 160.786 408.343 160.819 408.437 160.819C408.546 160.819 408.629 160.77 408.687 160.675C408.744 160.579 408.773 160.458 408.773 160.312C408.773 160.17 408.745 160.049 408.692 159.951C408.639 159.853 408.555 159.803 408.442 159.803L408.302 159.827C408.233 159.86 408.181 159.916 408.146 159.999L407.751 159.977L407.908 158.431H409.145V158.898H408.227L408.146 159.509L408.305 159.399C408.37 159.37 408.448 159.355 408.54 159.355C408.726 159.355 408.887 159.433 409.026 159.589C409.164 159.745 409.233 159.972 409.233 160.268C409.233 160.528 409.166 160.758 409.034 160.961C408.9 161.164 408.7 161.266 408.436 161.266C408.222 161.266 408.046 161.195 407.908 161.052C407.771 160.91 407.695 160.707 407.679 160.444H408.119Z" fill="#E64D4E"/>
<path d="M409.979 160.616C410.021 160.786 410.108 160.871 410.24 160.871C410.371 160.871 410.457 160.786 410.498 160.616C410.539 160.445 410.559 160.198 410.559 159.877C410.559 159.539 410.539 159.29 410.498 159.127C410.457 158.965 410.371 158.885 410.24 158.885C410.108 158.885 410.021 158.965 409.979 159.127C409.936 159.29 409.915 159.539 409.915 159.877C409.915 160.198 409.936 160.445 409.979 160.616ZM410.842 158.807C410.957 159.058 411.015 159.415 411.015 159.877C411.015 160.339 410.957 160.695 410.842 160.944C410.727 161.195 410.527 161.319 410.24 161.319C409.953 161.319 409.752 161.195 409.636 160.944C409.521 160.695 409.464 160.339 409.464 159.877C409.464 159.415 409.521 159.058 409.636 158.807C409.752 158.556 409.953 158.431 410.24 158.431C410.527 158.431 410.727 158.556 410.842 158.807Z" fill="#E64D4E"/>
<path d="M411.694 160.616C411.736 160.786 411.824 160.871 411.956 160.871C412.086 160.871 412.173 160.786 412.213 160.616C412.254 160.445 412.275 160.198 412.275 159.877C412.275 159.539 412.254 159.29 412.213 159.127C412.173 158.965 412.086 158.885 411.956 158.885C411.824 158.885 411.736 158.965 411.694 159.127C411.652 159.29 411.631 159.539 411.631 159.877C411.631 160.198 411.652 160.445 411.694 160.616ZM412.558 158.807C412.673 159.058 412.731 159.415 412.731 159.877C412.731 160.339 412.673 160.695 412.558 160.944C412.443 161.195 412.242 161.319 411.956 161.319C411.669 161.319 411.468 161.195 411.352 160.944C411.237 160.695 411.18 160.339 411.18 159.877C411.18 159.415 411.237 159.058 411.352 158.807C411.468 158.556 411.669 158.431 411.956 158.431C412.242 158.431 412.443 158.556 412.558 158.807Z" fill="#E64D4E"/>
<path d="M406.031 185.11V184.736C406.17 184.728 406.268 184.717 406.323 184.701C406.412 184.676 406.484 184.628 406.541 184.554C406.579 184.503 406.607 184.438 406.627 184.353L406.645 184.242H407.013V187.041H406.561V185.11H406.031Z" fill="#E64D4E"/>
<path d="M408.193 186.426C408.236 186.596 408.323 186.682 408.454 186.682C408.585 186.682 408.672 186.596 408.713 186.426C408.753 186.255 408.773 186.009 408.773 185.688C408.773 185.349 408.753 185.101 408.713 184.938C408.672 184.776 408.585 184.694 408.454 184.694C408.323 184.694 408.236 184.776 408.193 184.938C408.151 185.101 408.13 185.349 408.13 185.688C408.13 186.009 408.151 186.255 408.193 186.426ZM409.056 184.618C409.172 184.869 409.229 185.225 409.229 185.688C409.229 186.149 409.172 186.505 409.056 186.755C408.941 187.005 408.741 187.13 408.454 187.13C408.168 187.13 407.967 187.005 407.852 186.755C407.735 186.505 407.679 186.149 407.679 185.688C407.679 185.225 407.735 184.869 407.852 184.618C407.967 184.367 408.168 184.242 408.454 184.242C408.741 184.242 408.941 184.367 409.056 184.618Z" fill="#E64D4E"/>
<path d="M409.979 186.426C410.021 186.596 410.108 186.682 410.24 186.682C410.371 186.682 410.457 186.596 410.498 186.426C410.539 186.255 410.559 186.009 410.559 185.688C410.559 185.349 410.539 185.101 410.498 184.938C410.457 184.776 410.371 184.694 410.24 184.694C410.108 184.694 410.021 184.776 409.979 184.938C409.936 185.101 409.915 185.349 409.915 185.688C409.915 186.009 409.936 186.255 409.979 186.426ZM410.842 184.618C410.957 184.869 411.015 185.225 411.015 185.688C411.015 186.149 410.957 186.505 410.842 186.755C410.727 187.005 410.527 187.13 410.24 187.13C409.953 187.13 409.752 187.005 409.636 186.755C409.521 186.505 409.464 186.149 409.464 185.688C409.464 185.225 409.521 184.869 409.636 184.618C409.752 184.367 409.953 184.242 410.24 184.242C410.527 184.242 410.727 184.367 410.842 184.618Z" fill="#E64D4E"/>
<path d="M411.694 186.426C411.736 186.596 411.824 186.682 411.956 186.682C412.086 186.682 412.173 186.596 412.213 186.426C412.254 186.255 412.275 186.009 412.275 185.688C412.275 185.349 412.254 185.101 412.213 184.938C412.173 184.776 412.086 184.694 411.956 184.694C411.824 184.694 411.736 184.776 411.694 184.938C411.652 185.101 411.631 185.349 411.631 185.688C411.631 186.009 411.652 186.255 411.694 186.426ZM412.558 184.618C412.673 184.869 412.731 185.225 412.731 185.688C412.731 186.149 412.673 186.505 412.558 186.755C412.443 187.005 412.242 187.13 411.956 187.13C411.669 187.13 411.468 187.005 411.352 186.755C411.237 186.505 411.18 186.149 411.18 185.688C411.18 185.225 411.237 184.869 411.352 184.618C411.468 184.367 411.669 184.242 411.956 184.242C412.242 184.242 412.443 184.367 412.558 184.618Z" fill="#E64D4E"/>
<path d="M408.119 212.064C408.138 212.184 408.171 212.276 408.22 212.342C408.27 212.407 408.343 212.439 408.437 212.439C408.546 212.439 408.629 212.391 408.687 212.296C408.744 212.199 408.773 212.078 408.773 211.933C408.773 211.791 408.745 211.67 408.692 211.571C408.639 211.473 408.555 211.424 408.442 211.424L408.302 211.449C408.233 211.48 408.181 211.537 408.146 211.621L407.751 211.597L407.908 210.051H409.145V210.518H408.227L408.146 211.13L408.305 211.019C408.37 210.99 408.448 210.976 408.54 210.976C408.726 210.976 408.887 211.054 409.026 211.209C409.164 211.365 409.233 211.592 409.233 211.889C409.233 212.147 409.166 212.378 409.034 212.582C408.9 212.786 408.7 212.887 408.436 212.887C408.222 212.887 408.046 212.815 407.908 212.673C407.771 212.53 407.695 212.328 407.679 212.064H408.119Z" fill="#E64D4E"/>
<path d="M409.979 212.236C410.021 212.407 410.108 212.492 410.24 212.492C410.371 212.492 410.457 212.407 410.498 212.236C410.539 212.065 410.559 211.82 410.559 211.497C410.559 211.16 410.539 210.911 410.498 210.749C410.457 210.586 410.371 210.505 410.24 210.505C410.108 210.505 410.021 210.586 409.979 210.749C409.936 210.911 409.915 211.16 409.915 211.497C409.915 211.82 409.936 212.065 409.979 212.236ZM410.842 210.428C410.957 210.679 411.015 211.035 411.015 211.497C411.015 211.96 410.957 212.316 410.842 212.565C410.727 212.816 410.527 212.939 410.24 212.939C409.953 212.939 409.752 212.816 409.636 212.565C409.521 212.316 409.464 211.96 409.464 211.497C409.464 211.035 409.521 210.679 409.636 210.428C409.752 210.177 409.953 210.051 410.24 210.051C410.527 210.051 410.727 210.177 410.842 210.428Z" fill="#E64D4E"/>
<path d="M411.694 212.236C411.736 212.407 411.824 212.492 411.956 212.492C412.086 212.492 412.173 212.407 412.213 212.236C412.254 212.065 412.275 211.82 412.275 211.497C412.275 211.16 412.254 210.911 412.213 210.749C412.173 210.586 412.086 210.505 411.956 210.505C411.824 210.505 411.736 210.586 411.694 210.749C411.652 210.911 411.631 211.16 411.631 211.497C411.631 211.82 411.652 212.065 411.694 212.236ZM412.558 210.428C412.673 210.679 412.731 211.035 412.731 211.497C412.731 211.96 412.673 212.316 412.558 212.565C412.443 212.816 412.242 212.939 411.956 212.939C411.669 212.939 411.468 212.816 411.352 212.565C411.237 212.316 411.18 211.96 411.18 211.497C411.18 211.035 411.237 210.679 411.352 210.428C411.468 210.177 411.669 210.051 411.956 210.051C412.242 210.051 412.443 210.177 412.558 210.428Z" fill="#E64D4E"/>
<path d="M411.694 237.772C411.736 237.942 411.824 238.028 411.956 238.028C412.086 238.028 412.173 237.942 412.213 237.772C412.254 237.601 412.275 237.355 412.275 237.034C412.275 236.696 412.254 236.446 412.213 236.284C412.173 236.122 412.086 236.04 411.956 236.04C411.824 236.04 411.736 236.122 411.694 236.284C411.652 236.446 411.631 236.696 411.631 237.034C411.631 237.355 411.652 237.601 411.694 237.772ZM412.558 235.964C412.673 236.215 412.731 236.572 412.731 237.034C412.731 237.495 412.673 237.852 412.558 238.101C412.443 238.351 412.242 238.475 411.956 238.475C411.669 238.475 411.468 238.351 411.352 238.101C411.237 237.852 411.18 237.495 411.18 237.034C411.18 236.572 411.237 236.215 411.352 235.964C411.468 235.713 411.669 235.588 411.956 235.588C412.242 235.588 412.443 235.713 412.558 235.964Z" fill="#E64D4E"/>
<path d="M425.498 255.752V255.817C425.502 256.038 425.52 256.192 425.552 256.281C425.584 256.371 425.654 256.415 425.761 256.415C425.867 256.415 425.937 256.367 425.971 256.269C425.992 256.211 426.002 256.112 426.002 255.975V253.984H426.48V255.966C426.48 256.208 426.446 256.399 426.381 256.542C426.27 256.78 426.068 256.901 425.778 256.901C425.488 256.901 425.293 256.804 425.194 256.609C425.095 256.416 425.046 256.151 425.046 255.817V255.752H425.498Z" fill="#E64D4E"/>
<path d="M427.615 255.756H428.2L427.911 254.635L427.615 255.756ZM427.646 253.984H428.187L428.996 256.832H428.478L428.326 256.246H427.485L427.33 256.832H426.831L427.646 253.984Z" fill="#E64D4E"/>
<path d="M429.233 253.984H429.733L430.642 255.97V253.984H431.086V256.832H430.609L429.679 254.811V256.832H429.233V253.984Z" fill="#E64D4E"/>
<path d="M457.309 253.984H458.94V254.484H457.783V255.138H458.796V255.633H457.783V256.828H457.309V253.984Z" fill="#E64D4E"/>
<path d="M460.977 254.488H459.766V255.093H460.877V255.588H459.766V256.318H461.032V256.832H459.299V253.984H460.977V254.488Z" fill="#E64D4E"/>
<path d="M461.814 255.578V256.337H462.37C462.469 256.337 462.546 256.319 462.602 256.285C462.702 256.225 462.751 256.106 462.751 255.93C462.751 255.783 462.704 255.682 462.607 255.625C462.551 255.594 462.475 255.58 462.377 255.578H461.814ZM461.814 254.479V255.106H462.371C462.47 255.106 462.55 255.083 462.613 255.035C462.674 254.99 462.705 254.906 462.705 254.787C462.705 254.654 462.664 254.566 462.582 254.523C462.512 254.494 462.422 254.479 462.313 254.479H461.814ZM463.056 254.287C463.126 254.409 463.161 254.553 463.161 254.723C463.161 254.897 463.126 255.035 463.055 255.141C463.016 255.201 462.957 255.254 462.882 255.304C462.998 255.356 463.086 255.44 463.145 255.555C463.204 255.669 463.234 255.808 463.234 255.971C463.234 256.141 463.2 256.291 463.132 256.426C463.089 256.515 463.036 256.588 462.97 256.649C462.897 256.72 462.812 256.766 462.712 256.792C462.613 256.818 462.506 256.832 462.388 256.832H461.359V253.984H462.464C462.742 253.99 462.94 254.091 463.056 254.287Z" fill="#E64D4E"/>
<path d="M480.25 253.984H480.938V256.832H480.492V254.906C480.492 254.851 480.493 254.772 480.494 254.673C480.495 254.573 480.495 254.497 480.495 254.442L480.062 256.832H479.598L479.167 254.442C479.167 254.497 479.168 254.573 479.169 254.673C479.17 254.772 479.17 254.851 479.17 254.906V256.832H478.726V253.984H479.421L479.836 256.222L480.25 253.984Z" fill="#E64D4E"/>
<path d="M481.981 255.756H482.566L482.278 254.635L481.981 255.756ZM482.012 253.984H482.553L483.362 256.832H482.844L482.693 256.246H481.852L481.696 256.832H481.197L482.012 253.984Z" fill="#E64D4E"/>
<path d="M484.135 254.479V255.244H484.649C484.75 255.244 484.828 255.228 484.879 255.198C484.97 255.142 485.014 255.036 485.014 254.877C485.014 254.704 484.971 254.589 484.883 254.53C484.834 254.496 484.76 254.479 484.661 254.479H484.135ZM485.122 254.058C485.207 254.103 485.278 254.17 485.336 254.257C485.385 254.329 485.422 254.409 485.451 254.497C485.479 254.584 485.493 254.684 485.493 254.796C485.493 254.931 485.466 255.063 485.412 255.195C485.357 255.324 485.267 255.417 485.14 255.472C485.245 255.524 485.319 255.599 485.365 255.697C485.408 255.794 485.43 255.942 485.43 256.142V256.332C485.43 256.463 485.434 256.551 485.443 256.597L485.53 256.76V256.832H485.004L484.973 256.678C484.961 256.598 484.953 256.518 484.952 256.433L484.949 256.169C484.947 255.987 484.922 255.866 484.874 255.805C484.825 255.745 484.734 255.715 484.601 255.715H484.135V256.832H483.668V253.984H484.761C484.918 253.988 485.038 254.013 485.122 254.058Z" fill="#E64D4E"/>
<path d="M511.43 255.756H512.016L511.727 254.635L511.43 255.756ZM511.462 253.984H512.002L512.812 256.832H512.293L512.142 256.246H511.3L511.146 256.832H510.645L511.462 253.984Z" fill="#E64D4E"/>
<path d="M514.276 254.574C514.216 254.511 514.131 254.479 514.022 254.479H513.591V255.317H514.022C514.131 255.317 514.216 255.283 514.276 255.214C514.336 255.146 514.368 255.038 514.368 254.891C514.368 254.742 514.336 254.637 514.276 254.574ZM514.64 255.599C514.507 255.737 514.316 255.807 514.067 255.807H513.591V256.832H513.117V253.984H514.099C514.325 253.984 514.505 254.058 514.639 254.205C514.774 254.352 514.841 254.579 514.841 254.887C514.841 255.222 514.775 255.46 514.64 255.599Z" fill="#E64D4E"/>
<path d="M515.711 254.479V255.244H516.225C516.327 255.244 516.404 255.228 516.454 255.198C516.545 255.142 516.589 255.036 516.589 254.877C516.589 254.704 516.547 254.589 516.459 254.53C516.41 254.496 516.337 254.479 516.238 254.479H515.711ZM516.698 254.058C516.782 254.103 516.854 254.17 516.912 254.257C516.961 254.329 516.999 254.409 517.027 254.497C517.055 254.584 517.069 254.684 517.069 254.796C517.069 254.931 517.042 255.063 516.988 255.195C516.932 255.324 516.842 255.417 516.716 255.472C516.822 255.524 516.897 255.599 516.94 255.697C516.985 255.794 517.006 255.942 517.006 256.142V256.332C517.006 256.463 517.01 256.551 517.019 256.597L517.107 256.76V256.832H516.579L516.548 256.678C516.536 256.598 516.529 256.518 516.529 256.433L516.525 256.169C516.524 255.987 516.498 255.866 516.449 255.805C516.402 255.745 516.31 255.715 516.177 255.715H515.711V256.832H515.245V253.984H516.337C516.495 253.988 516.614 254.013 516.698 254.058Z" fill="#E64D4E"/>
<path d="M533.793 253.984H534.48V256.832H534.035V254.906C534.035 254.851 534.036 254.772 534.037 254.673C534.038 254.573 534.039 254.497 534.039 254.442L533.605 256.832H533.14L532.71 254.442C532.71 254.497 532.711 254.573 532.712 254.673C532.713 254.772 532.713 254.851 532.713 254.906V256.832H532.268V253.984H532.964L533.38 256.222L533.793 253.984Z" fill="#E64D4E"/>
<path d="M535.524 255.756H536.11L535.821 254.635L535.524 255.756ZM535.555 253.984H536.096L536.904 256.832H536.387L536.236 256.246H535.394L535.238 256.832H534.74L535.555 253.984Z" fill="#E64D4E"/>
<path d="M538.223 253.984H538.763L537.999 255.763V256.832H537.521V255.763L536.73 253.984H537.293L537.768 255.224L538.223 253.984Z" fill="#E64D4E"/>
<path d="M575.347 255.752V255.817C575.351 256.038 575.37 256.192 575.403 256.281C575.435 256.371 575.506 256.415 575.613 256.415C575.718 256.415 575.788 256.367 575.822 256.269C575.841 256.211 575.853 256.112 575.853 255.975V253.984H576.33V255.966C576.33 256.208 576.298 256.399 576.231 256.542C576.121 256.78 575.92 256.901 575.629 256.901C575.339 256.901 575.145 256.804 575.045 256.609C574.946 256.416 574.896 256.151 574.896 255.817V255.752H575.347Z" fill="#E64D4E"/>
<path d="M576.818 253.984H577.303V255.732C577.303 255.928 577.322 256.071 577.359 256.161C577.416 256.32 577.543 256.4 577.736 256.4C577.929 256.4 578.054 256.32 578.111 256.161C578.149 256.071 578.167 255.928 578.167 255.732V253.984H578.653V255.734C578.653 256.038 578.616 256.272 578.54 256.441C578.4 256.75 578.132 256.905 577.736 256.905C577.341 256.905 577.072 256.75 576.931 256.441C576.856 256.272 576.818 256.038 576.818 255.734V253.984Z" fill="#E64D4E"/>
<path d="M579.084 253.984H579.585L580.492 255.97V253.984H580.938V256.832H580.461L579.529 254.811V256.832H579.084V253.984Z" fill="#E64D4E"/>
<path d="M607.474 255.752V255.817C607.478 256.038 607.496 256.192 607.527 256.281C607.561 256.371 607.629 256.415 607.737 256.415C607.842 256.415 607.912 256.367 607.947 256.269C607.967 256.211 607.978 256.112 607.978 255.975V253.984H608.455V255.966C608.455 256.208 608.422 256.399 608.356 256.542C608.245 256.78 608.045 256.901 607.755 256.901C607.465 256.901 607.271 256.804 607.17 256.609C607.07 256.416 607.022 256.151 607.022 255.817V255.752H607.474Z" fill="#E64D4E"/>
<path d="M608.944 253.984H609.43V255.732C609.43 255.928 609.448 256.071 609.485 256.161C609.542 256.32 609.669 256.4 609.863 256.4C610.055 256.4 610.18 256.32 610.237 256.161C610.275 256.071 610.294 255.928 610.294 255.732V253.984H610.78V255.734C610.78 256.038 610.742 256.272 610.666 256.441C610.525 256.75 610.258 256.905 609.863 256.905C609.467 256.905 609.198 256.75 609.056 256.441C608.981 256.272 608.944 256.038 608.944 255.734V253.984Z" fill="#E64D4E"/>
<path d="M611.209 253.984H611.687V256.318H612.83V256.832H611.209V253.984Z" fill="#E64D4E"/>
<path d="M459.833 246.749C459.689 246.749 459.574 246.606 459.574 246.428V132.118C459.574 131.941 459.689 131.797 459.833 131.797C459.974 131.797 460.09 131.941 460.09 132.118V246.428C460.09 246.606 459.974 246.749 459.833 246.749Z" fill="#E64D4E"/>
<path d="M523.396 246.749C523.254 246.749 523.139 246.606 523.139 246.428V132.118C523.139 131.941 523.254 131.797 523.396 131.797C523.539 131.797 523.654 131.941 523.654 132.118V246.428C523.654 246.606 523.539 246.749 523.396 246.749Z" fill="#E64D4E"/>
<path d="M586.962 246.749C586.818 246.749 586.703 246.606 586.703 246.428V132.118C586.703 131.941 586.818 131.797 586.962 131.797C587.103 131.797 587.22 131.941 587.22 132.118V246.428C587.22 246.606 587.103 246.749 586.962 246.749Z" fill="#E64D4E"/>
<path d="M627.2 159.621H419.537C419.395 159.621 419.28 159.478 419.28 159.301C419.28 159.124 419.395 158.98 419.537 158.98H627.2C627.341 158.98 627.458 159.124 627.458 159.301C627.458 159.478 627.341 159.621 627.2 159.621Z" fill="#E64D4E"/>
<path d="M627.2 186.256H419.537C419.395 186.256 419.28 186.113 419.28 185.936C419.28 185.759 419.395 185.615 419.537 185.615H627.2C627.341 185.615 627.458 185.759 627.458 185.936C627.458 186.113 627.341 186.256 627.2 186.256Z" fill="#E64D4E"/>
<path d="M627.2 213.165H419.537C419.395 213.165 419.28 213.022 419.28 212.844C419.28 212.667 419.395 212.523 419.537 212.523H627.2C627.341 212.523 627.458 212.667 627.458 212.844C627.458 213.022 627.341 213.165 627.2 213.165Z" fill="#E64D4E"/>
<path fill-rule="evenodd" clip-rule="evenodd" d="M627.126 184.892C612.829 186.051 617.599 198.162 599.669 204.635C591.596 207.549 584.203 206.989 574.287 202.182C558.054 194.312 549.441 159.057 537.629 159.255C521.92 159.518 512.204 205.13 492.661 204.584C473.633 204.05 475.999 173.554 455.032 173.554C435.373 173.554 420.329 203.578 419.554 205.252V246.528H627.217L627.126 184.892Z" fill="url(#paint5_linear)"/>
<path fill-rule="evenodd" clip-rule="evenodd" d="M419.554 212.926C433.748 198.036 450.45 212.362 459.794 227.648C461.011 229.642 462.03 231.829 464.293 232.797C471.813 236.018 477.781 219.242 488.799 216.953C501.184 214.378 505.461 233.127 517.76 233.985C538.879 235.46 548.282 181.718 566.772 182.888C584.068 183.981 590.517 231.945 605.279 230.421C616.772 229.235 617.228 198.9 627.217 200.712V246.608H419.554V212.926Z" fill="url(#paint6_linear)"/>
<path d="M449.888 115.593H314.013C310.013 115.593 306.772 112.351 306.772 108.352V83.0248C306.772 79.0263 310.013 75.7837 314.013 75.7837H449.888C453.888 75.7837 457.13 79.0263 457.13 83.0248V108.352C457.13 112.351 453.888 115.593 449.888 115.593Z" fill="#009AE1"/>
<path d="M438.515 85.3938H325.374V88.109H438.515V85.3938Z" fill="white"/>
<path d="M438.515 94.4551H325.374V97.1703H438.515V94.4551Z" fill="white"/>
<path d="M400.802 103.24H325.374V105.956H400.802V103.24Z" fill="white"/>
<path d="M722.198 281.8H717.654C717.396 281.8 717.197 281.596 717.197 281.346C717.197 281.094 717.396 280.892 717.654 280.892H722.198C722.448 280.892 722.647 281.094 722.647 281.346C722.647 281.596 722.448 281.8 722.198 281.8ZM731.286 281.8H726.742C726.485 281.8 726.285 281.596 726.285 281.346C726.285 281.094 726.485 280.892 726.742 280.892H731.286C731.535 280.892 731.735 281.094 731.735 281.346C731.735 281.596 731.535 281.8 731.286 281.8ZM740.374 281.8H735.829C735.573 281.8 735.373 281.596 735.373 281.346C735.373 281.094 735.573 280.892 735.829 280.892H740.374C740.623 280.892 740.822 281.094 740.822 281.346C740.822 281.596 740.623 281.8 740.374 281.8ZM749.454 281.8H744.91C744.66 281.8 744.461 281.596 744.461 281.346C744.461 281.094 744.66 280.892 744.91 280.892H749.454C749.71 280.892 749.911 281.094 749.911 281.346C749.911 281.596 749.71 281.8 749.454 281.8ZM758.541 281.8H753.997C753.748 281.8 753.548 281.596 753.548 281.346C753.548 281.094 753.748 280.892 753.997 280.892H758.541C758.799 280.892 758.998 281.094 758.998 281.346C758.998 281.596 758.799 281.8 758.541 281.8ZM767.629 281.8H763.085C762.836 281.8 762.637 281.596 762.637 281.346C762.637 281.094 762.836 280.892 763.085 280.892H767.629C767.887 280.892 768.086 281.094 768.086 281.346C768.086 281.596 767.887 281.8 767.629 281.8ZM776.717 281.8H772.173C771.924 281.8 771.725 281.596 771.725 281.346C771.725 281.094 771.924 280.892 772.173 280.892H776.717C776.966 280.892 777.173 281.094 777.173 281.346C777.173 281.596 776.966 281.8 776.717 281.8ZM710.693 285.927L710.635 285.924C710.385 285.891 710.211 285.663 710.243 285.414C710.459 283.744 711.49 282.275 712.985 281.489C713.21 281.373 713.484 281.457 713.6 281.679C713.717 281.901 713.633 282.176 713.409 282.292C712.172 282.942 711.324 284.155 711.141 285.533C711.108 285.762 710.917 285.927 710.693 285.927ZM710.651 295.014C710.402 295.014 710.194 294.811 710.194 294.559V290.016C710.194 289.765 710.402 289.562 710.651 289.562C710.901 289.562 711.1 289.765 711.1 290.016V294.559C711.1 294.811 710.901 295.014 710.651 295.014ZM710.651 304.101C710.402 304.101 710.194 303.898 710.194 303.647V299.103C710.194 298.852 710.402 298.649 710.651 298.649C710.901 298.649 711.1 298.852 711.1 299.103V303.647C711.1 303.898 710.901 304.101 710.651 304.101ZM710.651 313.188C710.402 313.188 710.194 312.985 710.194 312.734V308.19C710.194 307.94 710.402 307.736 710.651 307.736C710.901 307.736 711.1 307.94 711.1 308.19V312.734C711.1 312.985 710.901 313.188 710.651 313.188ZM710.651 322.274C710.402 322.274 710.194 322.072 710.194 321.821V317.278C710.194 317.027 710.402 316.824 710.651 316.824C710.901 316.824 711.1 317.027 711.1 317.278V321.821C711.1 322.072 710.901 322.274 710.651 322.274ZM710.651 331.363C710.402 331.363 710.194 331.16 710.194 330.909V326.365C710.194 326.113 710.402 325.911 710.651 325.911C710.901 325.911 711.1 326.113 711.1 326.365V330.909C711.1 331.16 710.901 331.363 710.651 331.363ZM715.386 337.756C713.7 337.746 712.112 336.915 711.141 335.534C710.991 335.329 711.041 335.045 711.249 334.902C711.458 334.758 711.739 334.806 711.881 335.013C712.686 336.153 713.998 336.841 715.386 336.848C715.636 336.85 715.843 337.054 715.835 337.304C715.835 337.555 715.636 337.756 715.386 337.756ZM724.474 337.756H719.93C719.681 337.756 719.474 337.554 719.474 337.303C719.474 337.052 719.681 336.849 719.93 336.849H724.474C724.723 336.849 724.922 337.052 724.922 337.303C724.922 337.554 724.723 337.756 724.474 337.756ZM733.562 337.756H729.018C728.769 337.756 728.561 337.554 728.561 337.303C728.561 337.052 728.769 336.849 729.018 336.849H733.562C733.811 336.849 734.011 337.052 734.011 337.303C734.011 337.554 733.811 337.756 733.562 337.756ZM742.65 337.756H738.106C737.848 337.756 737.649 337.554 737.649 337.303C737.649 337.052 737.848 336.849 738.106 336.849H742.65C742.899 336.849 743.099 337.052 743.099 337.303C743.099 337.554 742.899 337.756 742.65 337.756ZM751.737 337.756H747.194C746.937 337.756 746.737 337.554 746.737 337.303C746.737 337.052 746.937 336.849 747.194 336.849H751.737C751.987 336.849 752.186 337.052 752.186 337.303C752.186 337.554 751.987 337.756 751.737 337.756ZM760.826 337.756H756.282C756.024 337.756 755.825 337.554 755.825 337.303C755.825 337.052 756.024 336.849 756.282 336.849H760.826C761.074 336.849 761.274 337.052 761.274 337.303C761.274 337.554 761.074 337.756 760.826 337.756ZM769.913 337.756H765.37C765.112 337.756 764.912 337.554 764.912 337.303C764.912 337.052 765.112 336.849 765.37 336.849H769.913C770.163 336.849 770.362 337.052 770.362 337.303C770.362 337.554 770.163 337.756 769.913 337.756ZM779.001 337.756H774.457C774.2 337.756 774.001 337.554 774.001 337.303C774.001 337.052 774.2 336.849 774.457 336.849H779.001C779.251 336.849 779.45 337.052 779.45 337.303C779.45 337.554 779.251 337.756 779.001 337.756Z" fill="#F0E4F0"/>
<path d="M608.657 281.8H604.07C603.82 281.8 603.589 281.596 603.589 281.346C603.589 281.094 603.765 280.892 604.016 280.892V281.346L604.059 280.892H608.657C608.908 280.892 609.112 281.094 609.112 281.346C609.112 281.596 608.908 281.8 608.657 281.8ZM617.83 281.8H613.244C612.992 281.8 612.79 281.596 612.79 281.346C612.79 281.094 612.992 280.892 613.244 280.892H617.83C618.081 280.892 618.284 281.094 618.284 281.346C618.284 281.596 618.081 281.8 617.83 281.8ZM627.003 281.8H622.418C622.166 281.8 621.963 281.596 621.963 281.346C621.963 281.094 622.166 280.892 622.418 280.892H627.003C627.254 280.892 627.457 281.094 627.457 281.346C627.457 281.596 627.254 281.8 627.003 281.8ZM636.177 281.8H631.591C631.339 281.8 631.136 281.596 631.136 281.346C631.136 281.094 631.339 280.892 631.591 280.892H636.177C636.427 280.892 636.631 281.094 636.631 281.346C636.631 281.596 636.427 281.8 636.177 281.8ZM645.35 281.8H640.763C640.512 281.8 640.309 281.596 640.309 281.346C640.309 281.094 640.512 280.892 640.763 280.892H645.35C645.6 280.892 645.804 281.094 645.804 281.346C645.804 281.596 645.6 281.8 645.35 281.8ZM654.523 281.8H649.936C649.686 281.8 649.483 281.596 649.483 281.346C649.483 281.094 649.686 280.892 649.936 280.892H654.523C654.775 280.892 654.978 281.094 654.978 281.346C654.978 281.596 654.775 281.8 654.523 281.8ZM663.696 281.8H659.109C658.859 281.8 658.656 281.596 658.656 281.346C658.656 281.094 658.859 280.892 659.109 280.892H663.696C663.947 280.892 664.15 281.094 664.15 281.346C664.15 281.596 663.947 281.8 663.696 281.8ZM672.869 281.8H668.282C668.032 281.8 667.829 281.596 667.829 281.346C667.829 281.094 668.032 280.892 668.282 280.892H672.869C673.12 280.892 673.324 281.094 673.324 281.346C673.324 281.596 673.12 281.8 672.869 281.8ZM682.04 281.8H677.455C677.204 281.8 677.002 281.596 677.002 281.346C677.002 281.094 677.204 280.892 677.455 280.892H682.04C682.289 280.892 682.497 281.094 682.497 281.346C682.497 281.596 682.289 281.8 682.04 281.8ZM691.22 281.8H686.626C686.376 281.8 686.177 281.596 686.177 281.346C686.177 281.094 686.376 280.892 686.626 280.892H691.22C691.468 280.892 691.668 281.094 691.668 281.346C691.668 281.596 691.468 281.8 691.22 281.8ZM698.679 285.423C698.48 285.423 698.289 285.285 698.238 285.077C697.907 283.71 696.918 282.592 695.597 282.084C695.365 281.995 695.248 281.733 695.339 281.498C695.431 281.265 695.689 281.149 695.929 281.238C697.524 281.85 698.719 283.204 699.12 284.861C699.186 285.104 699.036 285.35 698.787 285.409L698.679 285.423ZM599.308 288.305C599.057 288.305 598.853 288.102 598.853 287.851V286.107C598.853 285.055 599.166 284.042 599.755 283.176C599.896 282.97 600.18 282.914 600.385 283.056C600.593 283.197 600.647 283.479 600.506 283.686C600.019 284.402 599.762 285.238 599.762 286.107V287.851C599.762 288.102 599.559 288.305 599.308 288.305ZM698.82 294.585C698.563 294.585 698.364 294.381 698.364 294.13V289.545C698.364 289.293 698.563 289.091 698.82 289.091C699.069 289.091 699.269 289.293 699.269 289.545V294.13C699.269 294.381 699.069 294.585 698.82 294.585ZM599.308 297.478C599.057 297.478 598.853 297.276 598.853 297.024V292.438C598.853 292.186 599.057 291.983 599.308 291.983C599.559 291.983 599.762 292.186 599.762 292.438V297.024C599.762 297.276 599.559 297.478 599.308 297.478ZM698.82 303.758C698.563 303.758 698.364 303.555 698.364 303.304V298.718C698.364 298.466 698.563 298.263 698.82 298.263C699.069 298.263 699.269 298.466 699.269 298.718V303.304C699.269 303.555 699.069 303.758 698.82 303.758ZM599.308 306.651C599.057 306.651 598.853 306.448 598.853 306.198V301.611C598.853 301.36 599.057 301.156 599.308 301.156C599.559 301.156 599.762 301.36 599.762 301.611V306.198C599.762 306.448 599.559 306.651 599.308 306.651ZM698.82 312.932C698.563 312.932 698.364 312.728 698.364 312.478V307.89C698.364 307.64 698.563 307.437 698.82 307.437C699.069 307.437 699.269 307.64 699.269 307.89V312.478C699.269 312.728 699.069 312.932 698.82 312.932ZM599.308 315.826C599.057 315.826 598.853 315.621 598.853 315.371V310.784C598.853 310.534 599.057 310.331 599.308 310.331C599.559 310.331 599.762 310.534 599.762 310.784V315.371C599.762 315.621 599.559 315.826 599.308 315.826ZM698.82 322.104C698.563 322.104 698.364 321.901 698.364 321.65V317.063C698.364 316.813 698.563 316.611 698.82 316.611C699.069 316.611 699.269 316.813 699.269 317.063V321.65C699.269 321.901 699.069 322.104 698.82 322.104ZM599.308 324.999C599.057 324.999 598.853 324.795 598.853 324.544V319.956C598.853 319.706 599.057 319.503 599.308 319.503C599.559 319.503 599.762 319.706 599.762 319.956V324.544C599.762 324.795 599.559 324.999 599.308 324.999ZM698.82 331.277C698.563 331.277 698.364 331.075 698.364 330.823V326.238C698.364 325.986 698.563 325.784 698.82 325.784C699.069 325.784 699.269 325.986 699.269 326.238V330.823C699.269 331.075 699.069 331.277 698.82 331.277ZM599.452 334.159C599.247 334.159 599.063 334.021 599.012 333.815C598.907 333.401 598.853 332.972 598.853 332.541V329.13C598.853 328.88 599.057 328.676 599.308 328.676C599.559 328.676 599.762 328.88 599.762 329.13V332.541C599.762 332.898 599.806 333.251 599.891 333.594C599.953 333.838 599.805 334.084 599.562 334.146L599.452 334.159ZM606.937 337.756H604.07C603.436 337.756 602.815 337.644 602.227 337.422C601.993 337.333 601.875 337.07 601.964 336.837C602.052 336.601 602.314 336.487 602.548 336.572C603.034 336.756 603.546 336.849 604.07 336.849H606.937C607.188 336.849 607.391 337.052 607.391 337.303C607.391 337.554 607.188 337.756 606.937 337.756ZM616.11 337.756H611.523C611.273 337.756 611.069 337.554 611.069 337.303C611.069 337.052 611.273 336.849 611.523 336.849H616.11C616.362 336.849 616.564 337.052 616.564 337.303C616.564 337.554 616.362 337.756 616.11 337.756ZM625.284 337.756H620.696C620.446 337.756 620.242 337.554 620.242 337.303C620.242 337.052 620.446 336.849 620.696 336.849H625.284C625.534 336.849 625.737 337.052 625.737 337.303C625.737 337.554 625.534 337.756 625.284 337.756ZM634.457 337.756H629.87C629.62 337.756 629.416 337.554 629.416 337.303C629.416 337.052 629.62 336.849 629.87 336.849H634.457C634.707 336.849 634.91 337.052 634.91 337.303C634.91 337.554 634.707 337.756 634.457 337.756ZM643.63 337.756H639.042C638.793 337.756 638.589 337.554 638.589 337.303C638.589 337.052 638.793 336.849 639.042 336.849H643.63C643.881 336.849 644.084 337.052 644.084 337.303C644.084 337.554 643.881 337.756 643.63 337.756ZM652.804 337.756H648.215C647.965 337.756 647.762 337.554 647.762 337.303C647.762 337.052 647.965 336.849 648.215 336.849H652.804C653.054 336.849 653.257 337.052 653.257 337.303C653.257 337.554 653.054 337.756 652.804 337.756ZM661.976 337.756H657.39C657.138 337.756 656.936 337.554 656.936 337.303C656.936 337.052 657.138 336.849 657.39 336.849H661.976C662.227 336.849 662.43 337.052 662.43 337.303C662.43 337.554 662.227 337.756 661.976 337.756ZM671.149 337.756H666.563C666.311 337.756 666.109 337.554 666.109 337.303C666.109 337.052 666.311 336.849 666.563 336.849H671.149C671.4 336.849 671.603 337.052 671.603 337.303C671.603 337.554 671.4 337.756 671.149 337.756ZM680.321 337.756H675.735C675.484 337.756 675.281 337.554 675.281 337.303C675.281 337.052 675.484 336.849 675.735 336.849H680.321C680.57 336.849 680.777 337.052 680.777 337.303C680.777 337.554 680.57 337.756 680.321 337.756ZM689.5 337.756H684.906C684.657 337.756 684.457 337.554 684.457 337.303C684.457 337.052 684.657 336.849 684.906 336.849H689.5C689.749 336.849 689.948 337.052 689.948 337.303C689.948 337.554 689.749 337.756 689.5 337.756ZM694.085 337.756C693.836 337.756 693.629 337.556 693.629 337.305C693.629 337.055 693.828 336.851 694.077 336.849C695.489 336.841 696.802 336.142 697.608 334.981C697.748 334.773 698.031 334.724 698.238 334.865C698.447 335.007 698.496 335.291 698.356 335.496C697.384 336.902 695.788 337.746 694.085 337.756Z" fill="#F0E4F0"/>
<path d="M411.264 281.8H406.736C406.484 281.8 406.282 281.596 406.282 281.346C406.282 281.094 406.484 280.892 406.736 280.892H411.264C411.515 280.892 411.718 281.094 411.718 281.346C411.718 281.596 411.515 281.8 411.264 281.8ZM420.319 281.8H415.791C415.539 281.8 415.336 281.596 415.336 281.346C415.336 281.094 415.539 280.892 415.791 280.892H420.319C420.569 280.892 420.772 281.094 420.772 281.346C420.772 281.596 420.569 281.8 420.319 281.8ZM429.373 281.8H424.845C424.595 281.8 424.391 281.596 424.391 281.346C424.391 281.094 424.595 280.892 424.845 280.892H429.373C429.624 280.892 429.827 281.094 429.827 281.346C429.827 281.596 429.624 281.8 429.373 281.8ZM438.428 281.8H433.9C433.649 281.8 433.446 281.596 433.446 281.346C433.446 281.094 433.649 280.892 433.9 280.892H438.428C438.678 280.892 438.882 281.094 438.882 281.346C438.882 281.596 438.678 281.8 438.428 281.8ZM447.482 281.8H442.954C442.703 281.8 442.501 281.596 442.501 281.346C442.501 281.094 442.703 280.892 442.954 280.892H447.482C447.732 280.892 447.936 281.094 447.936 281.346C447.936 281.596 447.732 281.8 447.482 281.8ZM456.536 281.8H452.009C451.758 281.8 451.555 281.596 451.555 281.346C451.555 281.094 451.758 280.892 452.009 280.892H456.536C456.787 280.892 456.991 281.094 456.991 281.346C456.991 281.596 456.787 281.8 456.536 281.8ZM465.591 281.8H461.064C460.813 281.8 460.61 281.596 460.61 281.346C460.61 281.094 460.813 280.892 461.064 280.892H465.591C465.841 280.892 466.045 281.094 466.045 281.346C466.045 281.596 465.841 281.8 465.591 281.8ZM474.646 281.8H470.119C469.867 281.8 469.665 281.596 469.665 281.346C469.665 281.094 469.867 280.892 470.119 280.892H474.646C474.896 280.892 475.1 281.094 475.1 281.346C475.1 281.596 474.896 281.8 474.646 281.8ZM483.701 281.8H479.173C478.922 281.8 478.719 281.596 478.719 281.346C478.719 281.094 478.922 280.892 479.173 280.892H483.701C483.951 280.892 484.153 281.094 484.153 281.346C484.153 281.596 483.951 281.8 483.701 281.8ZM492.755 281.8H488.228C487.977 281.8 487.773 281.596 487.773 281.346C487.773 281.094 487.977 280.892 488.228 280.892H492.755C493.006 280.892 493.208 281.094 493.208 281.346C493.208 281.596 493.006 281.8 492.755 281.8ZM501.81 281.8H497.283C497.031 281.8 496.829 281.596 496.829 281.346C496.829 281.094 497.031 280.892 497.283 280.892H501.81C502.06 280.892 502.264 281.094 502.264 281.346C502.264 281.596 502.06 281.8 501.81 281.8ZM510.864 281.8H506.337C506.086 281.8 505.883 281.596 505.883 281.346C505.883 281.094 506.086 280.892 506.337 280.892H510.864C511.115 280.892 511.318 281.094 511.318 281.346C511.318 281.596 511.115 281.8 510.864 281.8ZM519.918 281.8H515.391C515.141 281.8 514.938 281.596 514.938 281.346C514.938 281.094 515.141 280.892 515.391 280.892H519.918C520.17 280.892 520.373 281.094 520.373 281.346C520.373 281.596 520.17 281.8 519.918 281.8ZM528.973 281.8H524.446C524.195 281.8 523.992 281.596 523.992 281.346C523.992 281.094 524.195 280.892 524.446 280.892H528.973C529.224 280.892 529.427 281.094 529.427 281.346C529.427 281.596 529.224 281.8 528.973 281.8ZM538.027 281.8H533.5C533.25 281.8 533.047 281.596 533.047 281.346C533.047 281.094 533.25 280.892 533.5 280.892H538.027C538.279 280.892 538.482 281.094 538.482 281.346C538.482 281.596 538.279 281.8 538.027 281.8ZM547.082 281.8H542.555C542.305 281.8 542.102 281.596 542.102 281.346C542.102 281.094 542.305 280.892 542.555 280.892H547.082C547.334 280.892 547.536 281.094 547.536 281.346C547.536 281.596 547.334 281.8 547.082 281.8ZM556.136 281.8H551.61C551.359 281.8 551.156 281.596 551.156 281.346C551.156 281.094 551.359 280.892 551.61 280.892H556.136C556.388 280.892 556.591 281.094 556.591 281.346C556.591 281.596 556.388 281.8 556.136 281.8ZM565.192 281.8H560.664C560.414 281.8 560.211 281.596 560.211 281.346C560.211 281.094 560.414 280.892 560.664 280.892H565.192C565.442 280.892 565.646 281.094 565.646 281.346C565.646 281.596 565.442 281.8 565.192 281.8ZM574.246 281.8H569.719C569.467 281.8 569.264 281.596 569.264 281.346C569.264 281.094 569.467 280.892 569.719 280.892H574.246C574.498 280.892 574.7 281.094 574.7 281.346C574.7 281.596 574.498 281.8 574.246 281.8ZM583.356 281.8H578.773C578.523 281.8 578.319 281.596 578.319 281.346C578.319 281.094 578.523 280.892 578.773 280.892H583.3C583.552 280.892 583.782 281.094 583.782 281.346C583.782 281.596 583.606 281.8 583.356 281.8ZM399.985 286.124L399.943 286.121C399.693 286.099 399.509 285.879 399.532 285.628C399.684 283.958 400.643 282.452 402.096 281.602C402.311 281.476 402.59 281.548 402.716 281.765C402.843 281.98 402.771 282.259 402.554 282.387C401.353 283.088 400.562 284.332 400.437 285.711C400.415 285.947 400.216 286.124 399.985 286.124ZM588.062 288.187C587.812 288.187 587.609 287.985 587.609 287.733V286.107C587.609 285.22 587.341 284.368 586.835 283.643C586.692 283.438 586.742 283.155 586.947 283.011C587.153 282.869 587.436 282.918 587.579 283.123C588.193 284.001 588.517 285.033 588.517 286.107V287.733C588.517 287.985 588.314 288.187 588.062 288.187ZM399.964 295.177C399.713 295.177 399.51 294.974 399.51 294.723V290.196C399.51 289.945 399.713 289.742 399.964 289.742C400.214 289.742 400.419 289.945 400.419 290.196V294.723C400.419 294.974 400.214 295.177 399.964 295.177ZM588.062 297.243C587.812 297.243 587.609 297.039 587.609 296.788V292.261C587.609 292.009 587.812 291.807 588.062 291.807C588.314 291.807 588.517 292.009 588.517 292.261V296.788C588.517 297.039 588.314 297.243 588.062 297.243ZM399.964 304.233C399.713 304.233 399.51 304.028 399.51 303.779V299.251C399.51 298.999 399.713 298.797 399.964 298.797C400.214 298.797 400.419 298.999 400.419 299.251V303.779C400.419 304.028 400.214 304.233 399.964 304.233ZM588.062 306.297C587.812 306.297 587.609 306.094 587.609 305.843V301.315C587.609 301.064 587.812 300.862 588.062 300.862C588.314 300.862 588.517 301.064 588.517 301.315V305.843C588.517 306.094 588.314 306.297 588.062 306.297ZM399.964 313.286C399.713 313.286 399.51 313.083 399.51 312.832V308.306C399.51 308.055 399.713 307.852 399.964 307.852C400.214 307.852 400.419 308.055 400.419 308.306V312.832C400.419 313.083 400.214 313.286 399.964 313.286ZM588.062 315.351C587.812 315.351 587.609 315.149 587.609 314.897V310.369C587.609 310.119 587.812 309.915 588.062 309.915C588.314 309.915 588.517 310.119 588.517 310.369V314.897C588.517 315.149 588.314 315.351 588.062 315.351ZM399.964 322.34C399.713 322.34 399.51 322.138 399.51 321.887V317.359C399.51 317.11 399.713 316.906 399.964 316.906C400.214 316.906 400.419 317.11 400.419 317.359V321.887C400.419 322.138 400.214 322.34 399.964 322.34ZM588.062 324.407C587.812 324.407 587.609 324.202 587.609 323.952V319.425C587.609 319.173 587.812 318.97 588.062 318.97C588.314 318.97 588.517 319.173 588.517 319.425V323.952C588.517 324.202 588.314 324.407 588.062 324.407ZM399.964 331.396C399.713 331.396 399.51 331.193 399.51 330.941V326.415C399.51 326.164 399.713 325.961 399.964 325.961C400.214 325.961 400.419 326.164 400.419 326.415V330.941C400.419 331.193 400.214 331.396 399.964 331.396ZM588.041 333.459L587.997 333.457C587.747 333.433 587.564 333.212 587.589 332.962C587.602 332.824 587.609 332.683 587.609 332.541V328.479C587.609 328.227 587.812 328.025 588.062 328.025C588.314 328.025 588.517 328.227 588.517 328.479V332.541C588.516 332.714 588.508 332.883 588.492 333.049C588.47 333.284 588.273 333.459 588.041 333.459ZM404.699 337.756H404.696C403.019 337.748 401.436 336.923 400.465 335.55C400.321 335.345 400.369 335.062 400.573 334.918C400.779 334.77 401.062 334.822 401.206 335.025C402.008 336.16 403.315 336.842 404.701 336.849C404.953 336.85 405.154 337.055 405.153 337.305C405.152 337.555 404.949 337.756 404.699 337.756ZM413.754 337.756H409.226C408.975 337.756 408.772 337.554 408.772 337.303C408.772 337.052 408.975 336.849 409.226 336.849H413.754C414.005 336.849 414.207 337.052 414.207 337.303C414.207 337.554 414.005 337.756 413.754 337.756ZM422.808 337.756H418.281C418.03 337.756 417.827 337.554 417.827 337.303C417.827 337.052 418.03 336.849 418.281 336.849H422.808C423.059 336.849 423.262 337.052 423.262 337.303C423.262 337.554 423.059 337.756 422.808 337.756ZM431.863 337.756H427.336C427.084 337.756 426.882 337.554 426.882 337.303C426.882 337.052 427.084 336.849 427.336 336.849H431.863C432.113 336.849 432.317 337.052 432.317 337.303C432.317 337.554 432.113 337.756 431.863 337.756ZM440.918 337.756H436.39C436.139 337.756 435.936 337.554 435.936 337.303C435.936 337.052 436.139 336.849 436.39 336.849H440.918C441.168 336.849 441.371 337.052 441.371 337.303C441.371 337.554 441.168 337.756 440.918 337.756ZM449.972 337.756H445.445C445.194 337.756 444.99 337.554 444.99 337.303C444.99 337.052 445.194 336.849 445.445 336.849H449.972C450.223 336.849 450.425 337.052 450.425 337.303C450.425 337.554 450.223 337.756 449.972 337.756ZM459.027 337.756H454.5C454.248 337.756 454.045 337.554 454.045 337.303C454.045 337.052 454.248 336.849 454.5 336.849H459.027C459.277 336.849 459.48 337.052 459.48 337.303C459.48 337.554 459.277 337.756 459.027 337.756ZM468.082 337.756H463.554C463.303 337.756 463.1 337.554 463.1 337.303C463.1 337.052 463.303 336.849 463.554 336.849H468.082C468.332 336.849 468.535 337.052 468.535 337.303C468.535 337.554 468.332 337.756 468.082 337.756ZM477.136 337.756H472.609C472.358 337.756 472.154 337.554 472.154 337.303C472.154 337.052 472.358 336.849 472.609 336.849H477.136C477.386 336.849 477.589 337.052 477.589 337.303C477.589 337.554 477.386 337.756 477.136 337.756ZM486.19 337.756H481.663C481.413 337.756 481.209 337.554 481.209 337.303C481.209 337.052 481.413 336.849 481.663 336.849H486.19C486.441 336.849 486.644 337.052 486.644 337.303C486.644 337.554 486.441 337.756 486.19 337.756ZM495.245 337.756H490.717C490.467 337.756 490.264 337.554 490.264 337.303C490.264 337.052 490.467 336.849 490.717 336.849H495.245C495.495 336.849 495.699 337.052 495.699 337.303C495.699 337.554 495.495 337.756 495.245 337.756ZM504.299 337.756H499.772C499.521 337.756 499.319 337.554 499.319 337.303C499.319 337.052 499.521 336.849 499.772 336.849H504.299C504.55 336.849 504.753 337.052 504.753 337.303C504.753 337.554 504.55 337.756 504.299 337.756ZM513.353 337.756H508.827C508.576 337.756 508.373 337.554 508.373 337.303C508.373 337.052 508.576 336.849 508.827 336.849H513.353C513.605 336.849 513.808 337.052 513.808 337.303C513.808 337.554 513.605 337.756 513.353 337.756ZM522.408 337.756H517.882C517.631 337.756 517.428 337.554 517.428 337.303C517.428 337.052 517.631 336.849 517.882 336.849H522.408C522.659 336.849 522.863 337.052 522.863 337.303C522.863 337.554 522.659 337.756 522.408 337.756ZM531.463 337.756H526.935C526.685 337.756 526.483 337.554 526.483 337.303C526.483 337.052 526.685 336.849 526.935 336.849H531.463C531.714 336.849 531.917 337.052 531.917 337.303C531.917 337.554 531.714 337.756 531.463 337.756ZM540.518 337.756H535.99C535.741 337.756 535.535 337.554 535.535 337.303C535.535 337.052 535.741 336.849 535.99 336.849H540.518C540.769 336.849 540.971 337.052 540.971 337.303C540.971 337.554 540.769 337.756 540.518 337.756ZM549.572 337.756H545.045C544.795 337.756 544.591 337.554 544.591 337.303C544.591 337.052 544.795 336.849 545.045 336.849H549.572C549.824 336.849 550.027 337.052 550.027 337.303C550.027 337.554 549.824 337.756 549.572 337.756ZM558.627 337.756H554.1C553.848 337.756 553.646 337.554 553.646 337.303C553.646 337.052 553.848 336.849 554.1 336.849H558.627C558.878 336.849 559.081 337.052 559.081 337.303C559.081 337.554 558.878 337.756 558.627 337.756ZM567.682 337.756H563.155C562.903 337.756 562.7 337.554 562.7 337.303C562.7 337.052 562.903 336.849 563.155 336.849H567.682C567.933 336.849 568.136 337.052 568.136 337.303C568.136 337.554 567.933 337.756 567.682 337.756ZM576.736 337.756H572.209C571.958 337.756 571.755 337.554 571.755 337.303C571.755 337.052 571.958 336.849 572.209 336.849H576.736C576.988 336.849 577.19 337.052 577.19 337.303C577.19 337.554 576.988 337.756 576.736 337.756ZM583.3 337.756H581.264C581.012 337.756 580.809 337.554 580.809 337.303C580.809 337.052 581.012 336.849 581.264 336.849H583.3C584.057 336.849 584.801 336.65 585.451 336.276C585.667 336.148 585.945 336.224 586.071 336.44C586.197 336.659 586.122 336.936 585.905 337.061C585.116 337.517 584.215 337.756 583.3 337.756Z" fill="#F0E4F0"/>
<path d="M773.45 305.929H768.915C768.108 305.929 767.452 305.273 767.452 304.463V299.932C767.452 299.122 766.796 298.465 765.982 298.465H762.576C761.771 298.465 761.114 299.122 761.114 299.932V304.463C761.114 305.273 760.45 305.929 759.643 305.929H755.108C754.302 305.929 753.646 306.586 753.646 307.396V310.803C753.646 311.614 754.302 312.27 755.108 312.27H759.643C760.45 312.27 761.114 312.926 761.114 313.737V318.268C761.114 319.077 761.771 319.734 762.576 319.734H765.982C766.796 319.734 767.452 319.077 767.452 318.268V313.737C767.452 312.926 768.108 312.27 768.915 312.27H773.45C774.256 312.27 774.912 311.614 774.912 310.803V307.396C774.912 306.586 774.256 305.929 773.45 305.929Z" fill="#E4EFFF"/>
<path d="M658.264 305.929H653.733C652.922 305.929 652.266 305.273 652.266 304.463V299.932C652.266 299.122 651.61 298.465 650.8 298.465H647.392C646.581 298.465 645.926 299.122 645.926 299.932V304.463C645.926 305.273 645.269 305.929 644.459 305.929H639.927C639.118 305.929 638.461 306.586 638.461 307.396V310.803C638.461 311.614 639.118 312.27 639.927 312.27H644.459C645.269 312.27 645.926 312.926 645.926 313.737V318.268C645.926 319.077 646.581 319.734 647.392 319.734H650.8C651.61 319.734 652.266 319.077 652.266 318.268V313.737C652.266 312.926 652.922 312.27 653.733 312.27H658.264C659.074 312.27 659.731 311.614 659.731 310.803V307.396C659.731 306.586 659.074 305.929 658.264 305.929Z" fill="#E4EFFF"/>
<path d="M863.055 350.632H727.177C723.182 350.632 719.942 347.388 719.942 343.39V318.064C719.942 314.064 723.182 310.822 727.177 310.822H863.055C867.059 310.822 870.299 314.064 870.299 318.064V343.39C870.299 347.388 867.059 350.632 863.055 350.632Z" fill="#17B6FF"/>
<path d="M851.686 320.431H738.544V323.146H851.686V320.431Z" fill="white"/>
<path d="M851.686 329.218H738.544V331.933H851.686V329.218Z" fill="white"/>
<path d="M813.972 338.005H738.544V340.72H813.972V338.005Z" fill="white"/>
<path d="M761.202 268.533H653.458C651.051 268.533 649.101 266.582 649.101 264.176V74.0996C649.101 71.6927 651.051 69.7424 653.458 69.7424H761.202C763.611 69.7424 765.563 71.6927 765.563 74.0996V264.176C765.563 266.582 763.611 268.533 761.202 268.533Z" fill="#F5F5F5"/>
<path fill-rule="evenodd" clip-rule="evenodd" d="M738.129 175.966L733.053 170.882C745.979 157.95 745.979 136.908 733.053 123.976L738.129 118.892C753.87 134.627 753.87 160.23 738.129 175.966Z" fill="url(#paint7_linear)"/>
<path fill-rule="evenodd" clip-rule="evenodd" d="M687.733 125.647L679.442 117.354C696.056 100.734 723.104 100.734 739.726 117.354L731.427 125.647C719.382 113.601 699.777 113.601 687.733 125.647Z" fill="url(#paint8_linear)"/>
<path fill-rule="evenodd" clip-rule="evenodd" d="M677.809 179.092C660.308 161.587 660.308 133.102 677.809 115.597L689.315 127.102C678.159 138.264 678.159 156.425 689.315 167.588C700.479 178.749 718.639 178.749 729.804 167.588L741.308 179.092C723.806 196.598 695.321 196.598 677.809 179.092Z" fill="url(#paint9_linear)"/>
<path fill-rule="evenodd" clip-rule="evenodd" d="M691.665 213.745H669.001C666.617 213.745 664.683 211.812 664.683 209.427C664.683 207.042 666.617 205.109 669.001 205.109H691.665C694.049 205.109 695.985 207.042 695.985 209.427C695.985 211.812 694.049 213.745 691.665 213.745Z" fill="url(#paint10_linear)"/>
<path fill-rule="evenodd" clip-rule="evenodd" d="M710.164 228.296H669.001C666.617 228.296 664.683 226.363 664.683 223.979C664.683 221.594 666.617 219.662 669.001 219.662H710.164C712.557 219.662 714.484 221.594 714.484 223.979C714.484 226.363 712.557 228.296 710.164 228.296Z" fill="url(#paint11_linear)"/>
<path fill-rule="evenodd" clip-rule="evenodd" d="M722.958 242.849H669.001C666.617 242.849 664.683 240.916 664.683 238.533C664.683 236.148 666.617 234.215 669.001 234.215H722.958C725.342 234.215 727.277 236.148 727.277 238.533C727.277 240.916 725.342 242.849 722.958 242.849Z" fill="url(#paint12_linear)"/>
<path d="M305.786 363.214L303.67 369.001L300.882 370.698L299.701 367.551L301.45 362.167L305.786 363.214Z" fill="#FED3AC"/>
<path d="M303.931 367.348C303.129 367.819 301.206 368.341 299.826 367.193C299.64 367.038 299.359 367.106 299.281 367.337C298.987 368.206 297.616 370.149 297.716 372.643C297.734 373.086 298.102 373.436 298.544 373.436H312.771C313.395 373.436 313.798 372.773 313.505 372.221C313.037 371.337 311.922 370.167 309.284 369.418C306.431 368.608 305.261 367.892 304.782 367.453C304.548 367.238 304.207 367.187 303.931 367.348Z" fill="#514FA0"/>
<path d="M334.844 363.437L333.01 368.801L330.325 370.362L329.012 367.433L330.501 362.442L334.844 363.437Z" fill="#FED3AC"/>
<path d="M333.173 367.623C332.37 368.093 330.449 368.614 329.068 367.468C328.881 367.312 328.601 367.38 328.524 367.61C328.228 368.478 326.857 370.423 326.958 372.918C326.977 373.361 327.344 373.711 327.787 373.711H342.015C342.638 373.711 343.039 373.048 342.748 372.496C342.278 371.612 341.166 370.443 338.526 369.691C335.673 368.882 334.504 368.166 334.026 367.728C333.789 367.51 333.449 367.462 333.173 367.623Z" fill="#514FA0"/>
<path d="M313.906 276.499C313.906 276.499 310.918 283.513 310.608 310.308C310.369 331.023 300.662 362.656 300.662 362.656L306.772 364.353C306.772 364.353 325.058 327.452 326.914 298.801C326.914 298.801 335.123 312.662 334.504 328.895C333.909 344.506 328.746 363.79 328.746 363.79L335.658 364.33C335.658 364.33 348.185 335.036 345.059 312.775C345.059 312.775 343.999 297.111 339.867 287.071L313.906 276.499Z" fill="#5552A3"/>
<path d="M347.957 244.317C347.957 244.317 353.135 242.625 357.759 241.983C362.226 241.363 369.694 244.783 369.694 244.783C369.694 244.783 370.451 247.64 372.146 248.593C373.842 249.546 371.126 245.548 372.242 245.756C373.36 245.964 375.069 249.501 376.309 249.92C377.761 250.409 374.97 247.033 375.404 246.885C376.024 246.673 376.949 249.374 377.375 249.163C378.183 248.762 377.602 247.394 375.986 245.4C375.529 244.837 376.628 245.48 378.295 247.665C378.42 247.83 378.969 247.787 378.797 246.947C378.541 245.702 376.292 243.784 376.044 243.612C376.044 243.612 377.7 244.093 378.595 245.189C378.595 245.189 379.411 245.028 377.309 242.898C375.207 240.767 371.247 240.86 371.247 240.86C371.247 240.86 360.908 235.676 357.193 236.169C351.684 236.506 346.791 237.757 346.791 237.757L347.957 244.317Z" fill="#FED3AC"/>
<path d="M349.5 244.822L348.467 236.96C348.467 236.96 335.138 237.691 333.402 239.402C331.665 241.112 332.026 246.93 338.591 247.111C345.154 247.293 349.5 244.822 349.5 244.822Z" fill="#7BB3E1"/>
<path d="M337.525 238.333C326.502 238.333 317.925 256.337 314.429 267.968C312.318 275.322 311.439 281.206 311.439 281.206C321.52 286.192 341.466 287.03 341.466 287.03C342.086 275.893 343.096 265.289 343.096 265.289C349.211 251.212 344.308 240.756 342.745 240.837C337.815 241.092 338.529 238.333 337.525 238.333Z" fill="#7BB3E1"/>
<path d="M354.492 227.058C354.492 227.058 353.279 241.904 346.926 238.065L346.022 237.602C345.417 237.291 344.673 237.522 344.348 238.12L342.34 241.836C342.34 241.836 338.48 241.338 337.112 239.314L339.561 234.938C339.699 234.69 339.722 234.397 339.624 234.131C339.381 233.474 339.556 232.309 339.32 231.242C339.32 231.242 337.429 229.385 338.574 225.478C339.718 221.571 342.525 216.47 347.046 217.275C351.568 218.081 355.165 219.612 354.492 227.058Z" fill="#FED3AC"/>
<path d="M338.571 218.284C339.515 217.476 340.787 216.834 342.176 217.357C344.172 214.934 349.607 210.476 361.188 224.513V224.514C361.18 224.523 356.894 229.4 351.568 227.083C350.706 228.484 349.168 230.69 348.592 229.97C348.038 229.274 346.145 227.967 345.005 230.328C343.864 232.689 346.369 234.263 346.369 234.263C346.369 234.263 344.903 237.711 340.277 234.768C339.55 234.306 339.048 233.663 338.716 232.911C337.263 230.82 335.46 227.06 336.422 222.124C336.71 220.641 337.422 219.264 338.571 218.284Z" fill="#5552A3"/>
<path d="M349.232 253.435C349.232 253.435 351.104 258.048 354.528 260.982C357.954 263.918 366.157 267.085 366.157 267.085C366.157 267.085 368.576 265.388 370.486 265.752C372.397 266.114 367.744 267.422 368.731 267.984C369.72 268.545 373.305 266.94 374.525 267.419C375.949 267.979 371.64 268.763 371.876 269.157C372.215 269.718 374.663 268.249 374.851 268.684C375.21 269.513 373.884 270.184 371.365 270.668C370.653 270.804 371.907 271.019 374.589 270.423C374.792 270.377 375.184 270.765 374.51 271.295C373.512 272.082 370.558 272.1 370.256 272.071C370.256 272.071 371.834 272.772 373.224 272.51C373.224 272.51 373.744 273.159 370.766 273.433C367.785 273.708 364.816 271.086 364.816 271.086C364.816 271.086 352.585 268.597 350.063 265.825C346.066 262.019 344.114 257.7 344.114 257.7L349.232 253.435Z" fill="#FED3AC"/>
<path d="M336.735 245.124C335.299 247.09 335.429 249.793 337.045 251.614L344.696 260.228C345.987 259.403 349.773 254.096 349.773 254.096L346.507 247.65C346.215 247.076 345.853 246.397 345.446 245.667C343.602 242.365 338.965 242.069 336.735 245.124Z" fill="#7BB3E1"/>
<path d="M419.327 327.021H403.766V336.071H419.327V327.021Z" fill="#D54851"/>
<path d="M439.098 319.333H423.536V335.934H439.098V319.333Z" fill="#D54851"/>
<path d="M458.317 311.92H442.756V336.124H458.317V311.92Z" fill="#D54851"/>
<path d="M478.086 305.33H462.526V336.012H478.086V305.33Z" fill="#D54851"/>
<path d="M563.549 327.021H547.988V336.071H563.549V327.021Z" fill="#5552A3"/>
<path d="M543.781 319.333H528.218V335.934H543.781V319.333Z" fill="#5552A3"/>
<path d="M524.559 311.92H508.998V336.124H524.559V311.92Z" fill="#5552A3"/>
<path d="M504.789 305.33H489.228V336.012H504.789V305.33Z" fill="#5552A3"/>
<path d="M0.123279 71.6988H106.817C106.817 64.6416 101.686 58.6797 94.643 56.7456C92.7402 48.9811 85.198 43.1637 76.142 43.0617C71.2826 34.4473 61.4435 28.5562 50.0958 28.5562C35.6034 28.5562 23.5716 38.1659 21.2333 50.7838C21.0959 50.7818 20.9595 50.7747 20.821 50.7747C9.32172 50.7747 0 59.2809 0 69.7728C0 70.4235 0.0363774 71.0662 0.106101 71.6998C0.116206 71.6988 0.123279 71.6988 0.123279 71.6988Z" fill="#E4F6FF"/>
<path d="M1017.84 50.282H1124.54C1124.54 43.2248 1119.41 37.263 1112.36 35.3289C1110.46 27.5643 1102.92 21.747 1093.86 21.6449C1089 13.0305 1079.16 7.1394 1067.81 7.1394C1053.32 7.1394 1041.29 16.7501 1038.95 29.367C1038.82 29.365 1038.68 29.3579 1038.54 29.3579C1027.04 29.3579 1017.72 37.8642 1017.72 48.356C1017.72 49.0068 1017.76 49.6495 1017.82 50.283C1017.84 50.282 1017.84 50.282 1017.84 50.282Z" fill="#E4F6FF"/>
<path d="M611.112 341.575L616.99 363.315L607.614 366.613L598.579 345.986L611.112 341.575Z" fill="#FED3AC"/>
<path d="M574.497 345.986L565.463 366.613L556.088 363.315L561.967 341.575L574.497 345.986Z" fill="#FED3AC"/>
<path d="M579.709 328.67C579.709 328.67 565.367 329.13 560.344 344.918C560.344 344.918 565.24 348.832 573.98 349.29L579.709 328.67Z" fill="#1A93E5"/>
<path d="M593.499 328.67C593.499 328.67 607.841 329.13 612.865 344.918C612.865 344.918 607.967 348.832 599.225 349.29L593.499 328.67Z" fill="#1A93E5"/>
<path d="M586.65 326.748C561.798 327.946 568.42 383.258 568.42 383.258C575.139 386.685 586.65 386.685 586.65 386.685C586.65 386.685 598.162 386.685 604.882 383.258C604.882 383.258 611.504 327.946 586.65 326.748Z" fill="#48A9F9"/>
<path d="M605.688 392.488L602.948 398.824C602.948 398.824 553.627 403.487 543.581 383.147C533.532 362.805 570.98 376.961 577.374 379.244C583.767 381.53 605.688 392.488 605.688 392.488Z" fill="#4F4C86"/>
<path d="M605.655 392.372C605.655 392.372 611.049 393.444 613.715 395.422C616.378 397.4 617.145 398.801 616.73 399.836C616.263 401.012 608.442 402.119 603.04 398.769L605.655 392.372Z" fill="#1A167B"/>
<path d="M571.121 392.488L573.861 398.824C573.861 398.824 623.182 403.487 633.231 383.147C643.278 362.805 605.829 376.961 599.435 379.244C593.042 381.53 571.121 392.488 571.121 392.488Z" fill="#5552A3"/>
<path d="M588.813 325.101H584.448L583.408 331.774C584.344 332.755 586.63 332.755 586.63 332.755C586.63 332.755 588.917 332.755 589.851 331.774L588.813 325.101Z" fill="#FFCFA4"/>
<path d="M590.375 313.293L582.694 315.145C582.694 315.145 580.379 322.053 581.17 324.887C582.272 328.83 585.611 329.028 586.689 328.983C587.769 329.028 591.108 328.83 592.206 324.887C593 322.053 590.375 313.293 590.375 313.293Z" fill="#FED3AC"/>
<path d="M579.035 319.949C579.65 321.029 581.021 321.409 582.101 320.794C583.182 320.18 583.559 318.807 582.946 317.728C582.331 316.648 580.96 316.268 579.879 316.883C578.799 317.498 578.42 318.869 579.035 319.949Z" fill="#FFCFA4"/>
<path d="M590.361 319.949C590.973 321.029 592.347 321.409 593.428 320.794C594.508 320.18 594.885 318.807 594.272 317.728C593.657 316.648 592.284 316.268 591.205 316.883C590.126 317.498 589.746 318.869 590.361 319.949Z" fill="#FFCFA4"/>
<path d="M581.398 319.885C581.398 319.885 582.344 315.891 583.999 315.947C585.654 316.003 588.052 314.404 588.052 314.404C588.052 314.404 591.105 316.747 591.915 319.885C591.915 319.885 592.609 315.575 592.383 313.891C592.18 312.405 590.677 310.125 588.795 310.98C588.795 310.98 584.855 308.697 582.23 311.095C579.604 313.493 581.398 319.885 581.398 319.885Z" fill="black"/>
<path d="M563.643 358.312C565.605 358.9 567.548 359.577 569.484 360.287C570.451 360.638 571.416 361.015 572.381 361.38C573.341 361.763 574.306 362.135 575.266 362.525C577.183 363.308 579.1 364.105 581.004 364.949C582.907 365.789 584.807 366.655 586.687 367.604C587.89 368.211 588.371 369.679 587.764 370.882C587.34 371.724 586.489 372.214 585.607 372.221C583.503 372.24 581.415 372.176 579.336 372.085C577.255 371.997 575.187 371.863 573.117 371.714C572.085 371.641 571.056 371.548 570.024 371.465C568.997 371.363 567.968 371.275 566.944 371.158C564.894 370.939 562.852 370.684 560.831 370.342C557.462 369.769 555.192 366.575 555.764 363.206C556.336 359.835 559.531 357.566 562.902 358.138C563.143 358.178 563.412 358.245 563.643 358.312Z" fill="#FED3AC"/>
<path d="M612.449 370.343C610.602 370.666 608.732 370.904 606.853 371.107C605.917 371.214 604.974 371.295 604.033 371.388C603.087 371.46 602.143 371.545 601.196 371.612C599.3 371.743 597.403 371.86 595.494 371.93C593.582 372.005 591.668 372.056 589.733 372.021C588.377 371.997 587.3 370.877 587.321 369.524C587.34 368.613 587.854 367.827 588.596 367.415C590.294 366.485 592.014 365.637 593.741 364.816C595.465 363.993 597.2 363.215 598.938 362.451C599.809 362.069 600.683 361.705 601.555 361.33C602.429 360.975 603.303 360.609 604.182 360.269C605.939 359.574 607.704 358.916 609.492 358.344C612.748 357.304 616.234 359.104 617.274 362.363C618.312 365.619 616.515 369.102 613.256 370.142C613 370.224 612.708 370.294 612.449 370.343Z" fill="#FED3AC"/>
<path d="M571.251 392.372C571.251 392.372 565.854 393.444 563.192 395.422C560.526 397.4 559.762 398.801 560.173 399.836C560.641 401.012 568.46 402.119 573.867 398.769L571.251 392.372Z" fill="#1A167B"/>
<path d="M611.477 373.671H563.982V346.724C563.982 345.551 564.934 344.596 566.11 344.596H609.349C610.522 344.596 611.477 345.551 611.477 346.724V373.671Z" fill="#F9CA24"/>
<path d="M564.825 372.847H610.721V346.698C610.721 345.966 610.125 345.369 609.393 345.369H566.154C565.421 345.369 564.825 345.966 564.825 346.698V372.847ZM612.32 374.445H563.227V346.698C563.227 345.083 564.539 343.771 566.154 343.771H609.393C611.007 343.771 612.32 345.083 612.32 346.698V374.445Z" fill="black"/>
<path d="M610.999 376.897H564.472C563.783 376.897 563.227 376.338 563.227 375.652V373.7H612.245V375.652C612.245 376.338 611.69 376.897 610.999 376.897Z" fill="black"/>
<path d="M590.803 359.172C590.803 360.854 589.439 362.218 587.758 362.218C586.077 362.218 584.712 360.854 584.712 359.172C584.712 357.491 586.077 356.128 587.758 356.128C589.439 356.128 590.803 357.491 590.803 359.172Z" fill="black"/>
<path d="M893.612 360.274L894.874 365.256L897.182 366.865L898.588 364.315L897.612 359.696L893.612 360.274Z" fill="#FED3AC"/>
<path d="M894.889 364.863C895.706 365.068 897.513 365.033 898.424 363.683C898.545 363.502 898.811 363.489 898.932 363.67C899.413 364.35 900.366 365.907 900.91 368.104C901.011 368.494 900.781 368.891 900.394 369.005C898.208 369.644 891.268 371.669 888.745 372.407C888.201 372.567 887.684 372.092 887.791 371.537C887.977 370.649 888.652 369.348 890.76 368.023C893.033 366.594 893.871 365.674 894.173 365.17C894.323 364.922 894.609 364.792 894.889 364.863Z" fill="#514FA0"/>
<path d="M870.891 286.029L887.931 279.519L889.558 298.496C889.558 298.496 889.487 314.133 898.418 360.181C898.455 360.381 898.369 360.588 898.204 360.703L897.508 361.163C896.548 361.806 895.436 362.175 894.282 362.228L893.444 362.269C893.214 362.278 893.006 362.137 892.934 361.919C891.372 357.122 874.926 306.491 870.891 286.029Z" fill="#5552A3"/>
<path fill-rule="evenodd" clip-rule="evenodd" d="M862.165 221.506L863.377 217.83C863.377 217.83 864.459 215.891 861.513 214.549C858.566 213.207 861.226 215.786 861.197 216.827C861.162 217.866 859.8 218.14 859.42 219.364C859.04 220.588 859.613 222.584 859.613 222.584L862.165 221.506Z" fill="url(#paint13_linear)"/>
<path d="M880.26 244.449C880.26 244.449 863.952 242.889 862.611 221.542L859.084 221.309C859.084 221.309 855.005 237.779 870.604 250.842C872.418 252.36 874.676 253.282 877.042 253.377C878.661 253.441 880.389 253.121 881.615 251.857C884.024 249.375 882.762 245.121 880.26 244.449Z" fill="#FAC23F"/>
<path d="M863.733 362.168L863.546 367.304L865.309 369.497L867.374 367.442L867.732 362.734L863.733 362.168Z" fill="#FED3AC"/>
<path d="M863.663 366.777C864.394 367.204 866.136 367.676 867.391 366.636C867.555 366.496 867.813 366.558 867.878 366.766C868.151 367.553 868.631 369.315 868.538 371.578C868.523 371.979 868.186 372.296 867.785 372.296H855.648C855.082 372.296 854.723 371.695 854.982 371.195C855.411 370.393 856.423 369.333 858.81 368.652C861.398 367.918 862.459 367.27 862.896 366.872C863.103 366.676 863.411 366.63 863.663 366.777Z" fill="#514FA0"/>
<path fill-rule="evenodd" clip-rule="evenodd" d="M874.868 229.264C874.868 229.264 868.458 237.522 871.011 239.071C873.57 240.62 876.501 240.798 876.501 240.798L876.165 244.225L880.287 246.743L881.011 241.651C881.011 241.651 887.885 238.036 886.781 234.62C885.685 231.203 875.756 228.045 874.868 229.264Z" fill="url(#paint14_linear)"/>
<path d="M874.617 221.034C874.617 221.034 871.09 227.269 875.262 230.129C879.434 232.989 881.383 232.002 881.383 232.002C881.383 232.002 880.752 234.61 880.962 235.873C880.962 235.873 883.162 233.846 884.152 235.6C885.14 237.356 883.011 240.399 881.463 239.701L880.724 243.153C880.724 243.153 887.327 242.163 889.685 236.885C892.051 231.606 888.251 229.803 888.251 229.803C888.251 229.803 887.993 225.081 882.982 224.376C877.979 223.671 874.617 221.034 874.617 221.034Z" fill="#5552A3"/>
<path d="M865.386 284.542L883.601 283.639L879.256 302.184C879.256 302.184 874.339 317.03 868.54 363.573C868.511 363.776 868.367 363.947 868.167 364.002L867.371 364.227C866.261 364.54 865.084 364.543 863.966 364.236L863.163 364.013C862.941 363.953 862.791 363.755 862.791 363.525C862.791 358.48 862.869 305.246 865.386 284.542Z" fill="#5552A3"/>
<path d="M870.389 247.779C866.777 254.822 865.012 265.696 864.095 287.165C864.095 287.165 876.885 294.072 889.673 287.531C889.673 287.531 889.05 262.902 884.848 249.095C882.805 242.39 873.593 241.544 870.389 247.779Z" fill="#FAC23F"/>
<path fill-rule="evenodd" clip-rule="evenodd" d="M853.19 222.387L854.287 218.27C854.287 218.27 855.356 216.075 852.033 214.788C848.712 213.502 851.794 216.164 851.828 217.309C851.862 218.453 850.377 218.84 850.04 220.208C849.704 221.578 850.462 223.734 850.462 223.734L853.19 222.387Z" fill="url(#paint15_linear)"/>
<path d="M874.47 245.646C874.47 245.646 856.455 244.973 853.62 221.615L849.736 221.583C849.736 221.583 846.304 239.931 864.27 253.283C866.355 254.835 868.9 255.703 871.495 255.656C873.28 255.624 875.166 255.163 876.427 253.695C878.906 250.818 877.258 246.225 874.47 245.646Z" fill="#FAC23F"/>
<defs>
<linearGradient id="paint0_linear" x1="1064.72" y1="308.995" x2="1031.48" y2="333.924" gradientUnits="userSpaceOnUse">
<stop stop-color="#6493CD"/>
<stop offset="1" stop-color="#356AB3"/>
</linearGradient>
<linearGradient id="paint1_linear" x1="1015.94" y1="329.909" x2="1010.67" y2="379.364" gradientUnits="userSpaceOnUse">
<stop stop-color="#F2BD39"/>
<stop offset="1" stop-color="#FBAC18"/>
</linearGradient>
<linearGradient id="paint2_linear" x1="103.303" y1="304.925" x2="136.542" y2="279.996" gradientUnits="userSpaceOnUse">
<stop stop-color="#6493CD"/>
<stop offset="1" stop-color="#356AB3"/>
</linearGradient>
<linearGradient id="paint3_linear" x1="152.045" y1="325.839" x2="157.306" y2="276.385" gradientUnits="userSpaceOnUse">
<stop stop-color="#F2BD39"/>
<stop offset="1" stop-color="#FBAC18"/>
</linearGradient>
<linearGradient id="paint4_linear" x1="493" y1="43" x2="760" y2="144.5" gradientUnits="userSpaceOnUse">
<stop stop-color="#10A8EF"/>
<stop offset="1" stop-color="#2BBCFF"/>
</linearGradient>
<linearGradient id="paint5_linear" x1="523.386" y1="163.799" x2="523.386" y2="240.773" gradientUnits="userSpaceOnUse">
<stop stop-color="#6493CD"/>
<stop offset="1" stop-color="#356AB3"/>
</linearGradient>
<linearGradient id="paint6_linear" x1="523.386" y1="210.738" x2="523.386" y2="290.098" gradientUnits="userSpaceOnUse">
<stop stop-color="#FBAC18"/>
<stop offset="1" stop-color="#F15F22"/>
</linearGradient>
<linearGradient id="paint7_linear" x1="745.098" y1="184.433" x2="734.391" y2="105.341" gradientUnits="userSpaceOnUse">
<stop stop-color="#E64D4E"/>
<stop offset="1" stop-color="#4E2466"/>
</linearGradient>
<linearGradient id="paint8_linear" x1="724.649" y1="102.283" x2="694.507" y2="132.425" gradientUnits="userSpaceOnUse">
<stop stop-color="#FBAC18"/>
<stop offset="1" stop-color="#F15F22"/>
</linearGradient>
<linearGradient id="paint9_linear" x1="709.643" y1="193.083" x2="701.354" y2="159.236" gradientUnits="userSpaceOnUse">
<stop stop-color="#6493CD"/>
<stop offset="1" stop-color="#356AB3"/>
</linearGradient>
<linearGradient id="paint10_linear" x1="671.883" y1="204.227" x2="691.997" y2="216.605" gradientUnits="userSpaceOnUse">
<stop stop-color="#E64D4E"/>
<stop offset="1" stop-color="#4E2466"/>
</linearGradient>
<linearGradient id="paint11_linear" x1="682.295" y1="218.509" x2="701.428" y2="232.859" gradientUnits="userSpaceOnUse">
<stop stop-color="#FBAC18"/>
<stop offset="1" stop-color="#F15F22"/>
</linearGradient>
<linearGradient id="paint12_linear" x1="686.871" y1="233.127" x2="716.576" y2="250.754" gradientUnits="userSpaceOnUse">
<stop stop-color="#6493CD"/>
<stop offset="1" stop-color="#356AB3"/>
</linearGradient>
<linearGradient id="paint13_linear" x1="860.846" y1="214.318" x2="861.589" y2="220.03" gradientUnits="userSpaceOnUse">
<stop stop-color="#FFE4B9"/>
<stop offset="1" stop-color="#FCD1BA"/>
</linearGradient>
<linearGradient id="paint14_linear" x1="873.168" y1="230.976" x2="884.654" y2="242.32" gradientUnits="userSpaceOnUse">
<stop stop-color="#FFE4B9"/>
<stop offset="1" stop-color="#FCD1BA"/>
</linearGradient>
<linearGradient id="paint15_linear" x1="851.284" y1="214.576" x2="852.465" y2="220.802" gradientUnits="userSpaceOnUse">
<stop stop-color="#FFE4B9"/>
<stop offset="1" stop-color="#FCD1BA"/>
</linearGradient>
</defs>
</svg>
