<svg width="206" height="181" viewBox="0 0 206 181" fill="none" xmlns="http://www.w3.org/2000/svg">
<path fill-rule="evenodd" clip-rule="evenodd" d="M44.8762 65.4591C17.3538 96.3339 -1.41432 139.687 30.4067 163.709C65.9446 190.527 136.743 181.238 171.417 126.697C193.58 91.8558 203.926 37.7303 176.752 8.64806C153.487 -16.2534 78.6414 27.5754 44.8762 65.4591Z" fill="#11A8F0"/>
<path d="M92.8141 107.118H78.8003V139.933H92.8141V107.118Z" fill="#FF6A48"/>
<path d="M92.8117 143.254H78.7979C76.9643 143.254 75.4775 141.768 75.4775 139.934V107.12C75.4775 105.286 76.9647 103.8 78.7979 103.8H92.8117C94.6453 103.8 96.132 105.286 96.132 107.12V139.934C96.132 141.768 94.6448 143.254 92.8117 143.254ZM82.1182 136.614H89.4913V110.44H82.1182V136.614Z" fill="#4E3699"/>
<path d="M149.647 94.1414H135.633V139.936H149.647V94.1414Z" fill="#FF6A48"/>
<path d="M149.647 143.255H135.633C133.8 143.255 132.313 141.768 132.313 139.934V94.1414C132.313 92.3078 133.8 90.8215 135.633 90.8215H149.647C151.481 90.8215 152.967 92.3082 152.967 94.1414V139.934C152.967 141.768 151.48 143.255 149.647 143.255ZM138.954 136.614H146.327V97.4622H138.954V136.614Z" fill="#4E3699"/>
<path d="M121.228 75.4981H107.215V139.936H121.228V75.4981Z" fill="#FFB829"/>
<path d="M121.229 143.255H107.215C105.382 143.255 103.896 141.768 103.896 139.934V75.4977C103.896 73.6641 105.382 72.1774 107.215 72.1774H121.229C123.063 72.1774 124.55 73.6641 124.55 75.4977V139.934C124.55 141.768 123.063 143.255 121.229 143.255ZM110.536 136.614H117.909V78.8181H110.536V136.614V136.614Z" fill="#4E3699"/>
<path d="M178.066 61.7756H164.052V139.936H178.066V61.7756Z" fill="#FFB829"/>
<path d="M178.064 143.255H164.051C162.217 143.255 160.73 141.768 160.73 139.934V61.7751C160.73 59.9415 162.217 58.4548 164.051 58.4548H178.064C179.898 58.4548 181.385 59.9415 181.385 61.7751V139.934C181.385 141.768 179.898 143.255 178.064 143.255ZM167.371 136.614H174.745V65.0955H167.371V136.614Z" fill="#4E3699"/>
<path d="M201.03 144.085H34.4748C32.1825 144.085 30.3247 142.227 30.3247 139.934V15.8981C30.3247 13.6058 32.1825 11.748 34.4748 11.748C36.7676 11.748 38.6253 13.6062 38.6253 15.8981V135.784H201.03C203.323 135.784 205.181 137.641 205.181 139.934C205.181 142.227 203.323 144.085 201.03 144.085Z" fill="#4E3699"/>
<path d="M34.1985 150.496C51.2526 150.496 65.0776 136.671 65.0776 119.617C65.0776 102.563 51.2526 88.7383 34.1985 88.7383C17.1445 88.7383 3.31946 102.563 3.31946 119.617C3.31946 136.671 17.1445 150.496 34.1985 150.496Z" fill="#80C9FF"/>
<path d="M34.1994 153.816C15.3417 153.816 0 138.475 0 119.617C0 100.76 15.3417 85.418 34.1994 85.418C53.0567 85.418 68.398 100.76 68.398 119.617C68.3984 138.475 53.0567 153.816 34.1994 153.816ZM34.1994 92.0582C19.0033 92.0582 6.64069 104.421 6.64069 119.617C6.64069 134.813 19.0028 147.176 34.1994 147.176C49.3947 147.176 61.7577 134.813 61.7577 119.617C61.7577 104.421 49.3951 92.0582 34.1994 92.0582Z" fill="#4E3699"/>
<path d="M45.9146 121.709C45.359 120.634 44.5866 119.745 43.5964 119.042C42.6052 118.34 41.4045 117.743 39.9918 117.251C38.5801 116.759 37.0026 116.31 35.2602 115.902C33.8691 115.551 32.8718 115.284 32.2675 115.102C31.6636 114.919 31.0663 114.666 30.4759 114.343C29.8856 114.02 29.4225 113.633 29.0848 113.183C28.7476 112.734 28.5792 112.2 28.5792 111.582C28.5792 110.584 29.0743 109.73 30.0655 109.021C31.0557 108.312 32.3587 107.956 33.9748 107.956C35.7172 107.956 36.9816 108.283 37.7683 108.937C38.5556 109.589 39.2296 110.499 39.7919 111.666C40.2274 112.481 40.6308 113.067 41.0036 113.426C41.3759 113.785 41.9206 113.963 42.6372 113.963C43.4245 113.963 44.081 113.665 44.6081 113.068C45.1344 112.471 45.3984 111.8 45.3984 111.055C45.3984 110.24 45.1879 109.404 44.7665 108.547C44.345 107.689 43.6775 106.871 42.7644 106.091C41.8509 105.312 40.7023 104.686 39.3182 104.216C38.5775 103.964 37.7574 103.785 36.8697 103.667V101.021C36.8697 99.7015 35.7904 98.6217 34.4708 98.6217C33.1512 98.6217 32.0714 99.7015 32.0714 101.021V103.638C30.6483 103.797 29.3563 104.107 28.2003 104.574C26.4438 105.284 25.1023 106.299 24.1747 107.619C23.2472 108.94 22.7836 110.451 22.7836 112.151C22.7836 113.935 23.2226 115.429 24.1006 116.629C24.979 117.831 26.1662 118.779 27.663 119.475C29.159 120.17 31.0171 120.778 33.2376 121.298C34.8953 121.677 36.2202 122.036 37.2105 122.373C38.2016 122.71 39.009 123.199 39.6344 123.837C40.2594 124.477 40.5725 125.309 40.5725 126.335C40.5725 127.628 39.9927 128.706 38.8336 129.57C37.6736 130.435 36.1672 130.866 34.3125 130.866C32.9635 130.866 31.8745 130.652 31.0456 130.224C30.2163 129.795 29.5738 129.25 29.1168 128.59C28.6603 127.929 28.2353 127.108 27.8424 126.124C27.5192 125.295 27.1289 124.67 26.6723 124.248C26.2158 123.827 25.6575 123.616 24.997 123.616C24.1822 123.616 23.5107 123.887 22.9845 124.428C22.4573 124.969 22.1937 125.619 22.1937 126.377C22.1937 127.684 22.6327 129.03 23.5107 130.413C24.3892 131.798 25.5307 132.904 26.9363 133.733C28.3704 134.567 30.0883 135.094 32.0815 135.325C32.0802 135.358 32.0719 135.389 32.0719 135.424V138.096C32.0719 139.416 33.1516 140.496 34.4712 140.496C35.7909 140.496 36.8702 139.416 36.8702 138.096V135.424C36.8702 135.389 36.8614 135.356 36.8601 135.322C38.4214 135.136 39.83 134.764 41.079 134.197C42.9337 133.354 44.3419 132.188 45.3046 130.698C46.2668 129.209 46.7488 127.529 46.7488 125.661C46.7474 124.101 46.4694 122.784 45.9146 121.709Z" fill="#4E3699"/>
<path d="M183.247 11.5796C182.584 10.9156 181.629 10.6345 180.711 10.8306L159.843 15.3021C158.851 15.5144 158.056 16.2521 157.769 17.2239C157.482 18.1962 157.749 19.2474 158.466 19.9645L163.836 25.3347L133.753 55.4186L112.26 33.9252C110.639 32.3043 108.011 32.3043 106.39 33.9252L62.4195 77.8958C60.7986 79.5163 60.7986 82.1446 62.4195 83.765C63.23 84.5759 64.2922 84.9807 65.3544 84.9807C66.4162 84.9807 67.4788 84.5751 68.2893 83.765L109.325 42.7293L130.818 64.2228C131.597 65.0012 132.652 65.4384 133.753 65.4384C134.854 65.4384 135.909 65.0012 136.688 64.2228L169.706 31.2044L174.862 36.361C175.389 36.8872 176.096 37.1714 176.819 37.1714C177.08 37.1714 177.344 37.1346 177.602 37.0583C178.575 36.771 179.311 35.975 179.524 34.9843L183.995 14.1158C184.193 13.1984 183.911 12.2432 183.247 11.5796Z" fill="#4E3699"/>
<path d="M86.7097 149.857H71.8385C70.0049 149.857 68.5182 151.344 68.5182 153.177C68.5182 155.011 70.0053 156.497 71.8385 156.497H86.7097C88.5438 156.497 90.03 155.011 90.03 153.177C90.03 151.344 88.5433 149.857 86.7097 149.857Z" fill="white"/>
<path d="M103.537 149.857H98.0653C96.2316 149.857 94.7454 151.344 94.7454 153.177C94.7454 155.011 96.2321 156.497 98.0653 156.497H103.537C105.371 156.497 106.857 155.011 106.857 153.177C106.857 151.344 105.371 149.857 103.537 149.857Z" fill="white"/>
<path d="M158.406 149.857H115.531C113.697 149.857 112.211 151.344 112.211 153.177C112.211 155.011 113.698 156.497 115.531 156.497H158.406C160.24 156.497 161.726 155.011 161.726 153.177C161.726 151.344 160.24 149.857 158.406 149.857Z" fill="#4E3699"/>
</svg>
