<svg width="177" height="181" viewBox="0 0 177 181" fill="none" xmlns="http://www.w3.org/2000/svg">
<path fill-rule="evenodd" clip-rule="evenodd" d="M33.7263 66.4354C7.94364 95.3585 -9.63809 135.971 20.1715 158.474C53.463 183.598 119.786 174.896 152.268 123.802C173.03 91.1635 182.722 40.4594 157.266 13.2155C135.472 -10.1119 65.3571 30.9464 33.7263 66.4354Z" fill="#11A8F0"/>
<path d="M139.473 177.72H43.4284C41.8686 177.72 40.6044 176.456 40.6044 174.896V5.82398C40.6044 4.26423 41.8686 3 43.4284 3H139.474C141.033 3 142.298 4.26423 142.298 5.82398V174.896C142.298 174.896 142.298 174.896 142.298 174.896C142.297 176.456 141.033 177.72 139.473 177.72Z" fill="white" stroke="#4E3699" stroke-width="6"/>
<path d="M134.708 154.063V15.2211C134.708 13.782 133.542 12.6151 132.102 12.6151H50.7994C49.3604 12.6151 48.1935 13.7817 48.1935 15.2211V154.063C48.1935 155.502 49.36 156.669 50.7994 156.669H132.102C133.541 156.669 134.708 155.502 134.708 154.063Z" fill="#F2F2F2"/>
<path d="M132.102 12.6151H117.98C119.419 12.6151 120.586 13.7817 120.586 15.2211V154.063C120.586 155.502 119.419 156.669 117.98 156.669H132.102C133.541 156.669 134.708 155.503 134.708 154.063V15.2211C134.708 13.782 133.541 12.6151 132.102 12.6151Z" fill="#E6E6E6"/>
<path d="M91.4508 171.932C95.2677 171.932 98.3619 168.838 98.3619 165.021C98.3619 161.204 95.2677 158.109 91.4508 158.109C87.6339 158.109 84.5397 161.204 84.5397 165.021C84.5397 168.838 87.6339 171.932 91.4508 171.932Z" fill="#AFAFAF"/>
<path d="M132.102 12.6151H50.7994C49.3604 12.6151 48.1935 13.7817 48.1935 15.2211V25.5465H134.708V15.2211C134.708 13.782 133.541 12.6151 132.102 12.6151Z" fill="#80C9FF"/>
<path d="M134.695 14.9546C134.677 14.7795 134.642 14.6094 134.591 14.446C134.515 14.2014 134.404 13.9719 134.263 13.764C134.169 13.6253 134.063 13.4961 133.945 13.3782C133.886 13.3193 133.824 13.2632 133.76 13.2102C133.631 13.104 133.492 13.0101 133.345 12.9296C132.975 12.7291 132.552 12.6151 132.102 12.6151H117.98C119.419 12.6151 120.586 13.7817 120.586 15.2211V25.5465H134.709V15.2211C134.708 15.1311 134.704 15.0425 134.695 14.9546Z" fill="#10C4C4"/>
<path d="M65.8538 142.63H61.1308C60.062 142.63 59.1954 141.764 59.1954 140.695V114.466C59.1954 113.397 60.062 112.531 61.1308 112.531H65.8538C66.9226 112.531 67.7892 113.397 67.7892 114.466V140.695C67.7888 141.764 66.9226 142.63 65.8538 142.63Z" fill="#80C9FF"/>
<path d="M83.9865 142.63H79.2635C78.1947 142.63 77.3281 141.764 77.3281 140.695V122.998C77.3281 121.929 78.1947 121.063 79.2635 121.063H83.9865C85.0553 121.063 85.9219 121.929 85.9219 122.998V140.695C85.9219 141.764 85.0553 142.63 83.9865 142.63Z" fill="#FF6A48"/>
<path d="M102.119 142.63H97.3963C96.3275 142.63 95.4609 141.764 95.4609 140.695V115.71C95.4609 114.641 96.3275 113.775 97.3963 113.775H102.119C103.188 113.775 104.055 114.641 104.055 115.71V140.695C104.055 141.764 103.188 142.63 102.119 142.63Z" fill="#80C9FF"/>
<path d="M120.252 142.63H115.529C114.46 142.63 113.594 141.764 113.594 140.695V109.726C113.594 108.657 114.46 107.791 115.529 107.791H120.252C121.321 107.791 122.188 108.657 122.188 109.726V140.695C122.188 141.764 121.321 142.63 120.252 142.63Z" fill="#FF6A48"/>
<path d="M91.4509 40.6419V71.3788H122.188C122.188 54.4035 108.426 40.6419 91.4509 40.6419Z" fill="#FFB125"/>
<path d="M122.188 71.3787H91.4509L115.764 90.1824C119.79 84.9846 122.188 78.4621 122.188 71.3787Z" fill="#FF6D3A"/>
<path d="M91.4507 40.6419C74.4754 40.6419 60.7139 54.4031 60.7139 71.3788C60.7139 88.3541 74.4751 102.116 91.4507 102.116C101.343 102.116 110.139 97.4392 115.761 90.18L91.4507 71.3788V40.6419Z" fill="#FFB829"/>
</svg>
