<svg width="197" height="181" viewBox="0 0 197 181" fill="none" xmlns="http://www.w3.org/2000/svg">
<path fill-rule="evenodd" clip-rule="evenodd" d="M30.2239 69.1433C4.46138 96.1472 -13.8818 134.762 13.8287 157.641C44.7762 183.184 108.61 177.254 141.61 129.062C162.703 98.2765 173.866 49.6066 150.5 22.3067C130.495 -1.06862 61.8303 36.0092 30.2239 69.1433Z" fill="#11A8F0"/>
<g clip-path="url(#clip0)">
<path d="M115.055 176.605H49.0621C40.9555 176.605 34.3832 170.033 34.3832 161.926V18.794C34.3832 10.6873 40.955 4.11502 49.0621 4.11502H115.055C123.162 4.11502 129.734 10.6868 129.734 18.794V161.926C129.734 170.033 123.163 176.605 115.055 176.605Z" fill="white"/>
<path d="M115.055 180.386H49.0626C38.8833 180.386 30.6018 172.105 30.6018 161.926V18.794C30.6018 8.61513 38.8833 0.333679 49.0626 0.333679H115.055C125.234 0.333679 133.515 8.61513 133.515 18.794V161.926C133.515 172.105 125.234 180.386 115.055 180.386ZM49.0626 7.89641C43.0532 7.89641 38.1645 12.7851 38.1645 18.794V161.926C38.1645 167.935 43.0532 172.823 49.0626 172.823H115.055C121.064 172.823 125.952 167.935 125.952 161.926V18.794C125.952 12.7851 121.064 7.89641 115.055 7.89641H49.0626V7.89641Z" fill="#4E3699"/>
<path d="M118.482 23.9379H45.6319V156.788H118.482V23.9379Z" fill="#80C9FF"/>
<path d="M118.485 23.9353L45.6329 156.784H118.485V23.9353Z" fill="#5AB0E5"/>
<path d="M90.0244 13.6516H77.4151C76.0836 13.6516 75.0048 14.7309 75.0048 16.0624C75.0048 17.3935 76.0836 18.4728 77.4151 18.4728H90.0244C91.3559 18.4728 92.4352 17.3935 92.4352 16.0624C92.4357 14.7314 91.3559 13.6516 90.0244 13.6516Z" fill="#80C9FF"/>
<path d="M68.7016 19.0207C70.3363 19.0207 71.6614 17.6956 71.6614 16.061C71.6614 14.4263 70.3363 13.1012 68.7016 13.1012C67.067 13.1012 65.7419 14.4263 65.7419 16.061C65.7419 17.6956 67.067 19.0207 68.7016 19.0207Z" fill="#80C9FF"/>
<path d="M87.7429 160.356H76.3743C73.9624 160.356 71.9996 162.319 71.9996 164.731C71.9996 167.143 73.9624 169.106 76.3743 169.106H87.7429C90.1552 169.106 92.1176 167.143 92.1176 164.731C92.1176 162.318 90.1552 160.356 87.7429 160.356Z" fill="#80C9FF"/>
<path d="M19.8211 44.0029C17.7329 44.0029 16.0402 45.696 16.0402 47.7843V64.7197C16.0402 66.808 17.7334 68.5006 19.8211 68.5006C21.9098 68.5006 23.6025 66.8075 23.6025 64.7197V47.7843C23.6025 45.6955 21.9093 44.0029 19.8211 44.0029Z" fill="#4E3699"/>
<path d="M19.8211 73.8702C17.7329 73.8702 16.0402 75.5634 16.0402 77.6516V83.8823C16.0402 85.971 17.7334 87.6637 19.8211 87.6637C21.9098 87.6637 23.6025 85.9705 23.6025 83.8823V77.6516C23.6025 75.5634 21.9093 73.8702 19.8211 73.8702Z" fill="#4E3699"/>
<path d="M19.8211 93.7625C17.7329 93.7625 16.0402 95.4562 16.0402 97.5439V133.766C16.0402 135.855 17.7334 137.547 19.8211 137.547C21.9098 137.547 23.6025 135.854 23.6025 133.766V97.5439C23.6025 95.4552 21.9093 93.7625 19.8211 93.7625Z" fill="#4E3699"/>
<path d="M19.8211 142.984C17.7329 142.984 16.0402 144.677 16.0402 146.766V150.022C16.0402 152.111 17.7334 153.803 19.8211 153.803C21.9098 153.803 23.6025 152.11 23.6025 150.022V146.766C23.6025 144.677 21.9093 142.984 19.8211 142.984Z" fill="#4E3699"/>
<g clip-path="url(#clip1)">
<path d="M153.555 128.751C153.155 127.874 152.692 126.983 152.14 126.025C151.798 125.433 151.042 125.231 150.45 125.572C149.858 125.913 149.656 126.67 149.997 127.262C150.51 128.15 150.937 128.973 151.304 129.777C151.511 130.232 151.96 130.501 152.43 130.501C152.601 130.501 152.776 130.465 152.942 130.389C153.564 130.106 153.838 129.372 153.555 128.751Z" fill="#4E3699"/>
<path d="M145.729 112.234C145.577 111.568 144.914 111.151 144.248 111.304C143.582 111.456 143.166 112.119 143.318 112.785C144.192 116.609 145.546 120.148 147.233 123.02C147.463 123.412 147.876 123.63 148.301 123.63C148.513 123.63 148.729 123.575 148.926 123.46C149.515 123.114 149.712 122.356 149.366 121.767C147.394 118.411 146.3 114.73 145.729 112.234Z" fill="#4E3699"/>
<path d="M145.287 107.351C145.287 105.603 145.36 103.754 145.891 102.085C146.098 101.434 145.738 100.738 145.087 100.531C144.435 100.325 143.741 100.685 143.533 101.336C142.9 103.327 142.813 105.403 142.813 107.351C142.813 108.034 143.367 108.588 144.05 108.588C144.733 108.588 145.287 108.034 145.287 107.351Z" fill="#4E3699"/>
<path d="M172.542 150.172C181.58 149.844 184 143.004 184 143.003C182.179 135.885 185.663 128.389 190.175 123C193.695 118.796 196.003 114.048 196.003 108.42C196.003 96.186 185.499 86.2682 172.542 86.2682H172.871C159.914 86.2682 149.41 96.186 149.41 108.42C149.41 112.613 150.826 116.665 153.09 120.2C154.949 123.103 157.084 125.683 158.614 128.805C160.748 133.159 162.111 138.145 161.223 143.004C161.223 143.004 164.404 149.909 172.871 150.172" fill="white"/>
<path d="M172.832 151.408C172.788 151.407 172.744 151.405 172.7 151.403C172.662 151.405 172.624 151.406 172.587 151.408L172.586 151.398C163.644 150.993 160.241 143.828 160.1 143.521L159.936 143.166L160.006 142.781C160.742 138.758 159.899 134.239 157.503 129.349C156.532 127.368 155.312 125.622 154.021 123.774C153.366 122.837 152.69 121.869 152.048 120.867C149.513 116.908 148.173 112.603 148.173 108.42C148.173 95.6272 159.074 85.2004 172.542 85.0331V85.0312L172.871 85.0331C186.339 85.2004 197.24 95.6274 197.24 108.42C197.24 113.85 195.239 118.879 191.124 123.794C188.645 126.754 183.107 134.521 185.199 142.697L185.292 143.061L185.166 143.416C185.057 143.725 182.399 150.93 172.833 151.397L172.832 151.408ZM162.512 142.803C163.216 144.072 166.192 148.629 172.696 148.927C179.578 148.594 182.13 144.124 182.702 142.899C181.914 139.464 182.198 135.781 183.546 131.943C184.714 128.617 186.679 125.249 189.227 122.206C192.954 117.754 194.766 113.245 194.766 108.42C194.766 96.939 184.886 87.5886 172.706 87.5056C160.527 87.5888 150.646 96.939 150.646 108.42C150.646 112.13 151.851 115.973 154.131 119.533C154.746 120.493 155.408 121.441 156.048 122.357C157.337 124.201 158.669 126.108 159.724 128.26C162.277 133.47 163.214 138.361 162.512 142.803Z" fill="#4E3699"/>
<path d="M183.653 142.385H161.76C160.335 142.385 159.169 141.219 159.169 139.793C159.169 138.368 160.335 137.202 161.76 137.202H183.653C185.078 137.202 186.244 138.368 186.244 139.793C186.244 141.219 185.078 142.385 183.653 142.385Z" fill="#FFB829"/>
<path d="M183.653 143.621H161.76C159.649 143.621 157.932 141.904 157.932 139.793C157.932 137.682 159.649 135.965 161.76 135.965H183.653C185.763 135.965 187.481 137.682 187.481 139.793C187.481 141.904 185.763 143.621 183.653 143.621ZM161.76 138.439C161.013 138.439 160.405 139.046 160.405 139.793C160.405 140.54 161.013 141.148 161.76 141.148H183.653C184.4 141.148 185.007 140.54 185.007 139.793C185.007 139.046 184.4 138.439 183.653 138.439H161.76Z" fill="#4E3699"/>
<path d="M182.518 147.567H162.895C161.47 147.567 160.304 146.401 160.304 144.976C160.304 143.551 161.47 142.385 162.895 142.385H182.518C183.943 142.385 185.109 143.551 185.109 144.976C185.109 146.401 183.943 147.567 182.518 147.567Z" fill="#FF6A48"/>
<path d="M182.518 148.804H162.895C160.784 148.804 159.067 147.087 159.067 144.976C159.067 142.865 160.784 141.148 162.895 141.148H182.518C184.628 141.148 186.346 142.865 186.346 144.976C186.346 147.087 184.628 148.804 182.518 148.804ZM162.895 143.621C162.148 143.621 161.54 144.229 161.54 144.976C161.54 145.722 162.148 146.33 162.895 146.33H182.518C183.265 146.33 183.872 145.722 183.872 144.976C183.872 144.229 183.265 143.621 182.518 143.621H162.895Z" fill="#4E3699"/>
<path d="M181.008 152.749H164.404C162.979 152.749 161.813 151.583 161.813 150.158C161.813 148.733 162.979 147.567 164.404 147.567H181.008C182.434 147.567 183.6 148.733 183.6 150.158C183.6 151.583 182.434 152.749 181.008 152.749Z" fill="#FFB829"/>
<path d="M181.009 153.986H164.404C162.293 153.986 160.576 152.269 160.576 150.158C160.576 148.048 162.293 146.33 164.404 146.33H181.009C183.119 146.33 184.837 148.048 184.837 150.158C184.837 152.269 183.119 153.986 181.009 153.986ZM164.404 148.804C163.657 148.804 163.05 149.412 163.05 150.158C163.05 150.905 163.657 151.513 164.404 151.513H181.009C181.755 151.513 182.363 150.905 182.363 150.158C182.363 149.412 181.755 148.804 181.009 148.804H164.404Z" fill="#4E3699"/>
<path d="M157.801 109.878C156.693 108.588 156.023 106.911 156.023 105.077C156.023 101.008 159.322 97.7085 163.391 97.7085C163.543 97.7085 163.693 97.713 163.842 97.722L163.843 98.1095C163.843 95.9778 165.571 94.2497 167.702 94.2497C169.179 94.2497 170.462 95.0795 171.112 96.2981H171.111V99.9209V118.732V124.385L170.989 124.526C170.369 124.998 169.594 125.278 168.755 125.278C166.713 125.278 165.057 123.623 165.057 121.581L165.223 122.677C164.609 123.193 163.816 123.503 162.951 123.503C161 123.503 159.418 121.921 159.418 119.969C159.418 119.238 159.64 118.558 160.021 117.994L160.074 117.887C158.221 116.97 156.948 115.06 156.948 112.854C156.948 109.753 159.462 107.239 162.562 107.239" fill="#80C9FF"/>
<path d="M172.323 96.0506C172.322 96.0466 172.321 96.0426 172.32 96.0386C172.312 96.0036 172.304 95.9688 172.293 95.9343C172.29 95.9244 172.286 95.9151 172.283 95.9053C172.273 95.877 172.264 95.8487 172.252 95.8208C172.247 95.8077 172.24 95.7953 172.234 95.7826C172.224 95.7605 172.215 95.7383 172.203 95.7167C171.315 94.0491 169.591 93.0131 167.702 93.0131C165.459 93.0131 163.55 94.4713 162.871 96.4893C158.371 96.7587 154.786 100.508 154.786 105.077C154.786 106.845 155.332 108.564 156.336 110.001C155.936 110.87 155.711 111.836 155.711 112.854C155.711 115.056 156.744 117.066 158.468 118.345C158.28 118.862 158.181 119.41 158.181 119.969C158.181 122.6 160.321 124.74 162.951 124.74C163.557 124.74 164.153 124.621 164.709 124.4C165.601 125.677 167.082 126.515 168.755 126.515C169.842 126.515 170.874 126.168 171.738 125.511C171.833 125.438 171.915 125.354 171.983 125.262C172.208 125.038 172.348 124.728 172.348 124.385V96.3213C172.35 96.2313 172.341 96.1405 172.323 96.0506ZM166.294 121.581C166.294 120.898 165.74 120.344 165.057 120.344C164.374 120.344 163.821 120.898 163.821 121.581C163.821 121.75 163.829 121.918 163.846 122.083C163.565 122.202 163.261 122.267 162.951 122.267C161.685 122.267 160.654 121.236 160.654 119.969C160.654 119.509 160.79 119.065 161.046 118.686C161.093 118.616 161.132 118.543 161.163 118.468C161.169 118.457 161.176 118.448 161.182 118.437C161.485 117.825 161.235 117.083 160.623 116.779C159.119 116.034 158.185 114.53 158.185 112.854C158.185 110.44 160.149 108.476 162.562 108.476C163.245 108.476 163.799 107.922 163.799 107.239C163.799 106.556 163.245 106.003 162.562 106.003C160.769 106.003 159.135 106.696 157.912 107.828C157.487 106.98 157.259 106.039 157.259 105.077C157.259 101.845 159.774 99.191 162.949 98.9631C163.174 99.1987 163.491 99.3463 163.842 99.3463C164.525 99.3463 165.079 98.7925 165.079 98.1097C165.079 96.6633 166.256 95.4867 167.702 95.4867C168.58 95.4867 169.388 95.9231 169.874 96.6406V123.772C169.53 123.948 169.15 124.041 168.754 124.041C167.398 124.041 166.294 122.938 166.294 121.581Z" fill="#4E3699"/>
<path d="M166.686 114.191C165.045 112.831 163.044 113.021 162.821 113.047C162.143 113.126 161.657 113.741 161.737 114.419C161.817 115.098 162.431 115.585 163.11 115.504C163.121 115.503 164.272 115.403 165.107 116.095C165.699 116.585 166.039 117.402 166.118 118.522C166.163 119.174 166.706 119.673 167.35 119.673C167.379 119.673 167.408 119.671 167.438 119.669C168.119 119.621 168.633 119.03 168.585 118.349C168.457 116.528 167.818 115.129 166.686 114.191Z" fill="#4E3699"/>
<path d="M167.874 98.9937C167.227 98.774 166.525 99.1206 166.306 99.7674C165.288 102.768 162.565 102.242 162.25 102.17C161.59 102.012 160.924 102.417 160.762 103.078C160.599 103.742 161.005 104.411 161.668 104.574C161.685 104.578 162.214 104.701 162.987 104.701C164.651 104.701 167.438 104.129 168.648 100.562C168.868 99.9152 168.521 99.2131 167.874 98.9937Z" fill="#4E3699"/>
<path d="M181.415 111.402C185.507 111.402 188.823 108.26 188.823 104.384C188.823 100.695 185.818 97.6702 182 97.3881V98.0354C182 97.774 181.972 97.519 181.918 97.2724C181.546 95.5473 179.934 94.2497 178.003 94.2497C176.624 94.2497 175.408 94.9119 174.69 95.9188L174.495 96.2982V99.9209V118.732V124.385L174.648 124.274C175.348 125.137 176.448 125.693 177.686 125.693C179.802 125.693 181.517 124.068 181.517 122.064L179.32 118.435C179.32 119.964 180.24 121.289 181.583 121.941C182.151 122.216 182.794 122.372 183.476 122.372C185.77 122.372 187.631 120.609 187.631 118.435C187.631 117.323 187.144 116.319 186.362 115.604L186.362 115.605C188.01 115.022 189.184 113.517 189.184 111.752C189.184 110.406 188.501 109.212 187.445 108.462" fill="#80C9FF"/>
<path d="M190.42 111.752C190.42 110.458 189.922 109.212 189.052 108.248C189.695 107.094 190.06 105.78 190.06 104.384C190.06 100.36 186.971 96.9265 182.893 96.2511C182.132 94.3365 180.192 93.0133 178.003 93.0133C176.275 93.0133 174.66 93.8309 173.683 95.2009C173.604 95.3118 173.546 95.4316 173.508 95.5549C173.352 95.7622 173.258 96.019 173.258 96.2985V124.386C173.258 124.825 173.488 125.209 173.832 125.429C174.797 126.516 176.189 127.136 177.686 127.136C180.025 127.136 181.997 125.607 182.579 123.536C182.875 123.584 183.175 123.609 183.475 123.609C186.449 123.609 188.868 121.288 188.868 118.436C188.868 117.568 188.647 116.737 188.233 115.997C189.583 115 190.42 113.438 190.42 111.752ZM183.475 121.135C182.997 121.135 182.543 121.032 182.123 120.828C181.157 120.359 180.557 119.442 180.557 118.436C180.557 117.752 180.003 117.199 179.32 117.199C178.637 117.199 178.083 117.752 178.083 118.436C178.083 120.097 178.898 121.618 180.255 122.583C180.088 123.755 179.001 124.662 177.686 124.662C176.926 124.662 176.226 124.362 175.732 123.837V96.5939C176.249 95.9007 177.092 95.4868 178.003 95.4868C179.315 95.4868 180.453 96.3477 180.709 97.5332C180.745 97.6972 180.763 97.8663 180.763 98.0354C180.763 98.7186 181.316 99.2722 181.999 99.2722C182.397 99.2722 182.75 99.084 182.976 98.7923C185.632 99.4465 187.587 101.733 187.587 104.384C187.587 107.572 184.818 110.165 181.415 110.165C180.732 110.165 180.179 110.719 180.179 111.402C180.179 112.085 180.733 112.639 181.415 112.639C183.781 112.639 185.926 111.726 187.489 110.252C187.784 110.697 187.947 111.211 187.947 111.752C187.947 112.937 187.144 114.016 185.95 114.438C185.923 114.448 185.898 114.459 185.873 114.47C185.861 114.475 185.847 114.48 185.835 114.486C185.771 114.515 185.713 114.551 185.657 114.59C185.647 114.596 185.637 114.602 185.627 114.609C185.567 114.654 185.511 114.704 185.461 114.758C185.457 114.762 185.452 114.765 185.449 114.769C185.447 114.77 185.446 114.772 185.445 114.774C185.393 114.831 185.348 114.893 185.308 114.957C185.302 114.968 185.296 114.978 185.29 114.989C185.255 115.05 185.224 115.114 185.2 115.18C185.196 115.19 185.194 115.201 185.19 115.212C185.168 115.278 185.15 115.346 185.139 115.415C185.138 115.422 185.138 115.429 185.137 115.436C185.127 115.508 185.122 115.582 185.126 115.656C185.126 115.659 185.126 115.662 185.127 115.665C185.13 115.739 185.14 115.814 185.158 115.888C185.158 115.89 185.159 115.893 185.159 115.895C185.169 115.936 185.181 115.976 185.195 116.017C185.203 116.037 185.213 116.054 185.221 116.074C185.232 116.101 185.243 116.126 185.256 116.152C185.28 116.201 185.308 116.247 185.338 116.292C185.348 116.308 185.357 116.324 185.369 116.34C185.415 116.402 185.466 116.46 185.523 116.512C185.524 116.513 185.525 116.515 185.526 116.516C186.085 117.028 186.393 117.709 186.393 118.435C186.394 119.924 185.085 121.135 183.475 121.135Z" fill="#4E3699"/>
<path d="M182.566 106.765C182.501 106.765 182.435 106.76 182.369 106.75C177.557 105.979 176.4 102.081 176.46 100.127C176.481 99.4437 177.055 98.9043 177.734 98.9286C178.415 98.9495 178.949 99.5161 178.933 100.195C178.927 100.559 178.991 103.704 182.76 104.307C183.434 104.415 183.893 105.049 183.786 105.724C183.688 106.332 183.163 106.765 182.566 106.765Z" fill="#4E3699"/>
<path d="M172.706 81.9918C172.023 81.9918 171.47 81.438 171.47 80.7552V73.9526C171.47 73.2694 172.024 72.7157 172.706 72.7157C173.389 72.7157 173.943 73.2695 173.943 73.9526V80.7552C173.943 81.438 173.389 81.9918 172.706 81.9918Z" fill="#4E3699"/>
<path d="M154.498 85.1185C154.181 85.1185 153.865 84.9978 153.623 84.7563L148.813 79.9464C148.33 79.4632 148.33 78.6802 148.813 78.1973C149.296 77.714 150.079 77.7144 150.562 78.1969L155.372 83.007C155.855 83.4901 155.855 84.2732 155.372 84.7561C155.131 84.9976 154.814 85.1185 154.498 85.1185Z" fill="#4E3699"/>
<path d="M190.915 85.1185C190.598 85.1185 190.282 84.9978 190.04 84.7561C189.557 84.2732 189.557 83.4901 190.04 83.007L194.851 78.1969C195.334 77.7144 196.117 77.714 196.6 78.1973C197.083 78.6802 197.083 79.4632 196.6 79.9464L191.789 84.7563C191.548 84.9976 191.232 85.1185 190.915 85.1185Z" fill="#4E3699"/>
</g>
<g filter="url(#filter0_f)">
<path d="M54.1348 118.295L58.3667 102.853C55.7646 98.3349 54.3778 93.2023 54.3921 87.9552C54.3921 71.5129 67.7745 58.1448 84.2168 58.1448C92.1947 58.1448 99.6867 61.2474 105.306 66.8805C110.939 72.5137 114.042 80.0056 114.027 87.9695C114.027 104.412 100.645 117.78 84.2025 117.78H84.1882C79.1984 117.78 74.2942 116.522 69.9335 114.148L54.1348 118.295ZM70.677 108.744L71.5777 109.287C75.3809 111.546 79.7416 112.733 84.1882 112.747H84.2025C97.8568 112.747 108.98 101.638 108.98 87.9695C108.98 81.3496 106.407 75.1303 101.731 70.4405C97.056 65.7509 90.8222 63.1775 84.2025 63.1775C70.5339 63.1775 59.4105 74.2866 59.4105 87.955C59.4105 92.6305 60.7115 97.1913 63.1994 101.138L63.7855 102.081L61.2836 111.217L70.677 108.744V108.744Z" fill="black" fill-opacity="0.24"/>
</g>
<path d="M55.4876 116.701L59.5259 101.973C57.0358 97.6536 55.7259 92.7548 55.7276 87.7687C55.7276 72.0953 68.4923 59.3449 84.1512 59.3449C91.762 59.3449 98.8928 62.3101 104.258 67.6756C109.624 73.0413 112.575 80.1862 112.575 87.7828C112.575 103.456 99.8105 116.206 84.1514 116.206H84.1374C79.3787 116.206 74.705 115.006 70.5537 112.747L55.4876 116.701V116.701Z" fill="url(#paint0_linear)"/>
<path d="M54.4562 117.731L58.6356 102.481C56.0658 98.0194 54.696 92.9502 54.7103 87.7683C54.7103 71.5302 67.9267 58.3279 84.165 58.3279C92.0437 58.3279 99.4425 61.3917 104.992 66.9551C110.555 72.5184 113.619 79.9174 113.605 87.7823C113.605 104.02 100.389 117.223 84.1504 117.223H84.1366C79.2182 117.221 74.3785 115.988 70.0588 113.636L54.4562 117.731V117.731ZM70.7929 108.299L71.6825 108.835C75.4386 111.066 79.745 112.238 84.1366 112.252H84.1507C97.6352 112.252 108.621 101.281 108.621 87.7823C108.621 81.2448 106.079 75.1025 101.462 70.4711C96.8446 65.8398 90.6882 63.2981 84.1507 63.2981C70.6518 63.2981 59.6665 74.2694 59.6665 87.7683C59.6665 92.3855 60.9513 96.8898 63.4083 100.787L63.9873 101.719L61.5162 110.741L70.7929 108.299V108.299Z" fill="white"/>
<path d="M76.7949 75.4419C76.2441 74.2134 75.6651 74.185 75.1428 74.171C74.7193 74.1569 74.2252 74.1569 73.7308 74.1569C73.2367 74.1569 72.4458 74.3404 71.7681 75.0746C71.0902 75.809 69.1981 77.5881 69.1981 81.2171C69.1981 84.8316 71.8387 88.3334 72.2058 88.8275C72.5728 89.3219 77.3031 96.989 84.7726 99.9401C90.9855 102.397 92.2564 101.903 93.5977 101.776C94.9532 101.649 97.9468 99.9966 98.568 98.274C99.1751 96.5513 99.1751 95.0828 98.9915 94.7722C98.808 94.4614 98.3139 94.2781 97.5795 93.9108C96.8453 93.5437 93.2306 91.7646 92.5529 91.5105C91.875 91.2564 91.3809 91.1434 90.9009 91.8776C90.4065 92.6117 88.9947 94.2638 88.5709 94.7582C88.1473 95.2523 87.7097 95.3088 86.9753 94.9417C86.2411 94.5746 83.869 93.7978 81.0592 91.2845C78.8706 89.3359 77.388 86.9213 76.9641 86.1872C76.5406 85.453 76.922 85.0574 77.289 84.6905C77.6137 84.3656 78.0232 83.8291 78.3905 83.4055C78.7576 82.982 78.8846 82.6714 79.1247 82.177C79.3647 81.6829 79.2517 81.2593 79.0682 80.8923C78.8846 80.5249 77.4445 76.8961 76.7949 75.4419V75.4419Z" fill="white"/>
</g>
<defs>
<filter id="filter0_f" x="48.1348" y="52.1448" width="71.8925" height="72.1498" filterUnits="userSpaceOnUse" color-interpolation-filters="sRGB">
<feFlood flood-opacity="0" result="BackgroundImageFix"/>
<feBlend mode="normal" in="SourceGraphic" in2="BackgroundImageFix" result="shape"/>
<feGaussianBlur stdDeviation="3" result="effect1_foregroundBlur"/>
</filter>
<linearGradient id="paint0_linear" x1="84.0303" y1="116.697" x2="84.0303" y2="59.3415" gradientUnits="userSpaceOnUse">
<stop stop-color="#20B038"/>
<stop offset="1" stop-color="#60D66A"/>
</linearGradient>
<clipPath id="clip0">
<rect x="16.0402" width="180.72" height="180.72" fill="white"/>
</clipPath>
<clipPath id="clip1">
<rect x="129.391" y="72.7157" width="81.2705" height="81.2705" fill="white"/>
</clipPath>
</defs>
</svg>
